<?xml version="1.0" encoding="utf-8"?>
<!-- Generator: Adobe Illustrator 21.1.0, SVG Export Plug-In . SVG Version: 6.00 Build 0)  -->
<svg version="1.1" id="레이어_1" xmlns="http://www.w3.org/2000/svg" xmlns:xlink="http://www.w3.org/1999/xlink" x="0px"
	 y="0px" viewBox="0 0 36.417 16" style="enable-background:new 0 0 36.417 16;" xml:space="preserve">
<style type="text/css">
	.st0{fill:#FFFFFF;}
</style>
<g>
	<path class="st0" d="M10.449,7.287c0.085,0,0.192-0.001,0.32-0.004c0.128-0.003,0.253-0.005,0.376-0.008
		c0.123-0.002,0.229-0.005,0.32-0.008c0.09-0.003,0.141-0.004,0.152-0.004c0.235-0.005,0.352,0.106,0.352,0.336
		c0,0.117-0.031,0.199-0.092,0.244c-0.062,0.045-0.129,0.068-0.204,0.068c-0.464,0.011-0.912,0.02-1.344,0.028
		S9.465,7.951,9.033,7.951H8.416c-0.341,0-0.697,0-1.068,0s-0.716-0.013-1.036-0.04c-0.085-0.011-0.15-0.044-0.196-0.1
		S6.054,7.668,6.065,7.55c0.01-0.101,0.049-0.174,0.116-0.22s0.151-0.065,0.252-0.06c0.139,0.005,0.288,0.011,0.448,0.016
		c0.16,0.005,0.341,0.011,0.544,0.016c0.154,0,0.291,0.001,0.408,0.004C7.95,7.309,8.062,7.312,8.169,7.314
		c0.106,0.003,0.213,0.004,0.32,0.004c0.106,0,0.229,0,0.368,0c0.138,0,0.284-0.001,0.436-0.004c0.152-0.002,0.3-0.005,0.444-0.008
		c0.144-0.003,0.277-0.007,0.4-0.012S10.363,7.287,10.449,7.287z M9.409,5.006c0.027-0.016,0.039-0.03,0.036-0.044
		c-0.003-0.013-0.02-0.02-0.052-0.02c-0.133,0-0.28,0.001-0.44,0.004c-0.16,0.003-0.324,0.004-0.492,0.004
		c-0.168,0-0.333,0.001-0.496,0.004C7.802,4.957,7.651,4.958,7.513,4.958c-0.091,0-0.171-0.019-0.24-0.056
		c-0.07-0.037-0.109-0.117-0.12-0.24C7.147,4.572,7.171,4.497,7.224,4.438s0.157-0.088,0.312-0.088c0.4,0,0.8-0.003,1.2-0.008
		c0.4-0.005,0.784-0.008,1.152-0.008c0.075,0,0.164-0.001,0.268-0.004c0.104-0.002,0.193,0.001,0.268,0.012
		c0.106,0.011,0.183,0.04,0.228,0.088c0.045,0.048,0.073,0.101,0.084,0.16c0.011,0.064,0.006,0.125-0.012,0.184
		c-0.019,0.059-0.06,0.118-0.124,0.176c-0.139,0.117-0.281,0.23-0.428,0.34c-0.147,0.109-0.3,0.215-0.46,0.316
		c0.224,0.118,0.448,0.226,0.672,0.324s0.418,0.177,0.584,0.236c0.101,0.038,0.165,0.092,0.192,0.164
		c0.027,0.072,0.029,0.143,0.008,0.212c-0.032,0.064-0.087,0.111-0.164,0.14c-0.078,0.029-0.167,0.031-0.268,0.004
		c-0.064-0.016-0.156-0.044-0.276-0.084c-0.12-0.04-0.258-0.091-0.412-0.152c-0.155-0.062-0.32-0.129-0.496-0.204
		s-0.35-0.155-0.52-0.24c-0.299,0.16-0.6,0.302-0.904,0.424C7.825,6.553,7.526,6.66,7.233,6.75C7.126,6.783,7.03,6.781,6.945,6.747
		C6.859,6.712,6.803,6.649,6.777,6.559c-0.021-0.08-0.009-0.153,0.036-0.22c0.045-0.066,0.113-0.113,0.204-0.14
		c0.368-0.144,0.755-0.31,1.16-0.496C8.582,5.516,8.993,5.284,9.409,5.006z M7.233,9.175C7.142,9.148,7.074,9.109,7.029,9.059
		C6.983,9.008,6.966,8.929,6.976,8.823c0.011-0.096,0.049-0.171,0.116-0.224c0.066-0.053,0.164-0.075,0.292-0.064
		c0.192,0.011,0.4,0.016,0.624,0.016c0.224,0,0.437,0,0.64,0C9.08,8.545,9.455,8.542,9.773,8.539
		c0.317-0.003,0.534-0.009,0.652-0.02c0.133-0.011,0.239-0.009,0.316,0.004s0.136,0.036,0.176,0.068
		c0.04,0.032,0.065,0.074,0.076,0.124c0.011,0.051,0.016,0.108,0.016,0.172c0,0.203,0,0.373,0,0.512s0,0.252,0,0.34
		c0,0.089-0.001,0.156-0.004,0.204C11.002,9.991,11,10.028,11,10.055c-0.005,0.064-0.013,0.116-0.024,0.156s-0.031,0.069-0.06,0.088
		s-0.069,0.032-0.12,0.04c-0.051,0.008-0.116,0.015-0.196,0.02c-0.027,0-0.079,0.002-0.156,0.004
		c-0.078,0.003-0.171,0.006-0.28,0.009c-0.109,0.002-0.228,0.005-0.356,0.008s-0.256,0.004-0.384,0.004
		c-0.31,0-0.609,0.001-0.9,0.004c-0.291,0.003-0.538,0.01-0.74,0.021c-0.005,0.09-0.007,0.172-0.004,0.243
		c0.002,0.072,0.004,0.148,0.004,0.229c0,0.021,0.007,0.044,0.02,0.067c0.013,0.024,0.042,0.036,0.084,0.036
		c0.091,0,0.183,0.004,0.276,0.013c0.093,0.008,0.193,0.012,0.3,0.012c0.229,0,0.472-0.002,0.728-0.005
		c0.256-0.004,0.517-0.013,0.784-0.027c0.133,0,0.276-0.004,0.428-0.012s0.305-0.018,0.46-0.028
		c0.128-0.011,0.223,0.018,0.284,0.084c0.061,0.066,0.092,0.146,0.092,0.236c0,0.063-0.02,0.124-0.06,0.18
		c-0.04,0.057-0.105,0.098-0.196,0.124c-0.038,0.011-0.124,0.021-0.26,0.028c-0.136,0.008-0.273,0.015-0.412,0.02
		c-0.32,0.011-0.639,0.021-0.956,0.028c-0.317,0.008-0.612,0.012-0.884,0.012c-0.096,0-0.195,0-0.296,0
		c-0.102,0-0.2-0.001-0.296-0.004c-0.096-0.003-0.184-0.005-0.264-0.008s-0.144-0.007-0.192-0.012
		c-0.155-0.017-0.261-0.058-0.32-0.125c-0.059-0.067-0.088-0.178-0.088-0.333c0-0.07,0-0.148,0-0.237s0-0.177,0-0.265
		c0-0.089,0-0.172,0-0.25c0-0.077,0-0.143,0-0.196c-0.011-0.183,0.019-0.303,0.088-0.361c0.069-0.06,0.166-0.089,0.288-0.089
		c0.069,0,0.181,0,0.336,0s0.328-0.001,0.52-0.004C8.441,9.76,8.643,9.758,8.857,9.755C9.07,9.752,9.271,9.749,9.461,9.747
		C9.65,9.744,9.818,9.743,9.965,9.743c0.146,0,0.252,0,0.316,0V9.262c0-0.042-0.008-0.068-0.024-0.079s-0.043-0.016-0.08-0.016
		c-0.112,0-0.257,0.003-0.436,0.008s-0.37,0.01-0.572,0.012C8.966,9.189,8.761,9.193,8.553,9.199
		C8.345,9.204,8.155,9.21,7.985,9.215C7.83,9.22,7.681,9.219,7.536,9.211S7.291,9.19,7.233,9.175z"/>
	<path class="st0" d="M12.857,5.398c-0.123,0-0.215-0.031-0.276-0.095c-0.062-0.063-0.092-0.134-0.092-0.213
		c0-0.084,0.033-0.158,0.1-0.221c0.066-0.063,0.161-0.092,0.284-0.087c0.139,0.005,0.316,0.008,0.532,0.008
		c0.216,0,0.452-0.002,0.708-0.008c0.139-0.005,0.268-0.008,0.388-0.008s0.236-0.005,0.348-0.016c0.021,0,0.062-0.001,0.12-0.004
		c0.059-0.002,0.096-0.004,0.112-0.004c0.213-0.011,0.364,0.03,0.452,0.123c0.088,0.092,0.108,0.267,0.06,0.525
		c-0.075,0.374-0.197,0.755-0.368,1.144c-0.171,0.39-0.374,0.767-0.608,1.132c-0.234,0.366-0.496,0.712-0.784,1.04
		c-0.288,0.329-0.587,0.621-0.896,0.876c-0.027,0.026-0.064,0.049-0.112,0.068c-0.048,0.019-0.097,0.031-0.148,0.04
		c-0.051,0.008-0.099,0.004-0.144-0.013c-0.045-0.016-0.084-0.048-0.116-0.096c-0.059-0.091-0.069-0.179-0.032-0.264
		c0.037-0.086,0.083-0.152,0.136-0.2c0.256-0.229,0.505-0.484,0.748-0.765c0.243-0.28,0.465-0.576,0.668-0.888
		c0.203-0.312,0.38-0.635,0.532-0.968c0.152-0.333,0.268-0.668,0.348-1.004c0.011-0.053,0.013-0.088,0.008-0.104
		s-0.037-0.024-0.096-0.024c-0.139,0-0.303,0.001-0.492,0.004c-0.189,0.003-0.377,0.007-0.564,0.012
		c-0.075,0-0.153,0.001-0.236,0.004c-0.083,0.003-0.162,0.004-0.236,0.004s-0.143,0-0.204,0C12.935,5.398,12.889,5.398,12.857,5.398
		z M15.889,5.942c0.038,0,0.087,0,0.148,0c0.061,0,0.128,0,0.2,0c0.072,0,0.148-0.001,0.228-0.004
		c0.08-0.002,0.155-0.004,0.224-0.004V4.512c0-0.113,0.032-0.198,0.096-0.257s0.149-0.088,0.256-0.088
		c0.117,0,0.205,0.035,0.264,0.104s0.088,0.149,0.088,0.24c0,0.106,0,0.244,0,0.412s0,0.356,0,0.564s-0.001,0.428-0.004,0.66
		c-0.002,0.232-0.004,0.463-0.004,0.692c0,0.363,0,0.746,0,1.148c0,0.403,0,0.796,0,1.181c0,0.384-0.001,0.745-0.004,1.084
		c-0.003,0.339-0.007,0.631-0.012,0.876c-0.005,0.106-0.042,0.188-0.112,0.244c-0.069,0.056-0.141,0.084-0.216,0.084
		c-0.107,0-0.192-0.035-0.256-0.104s-0.096-0.144-0.096-0.224c0.005-0.187,0.009-0.379,0.012-0.576
		c0.003-0.197,0.004-0.402,0.004-0.616c0-0.149-0.001-0.321-0.004-0.516c-0.002-0.194-0.004-0.375-0.004-0.541V8.495h-0.392
		c-0.165,0-0.321,0.001-0.468,0.004c-0.147,0.003-0.257,0.004-0.332,0.004c-0.102,0-0.177-0.029-0.228-0.087
		s-0.076-0.137-0.076-0.237c0-0.105,0.028-0.185,0.084-0.237c0.056-0.053,0.132-0.079,0.228-0.079h1.176v-1.28
		c-0.149-0.011-0.295-0.015-0.436-0.012c-0.142,0.003-0.273,0.004-0.396,0.004c-0.091,0-0.166-0.029-0.224-0.087
		c-0.059-0.058-0.088-0.137-0.088-0.237c0-0.095,0.032-0.171,0.096-0.229C15.705,5.963,15.787,5.938,15.889,5.942z"/>
	<path class="st0" d="M20.433,5.807c0.026-0.043,0.016-0.064-0.032-0.064c-0.117,0-0.254,0.001-0.408,0.004
		c-0.155,0.002-0.308,0.004-0.46,0.004s-0.294,0-0.424,0c-0.131,0-0.231,0-0.3,0c-0.149-0.005-0.244-0.037-0.284-0.096
		c-0.04-0.059-0.063-0.12-0.068-0.184c-0.005-0.075,0.019-0.146,0.072-0.212c0.053-0.066,0.149-0.105,0.288-0.116
		c0.085-0.005,0.194-0.008,0.328-0.008c0.133,0,0.276-0.002,0.432-0.008c0.112,0,0.227-0.001,0.344-0.004
		c0.117-0.002,0.232-0.004,0.344-0.004c0.112,0,0.217-0.001,0.313-0.004c0.096-0.003,0.173-0.007,0.232-0.012
		c0.059-0.005,0.119-0.001,0.184,0.012c0.063,0.013,0.123,0.035,0.176,0.064c0.054,0.029,0.098,0.068,0.132,0.116
		c0.035,0.048,0.053,0.107,0.053,0.176c0,0.037-0.006,0.079-0.017,0.124c-0.011,0.045-0.029,0.097-0.056,0.156
		c-0.075,0.16-0.163,0.317-0.264,0.472c-0.102,0.155-0.214,0.301-0.337,0.44c0.155,0.16,0.31,0.316,0.465,0.468
		c0.154,0.152,0.316,0.308,0.487,0.468c0.059,0.059,0.095,0.136,0.108,0.232c0.013,0.096-0.007,0.168-0.061,0.216
		c-0.074,0.069-0.154,0.1-0.239,0.092c-0.086-0.008-0.174-0.049-0.265-0.124c-0.106-0.085-0.248-0.204-0.424-0.356
		c-0.176-0.152-0.357-0.316-0.544-0.492c-0.24,0.235-0.479,0.438-0.716,0.608c-0.237,0.171-0.438,0.301-0.604,0.392
		c-0.267,0.149-0.442,0.147-0.527-0.008c-0.043-0.075-0.052-0.153-0.028-0.236c0.024-0.083,0.079-0.153,0.164-0.212
		c0.102-0.069,0.236-0.17,0.404-0.304s0.345-0.286,0.532-0.456c0.187-0.171,0.369-0.354,0.548-0.548
		C20.16,6.208,20.31,6.009,20.433,5.807z M19.225,4.646C19.118,4.62,19.03,4.579,18.96,4.522s-0.091-0.145-0.063-0.268
		c0.021-0.085,0.074-0.146,0.159-0.184c0.086-0.037,0.174-0.048,0.265-0.032c0.128,0.027,0.229,0.048,0.304,0.064
		c0.075,0.016,0.148,0.028,0.22,0.036C19.916,4.146,20,4.152,20.096,4.154c0.097,0.003,0.228,0.004,0.393,0.004
		c0.149,0,0.253,0.024,0.312,0.072s0.088,0.12,0.088,0.216c0,0.118-0.038,0.198-0.115,0.24c-0.078,0.043-0.153,0.064-0.229,0.064
		h-0.271c-0.188,0-0.361-0.007-0.524-0.02S19.411,4.689,19.225,4.646z M21.945,9.526c0.048-0.042,0.06-0.067,0.036-0.075
		c-0.024-0.009-0.05-0.013-0.076-0.013c-0.31,0.006-0.645,0.011-1.004,0.017c-0.36,0.005-0.743,0.008-1.148,0.008
		c-0.102,0-0.184-0.026-0.248-0.08c-0.063-0.054-0.096-0.131-0.096-0.232c0-0.09,0.028-0.165,0.084-0.224
		c0.056-0.059,0.147-0.088,0.276-0.088c0.191,0,0.399,0,0.624,0c0.224,0,0.454,0,0.691,0s0.475-0.001,0.712-0.004
		c0.237-0.002,0.466-0.006,0.685-0.012c0.144,0,0.26,0.006,0.348,0.02c0.088,0.014,0.169,0.052,0.244,0.116
		c0.063,0.059,0.092,0.137,0.084,0.236c-0.008,0.1-0.058,0.193-0.148,0.284c-0.261,0.267-0.575,0.542-0.943,0.824
		c0.25,0.154,0.491,0.297,0.724,0.428s0.431,0.239,0.596,0.324c0.097,0.048,0.163,0.11,0.2,0.188
		c0.037,0.077,0.026,0.164-0.032,0.26c-0.031,0.048-0.067,0.081-0.107,0.1s-0.083,0.026-0.128,0.024
		c-0.046-0.003-0.091-0.011-0.137-0.024c-0.045-0.013-0.089-0.027-0.132-0.044c-0.234-0.085-0.497-0.207-0.788-0.364
		c-0.29-0.157-0.566-0.313-0.827-0.468c-0.283,0.176-0.578,0.339-0.885,0.488s-0.62,0.274-0.939,0.376
		c-0.097,0.032-0.178,0.032-0.244,0s-0.113-0.083-0.14-0.152c-0.027-0.08-0.023-0.158,0.012-0.235
		c0.034-0.078,0.105-0.138,0.212-0.181c0.219-0.085,0.45-0.193,0.696-0.323c0.245-0.131,0.483-0.268,0.716-0.408
		c0.231-0.142,0.443-0.28,0.636-0.416C21.689,9.738,21.837,9.623,21.945,9.526z M22.456,4.519c0-0.101,0.039-0.179,0.116-0.232
		s0.169-0.075,0.275-0.064c0.08,0.005,0.155,0.031,0.225,0.076c0.069,0.045,0.104,0.116,0.104,0.212v0.656c0,0.085,0,0.16,0,0.224
		s0,0.124,0,0.18c0,0.056,0.002,0.115,0.004,0.176c0.003,0.062,0.005,0.129,0.005,0.204h0.384c0.091,0,0.177-0.001,0.26-0.004
		C23.911,5.944,24,5.942,24.096,5.942c0.123,0,0.215,0.034,0.276,0.1c0.062,0.067,0.092,0.143,0.092,0.228
		c0,0.08-0.027,0.155-0.084,0.224c-0.056,0.069-0.137,0.106-0.244,0.112c-0.117,0.005-0.249,0.008-0.396,0.008s-0.273,0-0.38,0
		h-0.176c-0.006,0.224-0.009,0.473-0.009,0.748c0,0.275,0,0.524,0,0.748c0,0.118-0.036,0.203-0.107,0.256
		c-0.072,0.053-0.151,0.08-0.236,0.08c-0.106,0-0.193-0.028-0.26-0.084c-0.066-0.056-0.101-0.143-0.101-0.26V7.727
		c0-0.293,0-0.592,0-0.896c0-0.304-0.002-0.629-0.008-0.976c0-0.112-0.001-0.232-0.004-0.36s-0.004-0.252-0.004-0.372
		s0-0.233,0-0.34C22.456,4.676,22.456,4.588,22.456,4.519z"/>
	<path class="st0" d="M25.376,5.398c-0.123,0-0.215-0.031-0.276-0.095c-0.062-0.063-0.092-0.134-0.092-0.213
		c0-0.084,0.033-0.158,0.1-0.221c0.066-0.063,0.161-0.092,0.284-0.087c0.139,0.005,0.316,0.008,0.532,0.008s0.452-0.002,0.708-0.008
		c0.139-0.005,0.268-0.008,0.388-0.008s0.236-0.005,0.348-0.016c0.021,0,0.062-0.001,0.12-0.004C27.546,4.752,27.584,4.75,27.6,4.75
		c0.213-0.011,0.364,0.03,0.452,0.123s0.107,0.267,0.06,0.525c-0.074,0.374-0.197,0.755-0.368,1.144
		c-0.17,0.39-0.373,0.767-0.607,1.132c-0.235,0.366-0.496,0.712-0.784,1.04c-0.288,0.329-0.587,0.621-0.896,0.876
		c-0.026,0.026-0.063,0.049-0.111,0.068c-0.048,0.019-0.098,0.031-0.148,0.04c-0.051,0.008-0.099,0.004-0.144-0.013
		c-0.046-0.016-0.084-0.048-0.116-0.096c-0.059-0.091-0.069-0.179-0.032-0.264c0.037-0.086,0.083-0.152,0.136-0.2
		c0.257-0.229,0.506-0.484,0.748-0.765c0.243-0.28,0.466-0.576,0.668-0.888c0.203-0.312,0.381-0.635,0.532-0.968
		c0.152-0.333,0.269-0.668,0.349-1.004c0.01-0.053,0.013-0.088,0.008-0.104c-0.006-0.016-0.037-0.024-0.097-0.024
		c-0.139,0-0.303,0.001-0.491,0.004c-0.189,0.003-0.378,0.007-0.564,0.012c-0.074,0-0.153,0.001-0.236,0.004
		c-0.082,0.003-0.161,0.004-0.235,0.004c-0.075,0-0.143,0-0.204,0S25.408,5.398,25.376,5.398z M29.119,8.878c0-0.73,0-1.458,0-2.184
		c0-0.725-0.002-1.453-0.008-2.184c0-0.112,0.032-0.197,0.097-0.256c0.063-0.059,0.148-0.088,0.256-0.088
		c0.117,0,0.205,0.035,0.264,0.104s0.088,0.149,0.088,0.24c0,0.106,0,0.244,0,0.412s0,0.356,0,0.564s-0.001,0.428-0.004,0.66
		s-0.004,0.463-0.004,0.692c0,0.363,0,0.746,0,1.148c0,0.403,0,0.796,0,1.181c0,0.384-0.001,0.745-0.004,1.084
		s-0.007,0.631-0.012,0.876c-0.006,0.106-0.043,0.188-0.112,0.244c-0.069,0.056-0.142,0.084-0.216,0.084
		c-0.107,0-0.192-0.035-0.256-0.104c-0.064-0.069-0.097-0.144-0.097-0.224c0.006-0.187,0.01-0.379,0.013-0.576
		c0.002-0.197,0.004-0.402,0.004-0.616c0-0.149-0.002-0.321-0.004-0.516C29.121,9.225,29.119,9.044,29.119,8.878z"/>
</g>
</svg>
