<?xml version="1.0" encoding="utf-8"?>
<!-- Generator: Adobe Illustrator 21.1.0, SVG Export Plug-In . SVG Version: 6.00 Build 0)  -->
<svg version="1.1" id="레이어_1" xmlns="http://www.w3.org/2000/svg" xmlns:xlink="http://www.w3.org/1999/xlink" x="0px"
	 y="0px" viewBox="0 0 36.417 16" style="enable-background:new 0 0 36.417 16;" xml:space="preserve">
<style type="text/css">
	.st0{fill:#FFFFFF;}
</style>
<g>
	<path class="st0" d="M3.761,10.606c0-0.063,0-0.162,0-0.296c0-0.133-0.001-0.273-0.004-0.42C3.754,9.744,3.753,9.603,3.753,9.467
		s0-0.238,0-0.308c-0.005-0.358-0.008-0.71-0.008-1.057s-0.001-0.693-0.004-1.04c-0.002-0.347-0.006-0.7-0.012-1.06
		S3.718,5.273,3.713,4.895C3.707,4.761,3.737,4.672,3.801,4.626s0.166-0.065,0.304-0.06c0.357,0.011,0.687,0.049,0.988,0.116
		c0.301,0.066,0.562,0.168,0.78,0.304c0.219,0.136,0.391,0.307,0.516,0.512c0.125,0.206,0.19,0.447,0.196,0.724
		c0.011,0.299-0.056,0.568-0.2,0.808c-0.144,0.24-0.333,0.416-0.568,0.528c0.288,0.139,0.509,0.344,0.664,0.616
		s0.227,0.592,0.216,0.96C6.691,9.423,6.621,9.679,6.485,9.902c-0.136,0.225-0.317,0.412-0.544,0.564s-0.492,0.266-0.796,0.34
		c-0.304,0.075-0.629,0.104-0.976,0.088c-0.133-0.005-0.235-0.02-0.304-0.044C3.795,10.827,3.761,10.745,3.761,10.606z M5.849,6.23
		c0-0.16-0.036-0.3-0.108-0.42c-0.072-0.12-0.17-0.22-0.296-0.3C5.319,5.431,5.17,5.368,4.997,5.323
		c-0.173-0.045-0.364-0.079-0.572-0.1c0,0.336,0.001,0.675,0.004,1.016c0.003,0.342,0.007,0.68,0.012,1.016h0.376
		c0.149,0,0.288-0.028,0.416-0.084C5.361,7.115,5.47,7.04,5.561,6.946c0.09-0.093,0.161-0.201,0.212-0.324S5.849,6.369,5.849,6.23z
		 M4.449,7.878C4.454,8.15,4.458,8.415,4.461,8.67c0.002,0.256,0.004,0.518,0.004,0.785v0.823h0.224
		c0.165,0,0.324-0.024,0.476-0.075s0.288-0.127,0.408-0.229c0.12-0.102,0.216-0.223,0.288-0.364C5.933,9.47,5.972,9.306,5.977,9.119
		c0.005-0.145-0.011-0.29-0.048-0.437c-0.037-0.147-0.1-0.28-0.188-0.4c-0.088-0.12-0.205-0.217-0.352-0.292
		c-0.147-0.075-0.327-0.112-0.54-0.112H4.449z"/>
	<path class="st0" d="M10.457,8.862c0.005,0.272-0.016,0.536-0.064,0.792c-0.048,0.257-0.128,0.484-0.24,0.685
		s-0.259,0.361-0.44,0.484c-0.182,0.122-0.405,0.188-0.672,0.199c-0.31,0.011-0.565-0.051-0.768-0.184
		c-0.203-0.134-0.361-0.307-0.476-0.521c-0.115-0.213-0.193-0.447-0.236-0.703C7.518,9.358,7.499,9.116,7.505,8.887
		C7.51,8.652,7.534,8.417,7.576,8.183c0.043-0.235,0.119-0.447,0.228-0.636c0.109-0.189,0.259-0.344,0.448-0.464
		c0.189-0.12,0.433-0.185,0.732-0.196c0.283-0.005,0.517,0.046,0.704,0.156c0.187,0.109,0.336,0.259,0.448,0.448
		c0.112,0.189,0.192,0.404,0.24,0.644C10.425,8.375,10.451,8.617,10.457,8.862z M8.185,8.887C8.18,9.025,8.186,9.185,8.205,9.362
		c0.019,0.18,0.057,0.348,0.116,0.505s0.143,0.289,0.252,0.396s0.255,0.154,0.436,0.145c0.149-0.006,0.272-0.054,0.368-0.145
		c0.096-0.091,0.172-0.207,0.228-0.348C9.66,9.773,9.698,9.61,9.717,9.427s0.025-0.372,0.02-0.564
		C9.731,8.676,9.714,8.499,9.685,8.331c-0.03-0.168-0.074-0.313-0.132-0.436S9.418,7.676,9.325,7.606S9.116,7.505,8.977,7.511
		C8.827,7.521,8.703,7.565,8.605,7.643s-0.179,0.18-0.24,0.308C8.304,8.079,8.259,8.223,8.233,8.382
		C8.206,8.542,8.19,8.71,8.185,8.887z"/>
	<path class="st0" d="M14.137,8.862c0.005,0.272-0.016,0.536-0.064,0.792c-0.048,0.257-0.128,0.484-0.24,0.685
		s-0.259,0.361-0.44,0.484c-0.182,0.122-0.405,0.188-0.672,0.199c-0.31,0.011-0.565-0.051-0.768-0.184
		c-0.203-0.134-0.361-0.307-0.476-0.521c-0.115-0.213-0.193-0.447-0.236-0.703c-0.043-0.257-0.062-0.499-0.056-0.729
		c0.005-0.235,0.029-0.469,0.072-0.704c0.043-0.235,0.119-0.447,0.228-0.636c0.109-0.189,0.259-0.344,0.448-0.464
		c0.189-0.12,0.433-0.185,0.732-0.196c0.283-0.005,0.517,0.046,0.704,0.156c0.187,0.109,0.336,0.259,0.448,0.448
		c0.112,0.189,0.192,0.404,0.24,0.644C14.104,8.375,14.131,8.617,14.137,8.862z M11.865,8.887c-0.005,0.139,0.001,0.298,0.02,0.476
		C11.903,9.542,11.942,9.71,12,9.867s0.143,0.289,0.252,0.396s0.255,0.154,0.436,0.145c0.149-0.006,0.272-0.054,0.368-0.145
		c0.096-0.091,0.172-0.207,0.228-0.348c0.056-0.142,0.093-0.305,0.112-0.488s0.025-0.372,0.02-0.564
		c-0.005-0.187-0.022-0.364-0.052-0.532c-0.03-0.168-0.074-0.313-0.132-0.436s-0.135-0.219-0.228-0.288s-0.209-0.101-0.348-0.096
		c-0.149,0.011-0.273,0.055-0.372,0.132s-0.179,0.18-0.24,0.308c-0.061,0.128-0.105,0.272-0.132,0.432
		C11.886,8.542,11.869,8.71,11.865,8.887z"/>
	<path class="st0" d="M17.6,7.303c-0.155,0.187-0.321,0.365-0.5,0.536c-0.179,0.171-0.348,0.333-0.508,0.488
		c-0.091,0.085-0.171,0.157-0.24,0.216s-0.136,0.12-0.2,0.184c0.144,0.171,0.296,0.336,0.456,0.496
		c0.16,0.16,0.312,0.313,0.456,0.456c0.133,0.128,0.264,0.26,0.392,0.396c0.128,0.136,0.243,0.263,0.344,0.38
		c0.08,0.106,0.109,0.205,0.088,0.296s-0.069,0.157-0.144,0.2c-0.059,0.037-0.129,0.052-0.212,0.044
		c-0.083-0.009-0.161-0.05-0.236-0.124c-0.118-0.139-0.239-0.273-0.364-0.404s-0.254-0.263-0.388-0.396
		c-0.075-0.068-0.14-0.132-0.196-0.188c-0.056-0.056-0.112-0.11-0.168-0.164s-0.113-0.112-0.172-0.176
		c-0.059-0.064-0.128-0.142-0.208-0.232c0.005,0.208,0.008,0.44,0.008,0.696s0,0.493,0,0.712c0,0.106-0.04,0.188-0.12,0.244
		c-0.08,0.056-0.163,0.084-0.248,0.084c-0.085,0-0.16-0.028-0.224-0.084s-0.099-0.138-0.104-0.244
		c-0.005-0.245-0.009-0.508-0.012-0.788c-0.002-0.28-0.007-0.563-0.012-0.848c-0.005-0.286-0.009-0.563-0.012-0.833
		c-0.002-0.269-0.004-0.519-0.004-0.748c-0.005-0.533-0.011-1.037-0.016-1.512s-0.013-0.859-0.024-1.152
		c0.005-0.106,0.045-0.188,0.12-0.244c0.075-0.056,0.157-0.084,0.248-0.084c0.085,0,0.167,0.028,0.244,0.084
		c0.078,0.056,0.116,0.137,0.116,0.244c0,0.288,0,0.551,0,0.788s0,0.48,0,0.728s0.001,0.518,0.004,0.808
		c0.003,0.291,0.004,0.633,0.004,1.028c0.059-0.053,0.116-0.106,0.172-0.16c0.056-0.053,0.11-0.106,0.164-0.16
		c0.149-0.139,0.304-0.281,0.464-0.428c0.16-0.146,0.317-0.318,0.472-0.516c0.053-0.074,0.125-0.117,0.216-0.128
		c0.09-0.01,0.176,0.005,0.256,0.048c0.075,0.042,0.126,0.106,0.156,0.192C17.698,7.124,17.675,7.212,17.6,7.303z"/>
	<path class="st0" d="M21.976,7.999c-0.011-0.133-0.045-0.236-0.104-0.308c-0.059-0.072-0.134-0.105-0.225-0.1
		c-0.139,0.005-0.264,0.049-0.376,0.132c-0.111,0.083-0.216,0.175-0.312,0.276c0,0.048,0.001,0.1,0.004,0.156
		c0.003,0.056,0.004,0.131,0.004,0.224s0,0.213,0,0.36c0,0.147,0,0.332,0,0.557c0,0.208,0.001,0.438,0.004,0.688
		c0.003,0.251,0.004,0.485,0.004,0.704c0,0.106-0.038,0.188-0.115,0.244c-0.078,0.056-0.162,0.084-0.253,0.084
		c-0.085,0-0.161-0.026-0.228-0.08c-0.066-0.053-0.105-0.133-0.116-0.24c0.011-0.181,0.018-0.389,0.021-0.624
		c0.002-0.234,0.004-0.455,0.004-0.663c0-0.235-0.002-0.47-0.004-0.705c-0.003-0.235-0.01-0.459-0.021-0.672
		c-0.011-0.133-0.055-0.236-0.132-0.308C20.055,7.65,19.971,7.62,19.88,7.63c-0.144,0.011-0.271,0.054-0.38,0.128
		c-0.109,0.075-0.209,0.174-0.3,0.296c0,0.416-0.002,0.853-0.004,1.313c-0.003,0.458-0.004,0.898-0.004,1.319
		c0,0.106-0.039,0.188-0.116,0.244c-0.078,0.056-0.159,0.084-0.244,0.084c-0.075,0-0.149-0.026-0.225-0.08
		c-0.074-0.053-0.111-0.133-0.111-0.24V7.23c0.021-0.101,0.063-0.176,0.128-0.224c0.063-0.048,0.133-0.072,0.208-0.072
		c0.074,0,0.153,0.019,0.236,0.056c0.082,0.037,0.124,0.125,0.124,0.264c0.106-0.085,0.224-0.156,0.352-0.212
		s0.248-0.086,0.36-0.092c0.187,0,0.352,0.032,0.496,0.096c0.144,0.064,0.269,0.171,0.376,0.32c0.117-0.123,0.249-0.223,0.396-0.3
		c0.146-0.077,0.311-0.119,0.492-0.124c0.176,0,0.326,0.028,0.452,0.084c0.125,0.056,0.23,0.132,0.315,0.228
		c0.086,0.096,0.149,0.206,0.192,0.328s0.066,0.248,0.072,0.376c0.005,0.123,0.009,0.251,0.012,0.384
		c0.003,0.134,0.004,0.27,0.004,0.408s-0.001,0.28-0.004,0.424c-0.003,0.144-0.004,0.285-0.004,0.424
		c0,0.182-0.002,0.364-0.004,0.548c-0.003,0.185-0.002,0.361,0.004,0.532c0.005,0.117-0.028,0.203-0.101,0.256
		c-0.071,0.054-0.153,0.08-0.243,0.08c-0.091,0-0.174-0.022-0.248-0.068c-0.075-0.045-0.115-0.118-0.12-0.22V9.615
		c0-0.112,0.001-0.226,0.004-0.341C21.998,9.16,22,9.047,22,8.935c0-0.144-0.002-0.291-0.004-0.44
		C21.993,8.345,21.987,8.18,21.976,7.999z"/>
	<path class="st0" d="M25.056,7.495c-0.139,0-0.284,0.035-0.436,0.104c-0.152,0.069-0.287,0.149-0.404,0.24
		c-0.069,0.059-0.146,0.098-0.231,0.116c-0.086,0.019-0.163-0.009-0.232-0.084c-0.054-0.059-0.084-0.128-0.092-0.208
		s0.025-0.168,0.1-0.264c0.08-0.101,0.209-0.199,0.388-0.292s0.381-0.167,0.604-0.22c0.059-0.011,0.121-0.021,0.188-0.032
		c0.067-0.011,0.133-0.016,0.196-0.016c0.145,0,0.285,0.019,0.424,0.056c0.139,0.038,0.266,0.095,0.38,0.172
		c0.115,0.078,0.208,0.176,0.28,0.296c0.072,0.12,0.11,0.266,0.116,0.436c0.011,0.171,0.019,0.357,0.024,0.56
		c0.005,0.203,0.01,0.411,0.016,0.624c0.005,0.267,0.008,0.55,0.008,0.849s0.008,0.576,0.024,0.832
		c0.005,0.106-0.028,0.188-0.101,0.248c-0.071,0.059-0.15,0.088-0.235,0.088c-0.069,0-0.134-0.025-0.192-0.076
		s-0.096-0.116-0.112-0.196c-0.106,0.075-0.234,0.134-0.384,0.176c-0.149,0.043-0.282,0.069-0.399,0.08
		c-0.251,0.017-0.469-0.005-0.652-0.063c-0.185-0.059-0.335-0.145-0.452-0.256c-0.117-0.112-0.203-0.248-0.256-0.408
		c-0.054-0.16-0.075-0.336-0.064-0.528c0.017-0.336,0.124-0.611,0.324-0.828c0.2-0.216,0.479-0.361,0.836-0.436
		c0.106-0.026,0.252-0.053,0.437-0.08c0.184-0.026,0.361-0.04,0.531-0.04c-0.005-0.074-0.008-0.149-0.008-0.224
		s-0.003-0.128-0.008-0.16c-0.011-0.075-0.026-0.141-0.048-0.2C25.603,7.7,25.57,7.65,25.524,7.61
		c-0.045-0.04-0.104-0.069-0.18-0.088C25.27,7.504,25.173,7.495,25.056,7.495z M24.264,9.774c0,0.214,0.061,0.374,0.181,0.48
		c0.119,0.106,0.278,0.154,0.476,0.144c0.106-0.005,0.209-0.023,0.308-0.056s0.186-0.073,0.261-0.124
		c0.074-0.051,0.133-0.108,0.176-0.172c0.042-0.064,0.063-0.128,0.063-0.192c-0.005-0.149-0.009-0.296-0.012-0.439
		c-0.003-0.145-0.007-0.291-0.012-0.44c-0.112-0.005-0.245,0.001-0.4,0.02c-0.154,0.019-0.291,0.042-0.408,0.068
		c-0.208,0.043-0.365,0.132-0.472,0.269C24.318,9.467,24.264,9.615,24.264,9.774z"/>
	<path class="st0" d="M29.489,7.535c-0.268,0.037-0.496,0.11-0.688,0.22s-0.376,0.292-0.552,0.548
		c-0.011,0.17-0.017,0.341-0.017,0.512c0,0.171,0,0.339,0,0.504c0,0.235,0.002,0.477,0.005,0.725
		c0.002,0.248,0.006,0.465,0.012,0.651c-0.006,0.091-0.044,0.166-0.116,0.225s-0.15,0.088-0.236,0.088
		c-0.085,0-0.161-0.026-0.228-0.08s-0.103-0.125-0.108-0.216c-0.011-0.395-0.019-0.81-0.023-1.244
		c-0.006-0.435-0.008-0.833-0.008-1.196c0-0.187,0-0.371,0-0.552c0-0.182,0.002-0.36,0.008-0.536
		c0.005-0.107,0.044-0.187,0.116-0.24c0.071-0.053,0.152-0.08,0.243-0.08c0.075,0,0.147,0.024,0.217,0.072s0.106,0.123,0.111,0.224
		c0,0.037,0,0.063,0,0.076c0,0.014,0,0.027,0,0.04c0,0.014,0.002,0.027,0.004,0.04c0.003,0.014,0.004,0.039,0.004,0.076
		c0.188-0.155,0.374-0.265,0.561-0.332s0.39-0.113,0.608-0.14c0.111-0.011,0.201,0.016,0.268,0.08s0.1,0.139,0.1,0.224
		c0,0.069-0.022,0.136-0.067,0.2C29.655,7.486,29.584,7.524,29.489,7.535z"/>
	<path class="st0" d="M32.896,7.303c-0.154,0.187-0.321,0.365-0.5,0.536c-0.179,0.171-0.348,0.333-0.508,0.488
		c-0.091,0.085-0.171,0.157-0.24,0.216s-0.136,0.12-0.199,0.184c0.144,0.171,0.296,0.336,0.456,0.496
		c0.159,0.16,0.312,0.313,0.456,0.456c0.133,0.128,0.264,0.26,0.391,0.396c0.129,0.136,0.244,0.263,0.344,0.38
		c0.08,0.106,0.109,0.205,0.09,0.296c-0.021,0.091-0.07,0.157-0.145,0.2c-0.059,0.037-0.129,0.052-0.213,0.044
		c-0.082-0.009-0.16-0.05-0.235-0.124c-0.118-0.139-0.238-0.273-0.364-0.404c-0.125-0.131-0.254-0.263-0.388-0.396
		c-0.074-0.068-0.14-0.132-0.196-0.188c-0.056-0.056-0.111-0.11-0.168-0.164c-0.056-0.054-0.113-0.112-0.172-0.176
		c-0.059-0.064-0.128-0.142-0.208-0.232c0.006,0.208,0.008,0.44,0.008,0.696s0,0.493,0,0.712c0,0.106-0.04,0.188-0.119,0.244
		c-0.08,0.056-0.163,0.084-0.248,0.084c-0.086,0-0.16-0.028-0.225-0.084c-0.063-0.056-0.099-0.138-0.104-0.244
		c-0.006-0.245-0.01-0.508-0.013-0.788c-0.002-0.28-0.007-0.563-0.012-0.848c-0.005-0.286-0.009-0.563-0.012-0.833
		c-0.003-0.269-0.004-0.519-0.004-0.748c-0.006-0.533-0.011-1.037-0.017-1.512c-0.005-0.475-0.013-0.859-0.023-1.152
		c0.005-0.106,0.045-0.188,0.12-0.244c0.074-0.056,0.157-0.084,0.248-0.084c0.085,0,0.166,0.028,0.243,0.084
		c0.078,0.056,0.116,0.137,0.116,0.244c0,0.288,0,0.551,0,0.788s0,0.48,0,0.728s0.002,0.518,0.004,0.808
		c0.003,0.291,0.004,0.633,0.004,1.028c0.059-0.053,0.116-0.106,0.173-0.16c0.056-0.053,0.11-0.106,0.163-0.16
		c0.149-0.139,0.305-0.281,0.465-0.428c0.159-0.146,0.316-0.318,0.472-0.516c0.053-0.074,0.125-0.117,0.216-0.128
		c0.09-0.01,0.176,0.005,0.256,0.048c0.074,0.042,0.127,0.106,0.156,0.192S32.97,7.212,32.896,7.303z"/>
</g>
</svg>
