<?xml version="1.0" encoding="utf-8"?>
<!-- Generator: Adobe Illustrator 21.1.0, SVG Export Plug-In . SVG Version: 6.00 Build 0)  -->
<svg version="1.1" id="레이어_1" xmlns="http://www.w3.org/2000/svg" xmlns:xlink="http://www.w3.org/1999/xlink" x="0px"
	 y="0px" viewBox="0 0 36.417 16" style="enable-background:new 0 0 36.417 16;" xml:space="preserve">
<style type="text/css">
	.st0{fill:#FFFFFF;}
</style>
<g>
	<path class="st0" d="M13.033,4.595c0.096-0.024,0.208-0.034,0.336-0.028c0.443,0.021,0.834,0.098,1.176,0.228
		c0.341,0.131,0.628,0.323,0.86,0.576s0.407,0.571,0.524,0.952c0.117,0.381,0.173,0.831,0.168,1.348
		c-0.011,1.035-0.233,1.826-0.668,2.373s-1.058,0.825-1.868,0.836c-0.181,0.005-0.32-0.017-0.416-0.064
		c-0.096-0.048-0.152-0.168-0.168-0.359c-0.011-0.219-0.019-0.492-0.024-0.82s-0.011-0.649-0.016-0.964c0-0.154,0-0.307,0-0.456
		c0-0.149-0.002-0.301-0.008-0.456l-0.024-1.152c-0.005-0.25-0.012-0.497-0.02-0.74c-0.008-0.243-0.012-0.492-0.012-0.748V4.862
		C12.883,4.708,12.936,4.619,13.033,4.595z M13.633,7.73c0.005,0.41,0.011,0.827,0.016,1.25c0.005,0.424,0.013,0.84,0.024,1.25
		c0.026,0.006,0.049,0.008,0.068,0.008s0.039,0,0.06,0c0.234,0,0.449-0.07,0.644-0.211c0.194-0.142,0.361-0.332,0.5-0.571
		s0.247-0.517,0.324-0.831c0.077-0.314,0.116-0.644,0.116-0.99s-0.042-0.668-0.124-0.966c-0.083-0.298-0.202-0.557-0.356-0.775
		C14.75,5.675,14.56,5.507,14.337,5.39c-0.224-0.117-0.475-0.17-0.752-0.16c0,0.277,0.003,0.551,0.008,0.823
		s0.013,0.546,0.024,0.823c0.005,0.138,0.008,0.279,0.008,0.423C13.624,7.443,13.627,7.587,13.633,7.73z"/>
	<path class="st0" d="M17.04,10.575c0.011-0.604,0.018-1.219,0.02-1.849c0.003-0.629,0.004-1.219,0.004-1.768
		c0-0.4-0.001-0.771-0.004-1.112c-0.002-0.341-0.006-0.653-0.012-0.936v0.016c-0.011-0.064-0.005-0.123,0.016-0.176
		c0.016-0.042,0.049-0.084,0.1-0.124s0.129-0.065,0.236-0.076c0.213,0,0.46,0.008,0.74,0.024c0.28,0.016,0.553,0.075,0.82,0.176
		c0.341,0.133,0.612,0.355,0.813,0.664c0.199,0.31,0.308,0.675,0.323,1.096c0.017,0.347-0.033,0.657-0.147,0.932
		c-0.115,0.275-0.276,0.509-0.484,0.704s-0.456,0.347-0.744,0.456s-0.597,0.172-0.927,0.188v1.745
		c0.021,0.122-0.008,0.224-0.088,0.304s-0.173,0.12-0.28,0.12c-0.053,0-0.108-0.01-0.164-0.028s-0.105-0.055-0.148-0.107
		C17.065,10.759,17.04,10.676,17.04,10.575z M17.793,8.119c0.224-0.016,0.433-0.064,0.627-0.144s0.362-0.188,0.504-0.324
		c0.142-0.136,0.251-0.296,0.328-0.48s0.113-0.385,0.108-0.604c-0.011-0.309-0.08-0.564-0.208-0.764
		c-0.128-0.2-0.299-0.346-0.513-0.436c-0.048-0.021-0.107-0.04-0.18-0.056s-0.146-0.029-0.224-0.04
		c-0.078-0.011-0.155-0.02-0.232-0.028c-0.078-0.008-0.148-0.015-0.212-0.02V8.119z"/>
	<path class="st0" d="M23.728,5.511c0.021,0.123-0.012,0.224-0.1,0.304s-0.183,0.12-0.284,0.12c-0.075,0-0.143-0.02-0.204-0.06
		s-0.1-0.105-0.116-0.196c-0.032-0.171-0.103-0.301-0.212-0.392s-0.249-0.139-0.42-0.144c-0.283-0.005-0.485,0.06-0.608,0.196
		C21.661,5.475,21.6,5.63,21.6,5.807c0,0.203,0.076,0.413,0.228,0.632c0.152,0.219,0.389,0.48,0.708,0.784
		c0.262,0.25,0.48,0.475,0.656,0.672s0.317,0.384,0.424,0.56c0.107,0.176,0.182,0.348,0.225,0.516
		c0.042,0.168,0.063,0.348,0.063,0.54c0,0.251-0.045,0.47-0.136,0.656s-0.212,0.341-0.364,0.464
		c-0.151,0.122-0.326,0.216-0.523,0.28c-0.197,0.063-0.408,0.096-0.632,0.096c-0.219,0-0.425-0.035-0.616-0.104
		c-0.192-0.069-0.36-0.165-0.504-0.287c-0.145-0.123-0.256-0.269-0.336-0.437s-0.12-0.348-0.12-0.54
		c-0.006-0.112,0.03-0.2,0.107-0.264c0.077-0.064,0.161-0.097,0.252-0.097s0.173,0.025,0.244,0.076
		c0.072,0.051,0.113,0.13,0.124,0.236c0.011,0.24,0.092,0.424,0.244,0.552s0.354,0.192,0.604,0.192c0.293,0,0.519-0.075,0.676-0.225
		c0.157-0.148,0.235-0.354,0.235-0.615c0-0.16-0.023-0.309-0.071-0.444c-0.048-0.136-0.12-0.272-0.216-0.408
		c-0.097-0.136-0.215-0.276-0.356-0.42s-0.306-0.31-0.492-0.496c-0.191-0.192-0.365-0.371-0.52-0.536
		c-0.155-0.165-0.284-0.325-0.389-0.48c-0.104-0.155-0.184-0.307-0.239-0.456c-0.057-0.149-0.084-0.301-0.084-0.456
		c0-0.165,0.027-0.328,0.084-0.488c0.056-0.16,0.146-0.303,0.271-0.428c0.125-0.125,0.285-0.227,0.48-0.304
		c0.194-0.077,0.433-0.116,0.716-0.116c0.352,0,0.652,0.082,0.899,0.244C23.492,4.869,23.654,5.137,23.728,5.511z"/>
</g>
</svg>
