<?xml version="1.0" encoding="utf-8"?>
<!-- Generator: Adobe Illustrator 21.1.0, SVG Export Plug-In . SVG Version: 6.00 Build 0)  -->
<svg version="1.1" id="레이어_1" xmlns="http://www.w3.org/2000/svg" xmlns:xlink="http://www.w3.org/1999/xlink" x="0px"
	 y="0px" viewBox="0 0 36.417 16" style="enable-background:new 0 0 36.417 16;" xml:space="preserve">
<style type="text/css">
	.st0{fill:#FFFFFF;}
</style>
<g>
	<path class="st0" d="M3.084,8.855c0,0.042,0.007,0.069,0.02,0.08s0.042,0.016,0.084,0.016c0.25-0.005,0.485-0.015,0.704-0.028
		c0.219-0.013,0.458-0.044,0.72-0.092c0.138-0.027,0.242-0.012,0.312,0.044c0.069,0.056,0.106,0.13,0.112,0.222
		c0.005,0.064-0.008,0.128-0.04,0.19S4.903,9.394,4.812,9.421C4.706,9.453,4.57,9.48,4.405,9.502
		C4.239,9.523,4.064,9.541,3.88,9.555C3.697,9.567,3.518,9.577,3.345,9.583C3.171,9.588,3.023,9.591,2.9,9.591
		C2.783,9.586,2.688,9.566,2.617,9.535C2.544,9.503,2.49,9.463,2.452,9.415C2.415,9.367,2.391,9.313,2.38,9.251
		s-0.016-0.13-0.016-0.204c0.005-0.742,0.008-1.362,0.008-1.86s0-0.903,0-1.212c0-0.31,0.001-0.536,0.004-0.68
		C2.379,5.15,2.38,5.065,2.38,5.039c0.005-0.106,0.04-0.189,0.104-0.248s0.16-0.088,0.288-0.088
		c0.144,0.005,0.276,0.009,0.396,0.012c0.12,0.003,0.25,0.004,0.388,0.004c0.314,0,0.608-0.008,0.88-0.024
		c0.123-0.01,0.216,0.019,0.28,0.088c0.064,0.069,0.096,0.144,0.096,0.224c0,0.075-0.025,0.142-0.076,0.2
		C4.686,5.265,4.615,5.3,4.524,5.311C4.348,5.327,4.183,5.337,4.029,5.342c-0.155,0.005-0.31,0.008-0.464,0.008L3.093,5.342
		C3.087,5.476,3.083,5.667,3.08,5.915C3.077,6.163,3.076,6.438,3.076,6.743c0.17,0,0.345,0,0.524,0s0.361-0.005,0.548-0.016
		c0.107-0.005,0.181,0.027,0.224,0.096c0.042,0.069,0.064,0.141,0.064,0.216c0,0.069-0.017,0.136-0.052,0.2
		C4.349,7.303,4.287,7.34,4.197,7.351C4.121,7.361,4.056,7.368,4,7.371C3.944,7.373,3.879,7.377,3.805,7.382
		C3.73,7.388,3.637,7.391,3.524,7.391c-0.112,0-0.261,0-0.448,0c0,0.287,0,0.561,0,0.824S3.079,8.69,3.084,8.855z M5.613,6.791
		c0-0.128,0-0.241,0-0.34s0-0.197,0-0.296c0-0.099,0-0.204,0-0.316c0-0.112-0.003-0.248-0.008-0.408
		c0-0.053-0.001-0.119-0.004-0.196C5.597,5.157,5.595,5.081,5.593,5.006C5.59,4.932,5.588,4.861,5.588,4.794
		c0-0.066,0-0.121,0-0.164c0.016-0.213,0.131-0.32,0.344-0.32c0.101,0,0.187,0.032,0.256,0.096c0.069,0.064,0.104,0.149,0.104,0.256
		C6.298,4.993,6.301,5.4,6.301,5.882c0,0.483,0,1.001,0,1.556c0,0.299,0,0.609,0,0.932S6.298,9.012,6.292,9.327
		c-0.005,0.314-0.011,0.621-0.016,0.92c-0.005,0.298-0.011,0.576-0.016,0.832c-0.011,0.106-0.052,0.183-0.124,0.228
		c-0.072,0.045-0.151,0.068-0.236,0.068c-0.085,0-0.16-0.029-0.224-0.088c-0.064-0.06-0.099-0.131-0.104-0.217
		c0.021-0.607,0.035-1.212,0.04-1.812c0.005-0.6,0.008-1.207,0.008-1.82C5.498,7.444,5.38,7.445,5.268,7.442
		C5.157,7.44,5.071,7.438,5.013,7.438c-0.096,0-0.182-0.025-0.256-0.076c-0.075-0.05-0.112-0.129-0.112-0.236
		c0-0.101,0.032-0.181,0.096-0.24s0.144-0.088,0.24-0.088L5.613,6.791z M6.892,10.807c0-0.416,0-0.858,0-1.328
		c0-0.469-0.003-0.92-0.008-1.352C6.879,7.694,6.876,7.277,6.876,6.875s0-0.769,0-1.1c0-0.277,0-0.521,0-0.732
		c0-0.21,0.005-0.377,0.016-0.5C6.903,4.436,6.94,4.353,7.004,4.294s0.144-0.088,0.24-0.088c0.096,0,0.176,0.025,0.24,0.076
		s0.099,0.124,0.104,0.22v0.288c0,0.043-0.001,0.084-0.004,0.124C7.582,4.955,7.58,4.996,7.58,5.039
		c0,0.187-0.001,0.385-0.004,0.596C7.574,5.845,7.573,6.068,7.573,6.303c0,0.224-0.001,0.453-0.004,0.688
		C7.566,7.225,7.564,7.465,7.564,7.71c0,0.491,0.003,1.005,0.008,1.544c0.005,0.539,0.013,1.048,0.024,1.528v0.096
		c0,0.059,0,0.124,0,0.196c0,0.071-0.003,0.126-0.008,0.163c-0.016,0.102-0.056,0.17-0.12,0.204
		c-0.064,0.035-0.139,0.053-0.224,0.053c-0.096,0-0.179-0.034-0.248-0.101s-0.104-0.143-0.104-0.228V10.807z"/>
	<path class="st0" d="M10.06,4.918c0.331-0.005,0.6,0.049,0.808,0.164s0.372,0.27,0.492,0.464c0.12,0.195,0.201,0.423,0.244,0.684
		c0.042,0.261,0.064,0.536,0.064,0.824c0,0.288-0.021,0.571-0.064,0.848c-0.043,0.277-0.122,0.525-0.236,0.744
		c-0.115,0.219-0.276,0.396-0.484,0.528c-0.208,0.134-0.475,0.2-0.8,0.2C9.738,9.375,9.463,9.3,9.26,9.15
		C9.057,9.002,8.902,8.812,8.792,8.583s-0.18-0.48-0.212-0.752C8.548,7.559,8.533,7.3,8.533,7.055c0-0.251,0.022-0.503,0.068-0.756
		c0.045-0.253,0.126-0.481,0.244-0.684c0.118-0.203,0.275-0.368,0.472-0.496S9.762,4.924,10.06,4.918z M10.06,5.542
		c-0.176,0.016-0.317,0.076-0.424,0.18c-0.107,0.104-0.188,0.23-0.244,0.38c-0.056,0.149-0.093,0.31-0.112,0.48
		C9.262,6.753,9.252,6.911,9.252,7.055c0,0.17,0.007,0.356,0.02,0.556c0.013,0.2,0.048,0.384,0.104,0.552s0.139,0.308,0.248,0.42
		s0.263,0.168,0.46,0.168c0.208,0,0.369-0.063,0.484-0.188c0.115-0.125,0.2-0.276,0.256-0.452c0.056-0.176,0.09-0.361,0.104-0.556
		c0.013-0.195,0.02-0.361,0.02-0.5c0-0.528-0.068-0.919-0.204-1.172C10.608,5.629,10.38,5.516,10.06,5.542z M12.772,11.127
		c0-0.272,0.001-0.522,0.004-0.752c0.003-0.229,0.005-0.445,0.008-0.648c0.002-0.202,0.005-0.396,0.008-0.58
		c0.002-0.184,0.004-0.369,0.004-0.556c0-0.144,0-0.322,0-0.536s-0.001-0.432-0.004-0.656c-0.003-0.224-0.004-0.437-0.004-0.64
		c0-0.203,0-0.365,0-0.488c0-0.378-0.003-0.715-0.008-1.008c-0.005-0.293-0.013-0.528-0.024-0.704c0-0.123,0.029-0.216,0.088-0.28
		c0.059-0.064,0.133-0.101,0.224-0.112c0.091-0.005,0.181,0.025,0.272,0.092c0.091,0.067,0.136,0.151,0.136,0.252v1.208
		c0,0.24-0.001,0.492-0.004,0.756c-0.003,0.264-0.004,0.54-0.004,0.828c-0.005,0.272-0.006,0.545-0.004,0.82
		c0.003,0.275,0.004,0.556,0.004,0.844c0,0.182-0.001,0.374-0.004,0.577c-0.002,0.202-0.004,0.403-0.004,0.604
		s0.001,0.391,0.004,0.572c0.003,0.182,0.007,0.336,0.012,0.464c0.005,0.096-0.032,0.169-0.112,0.22
		c-0.08,0.051-0.157,0.076-0.232,0.076c-0.101,0-0.187-0.029-0.256-0.088S12.772,11.244,12.772,11.127z"/>
	<path class="st0" d="M19.86,7.278c0.128-0.005,0.218,0.023,0.269,0.084c0.051,0.062,0.076,0.146,0.076,0.252
		c0,0.117-0.031,0.196-0.093,0.236c-0.061,0.04-0.132,0.065-0.212,0.076c-0.016,0.006-0.059,0.008-0.128,0.008s-0.142,0-0.216,0
		h-0.288c-0.442,0.011-0.887,0.017-1.332,0.02c-0.445,0.002-0.868,0.004-1.268,0.004c-0.283,0-0.563,0-0.84,0
		c-0.277,0-0.563-0.005-0.856-0.016c-0.054,0-0.122-0.001-0.204-0.004c-0.083-0.002-0.151-0.006-0.204-0.012
		c-0.091-0.016-0.157-0.054-0.2-0.116c-0.042-0.062-0.059-0.143-0.048-0.244c0.011-0.101,0.051-0.17,0.12-0.208
		c0.069-0.037,0.149-0.061,0.24-0.072c0.043-0.005,0.091-0.007,0.144-0.004c0.053,0.002,0.107,0.006,0.16,0.012
		c0.037,0.005,0.072,0.008,0.104,0.008s0.061,0,0.088,0c0.374,0.011,0.715,0.017,1.024,0.02c0.31,0.002,0.616,0.004,0.92,0.004
		c0.304,0,0.612-0.001,0.924-0.004c0.312-0.003,0.657-0.009,1.036-0.02c0.042,0,0.107,0,0.195,0S19.45,7.3,19.54,7.294
		C19.641,7.289,19.748,7.284,19.86,7.278z M15.508,9.19c-0.09-0.021-0.16-0.063-0.208-0.128c-0.048-0.064-0.066-0.146-0.056-0.248
		c0.016-0.117,0.07-0.196,0.164-0.236c0.093-0.04,0.204-0.055,0.332-0.044c0.075,0.011,0.182,0.016,0.32,0.016
		c0.139,0,0.253,0,0.344,0h0.856c0.224,0,0.412-0.001,0.564-0.004c0.152-0.002,0.281-0.005,0.388-0.008s0.196-0.005,0.268-0.008
		c0.072-0.002,0.138-0.006,0.196-0.012c0.128-0.005,0.233-0.001,0.316,0.012c0.082,0.014,0.145,0.038,0.188,0.072
		s0.072,0.083,0.088,0.144c0.017,0.062,0.024,0.135,0.024,0.22v0.489c0,0.096,0.001,0.191,0.004,0.288
		c0.003,0.096,0.001,0.176-0.004,0.239c-0.011,0.139-0.05,0.239-0.116,0.301c-0.066,0.061-0.19,0.097-0.372,0.107
		c-0.08,0.006-0.223,0.01-0.428,0.012c-0.206,0.003-0.42,0.005-0.644,0.005h-0.976c-0.16,0-0.292-0.002-0.396-0.005
		c-0.104-0.002-0.209-0.001-0.316,0.005v0.455c0,0.043,0.005,0.072,0.016,0.089c0.011,0.016,0.037,0.023,0.08,0.023
		c0.053,0.006,0.109,0.008,0.168,0.008c0.059,0,0.123,0,0.192,0c0.123,0,0.256,0,0.4,0s0.293-0.002,0.448-0.008
		c0.203-0.005,0.382-0.009,0.54-0.012c0.157-0.003,0.339-0.004,0.547-0.004c0.117,0,0.233-0.006,0.349-0.017
		c0.114-0.011,0.223-0.016,0.323-0.016c0.123-0.011,0.221,0.019,0.292,0.088c0.072,0.069,0.108,0.146,0.108,0.232
		c0,0.074-0.022,0.141-0.068,0.199c-0.045,0.06-0.113,0.099-0.204,0.12c-0.031,0.011-0.096,0.019-0.191,0.024
		c-0.097,0.005-0.222,0.008-0.376,0.008c-0.256,0-0.512,0.001-0.768,0.004s-0.504,0.007-0.744,0.013
		c-0.149,0.005-0.308,0.008-0.476,0.008s-0.308,0-0.42,0c-0.09,0-0.174,0-0.252,0c-0.077,0-0.143-0.003-0.196-0.008
		c-0.117-0.011-0.211-0.032-0.28-0.064c-0.07-0.031-0.123-0.074-0.16-0.127c-0.038-0.054-0.062-0.112-0.072-0.176
		s-0.016-0.133-0.016-0.207v-0.23c0-0.102,0-0.203,0-0.307s-0.003-0.211-0.008-0.323c0.005-0.148,0.045-0.251,0.12-0.307
		s0.181-0.089,0.32-0.1c0.091,0.006,0.215,0.009,0.372,0.009c0.157,0,0.331-0.002,0.52-0.005c0.189-0.002,0.387-0.005,0.592-0.008
		c0.205-0.002,0.401-0.004,0.588-0.004c0.069,0,0.143-0.001,0.22-0.004c0.078-0.003,0.149-0.005,0.216-0.008s0.127-0.006,0.18-0.008
		c0.054-0.003,0.094-0.004,0.12-0.004c0.006-0.098,0.007-0.183,0.004-0.256c-0.002-0.073-0.004-0.14-0.004-0.199
		c0-0.038-0.005-0.063-0.016-0.077s-0.037-0.021-0.08-0.021c-0.112,0.006-0.258,0.011-0.44,0.017
		c-0.181,0.005-0.381,0.009-0.6,0.012c-0.219,0.003-0.451,0.006-0.696,0.008c-0.245,0.003-0.491,0.004-0.736,0.004
		C15.791,9.23,15.641,9.218,15.508,9.19z M18.476,4.446c0-0.042,0.006-0.086,0.017-0.132c0.01-0.045,0.03-0.086,0.06-0.124
		c0.029-0.037,0.069-0.065,0.12-0.084c0.051-0.019,0.116-0.022,0.196-0.012c0.101,0.011,0.174,0.049,0.22,0.116
		c0.045,0.067,0.065,0.137,0.06,0.212c-0.011,0.352-0.012,0.684-0.004,0.996s0.004,0.617-0.012,0.916
		c-0.011,0.139-0.047,0.237-0.108,0.296c-0.062,0.059-0.198,0.091-0.412,0.096c-0.042,0-0.107,0-0.195,0s-0.186,0.001-0.292,0.004
		c-0.107,0.003-0.22,0.004-0.34,0.004c-0.12,0-0.233,0-0.34,0c-0.144,0-0.294,0-0.452,0c-0.158,0-0.307-0.001-0.448-0.004
		c-0.141-0.002-0.271-0.005-0.388-0.008c-0.117-0.003-0.208-0.007-0.272-0.012c-0.149-0.011-0.26-0.037-0.332-0.08
		c-0.072-0.042-0.108-0.141-0.108-0.296s0.003-0.316,0.008-0.484c0.005-0.168,0.005-0.354,0-0.556c0-0.053,0-0.103,0-0.148
		s0-0.1,0-0.164s0-0.141,0-0.232s0-0.205,0-0.344c-0.011-0.102,0.024-0.179,0.104-0.232c0.08-0.053,0.168-0.08,0.264-0.08
		c0.085,0,0.164,0.022,0.236,0.068c0.072,0.045,0.11,0.119,0.116,0.22v0.56h2.304V4.446z M18.46,6.11
		c0-0.053,0.001-0.099,0.004-0.136s0.004-0.075,0.004-0.112c0-0.037,0-0.079,0-0.124c0-0.045,0-0.103,0-0.172h-2.312
		c0,0.059,0,0.104,0,0.136c0,0.032,0,0.065,0,0.1s-0.001,0.073-0.004,0.116c-0.002,0.043-0.004,0.099-0.004,0.168L18.46,6.11z"/>
	<path class="st0" d="M28.123,8.006c0.102-0.01,0.188,0.007,0.257,0.052s0.104,0.129,0.104,0.252c0,0.197-0.093,0.312-0.28,0.344
		C28.166,8.665,28.105,8.67,28.02,8.67s-0.174,0-0.264,0h-0.345c-0.288,0-0.559,0.003-0.812,0.008
		c-0.254,0.005-0.511,0.011-0.772,0.016v0.104c0,0.166,0,0.352,0,0.56s-0.001,0.414-0.004,0.616
		c-0.003,0.203-0.005,0.391-0.008,0.564c-0.003,0.173-0.007,0.308-0.012,0.403c0,0.054,0,0.108,0,0.164
		c0,0.057-0.006,0.108-0.017,0.156c-0.021,0.091-0.07,0.156-0.147,0.196s-0.156,0.055-0.236,0.044
		c-0.091-0.006-0.171-0.035-0.24-0.088c-0.069-0.054-0.101-0.126-0.096-0.216c0-0.027,0.001-0.064,0.004-0.112
		s0.004-0.08,0.004-0.096c0.011-0.14,0.017-0.328,0.017-0.568s0-0.49,0-0.752V8.703H23.34c-0.075,0-0.163,0-0.265,0
		c-0.101,0-0.181-0.005-0.239-0.016c-0.097-0.011-0.164-0.051-0.204-0.12s-0.055-0.152-0.044-0.248
		c0.016-0.101,0.057-0.168,0.124-0.2c0.066-0.032,0.143-0.053,0.228-0.064c0.091-0.011,0.179-0.012,0.264-0.004
		c0.086,0.008,0.174,0.012,0.265,0.012c0.154,0.005,0.308,0.008,0.46,0.008c0.151,0,0.308,0,0.468,0
		c0.438,0,0.901-0.002,1.392-0.008c0.491-0.005,1.027-0.013,1.608-0.024c0.043,0,0.105-0.001,0.188-0.004
		c0.082-0.003,0.163-0.007,0.243-0.012C27.924,8.017,28.023,8.012,28.123,8.006z M26.7,5.382c0-0.069-0.034-0.104-0.104-0.104
		c-0.123,0-0.307,0.001-0.552,0.004c-0.246,0.002-0.506,0.005-0.78,0.008c-0.274,0.003-0.54,0.004-0.796,0.004s-0.456,0-0.601,0
		c-0.106,0.005-0.189-0.021-0.248-0.08c-0.059-0.059-0.091-0.133-0.096-0.224c-0.011-0.091,0.014-0.169,0.072-0.236
		c0.059-0.066,0.151-0.1,0.28-0.1h0.464c0.154,0,0.333,0,0.536,0c0.202,0,0.417-0.001,0.644-0.004c0.227-0.002,0.46-0.006,0.7-0.012
		s0.472-0.011,0.696-0.016c0.176,0,0.304,0.033,0.384,0.1c0.08,0.066,0.122,0.185,0.128,0.356c0,0.059,0.001,0.119,0.004,0.18
		c0.003,0.062,0.004,0.124,0.004,0.188c0,0.315-0.01,0.636-0.028,0.964c-0.019,0.328-0.036,0.623-0.052,0.884
		c-0.011,0.112-0.058,0.193-0.14,0.244c-0.083,0.051-0.17,0.073-0.261,0.068c-0.079-0.011-0.151-0.044-0.216-0.1
		c-0.063-0.056-0.091-0.137-0.08-0.244c0-0.011,0.003-0.042,0.009-0.092c0.005-0.05,0.008-0.084,0.008-0.1
		c0.011-0.117,0.019-0.268,0.023-0.452c0.006-0.184,0.009-0.412,0.009-0.684c0-0.091,0-0.183,0-0.276S26.705,5.473,26.7,5.382z"/>
	<path class="st0" d="M29.364,8.303c-0.037,0.026-0.077,0.048-0.119,0.064c-0.043,0.016-0.087,0.024-0.133,0.024
		c-0.045,0-0.089-0.011-0.132-0.032C28.937,8.337,28.9,8.3,28.868,8.247c-0.054-0.085-0.062-0.169-0.024-0.252
		s0.091-0.153,0.16-0.212c0.395-0.352,0.719-0.737,0.972-1.156c0.253-0.418,0.409-0.838,0.468-1.26
		c0.011-0.08,0.019-0.166,0.024-0.256c0.005-0.09,0.008-0.205,0.008-0.344c0-0.144,0.037-0.239,0.112-0.284
		c0.074-0.045,0.154-0.068,0.24-0.068c0.101,0,0.188,0.024,0.264,0.072c0.074,0.048,0.112,0.144,0.112,0.288v0.272
		c0,0.341-0.054,0.672-0.16,0.992c0.224,0.347,0.442,0.643,0.655,0.888c0.214,0.246,0.422,0.467,0.624,0.664
		c0.059,0.064,0.104,0.149,0.137,0.256c0.031,0.106,0.01,0.195-0.064,0.264c-0.144,0.128-0.325,0.104-0.544-0.072
		c-0.059-0.048-0.131-0.116-0.216-0.204s-0.179-0.188-0.28-0.3c-0.102-0.112-0.206-0.232-0.315-0.36
		c-0.109-0.128-0.215-0.256-0.316-0.384c-0.192,0.347-0.412,0.649-0.66,0.908C29.816,7.957,29.582,8.159,29.364,8.303z
		 M31.948,8.758c0.272,0,0.53,0.023,0.776,0.068c0.244,0.045,0.461,0.125,0.648,0.24c0.186,0.115,0.336,0.27,0.451,0.464
		c0.115,0.195,0.172,0.437,0.172,0.725c0,0.251-0.047,0.465-0.141,0.644c-0.092,0.179-0.229,0.327-0.406,0.444
		c-0.18,0.117-0.396,0.204-0.648,0.26c-0.254,0.057-0.537,0.087-0.853,0.092c-0.256,0-0.494-0.029-0.716-0.088
		c-0.221-0.059-0.416-0.149-0.584-0.271c-0.168-0.123-0.3-0.276-0.396-0.46c-0.097-0.185-0.145-0.396-0.145-0.637
		c0-0.239,0.055-0.451,0.164-0.636c0.109-0.184,0.251-0.339,0.424-0.464c0.174-0.125,0.369-0.22,0.588-0.284
		S31.724,8.758,31.948,8.758z M31.988,9.423c-0.144,0-0.282,0.018-0.416,0.052c-0.133,0.035-0.252,0.088-0.355,0.157
		c-0.104,0.069-0.188,0.155-0.252,0.257c-0.064,0.103-0.099,0.22-0.104,0.354c0,0.149,0.033,0.277,0.101,0.382
		c0.066,0.104,0.153,0.188,0.26,0.253s0.226,0.109,0.356,0.137c0.13,0.026,0.26,0.04,0.388,0.04c0.139,0,0.284-0.011,0.436-0.032
		c0.152-0.021,0.293-0.062,0.42-0.12c0.129-0.06,0.232-0.14,0.316-0.241c0.082-0.103,0.127-0.236,0.131-0.402
		c0.006-0.172-0.031-0.313-0.111-0.422c-0.08-0.11-0.184-0.195-0.313-0.257c-0.127-0.063-0.268-0.104-0.42-0.125
		C32.272,9.434,32.126,9.423,31.988,9.423z M33.212,4.535c0-0.112,0.039-0.196,0.119-0.252c0.08-0.056,0.166-0.084,0.256-0.084
		c0.086,0,0.164,0.024,0.236,0.072s0.115,0.123,0.133,0.224v1.832c0,0.347,0,0.697,0.004,1.052c0.002,0.355,0,0.676-0.004,0.964
		c0,0.112-0.039,0.204-0.117,0.276c-0.076,0.072-0.16,0.108-0.252,0.108c-0.09,0-0.172-0.035-0.248-0.104
		c-0.074-0.069-0.109-0.166-0.104-0.288c0.006-0.128,0.01-0.268,0.012-0.42c0.004-0.152,0.004-0.308,0.004-0.468
		c0-0.16,0-0.32,0-0.48c0-0.16,0-0.312,0-0.456h-0.559c-0.064,0-0.128,0-0.189,0c-0.061,0-0.11-0.003-0.147-0.008
		c-0.096-0.011-0.177-0.042-0.244-0.096c-0.066-0.054-0.1-0.136-0.1-0.248c0-0.107,0.033-0.189,0.1-0.248
		c0.067-0.059,0.153-0.083,0.261-0.072c0.042,0.005,0.093,0.008,0.151,0.008s0.122,0,0.192,0h0.535
		c-0.006-0.219-0.01-0.431-0.016-0.636C33.23,5.005,33.222,4.78,33.212,4.535z"/>
</g>
</svg>
