<?xml version="1.0" encoding="utf-8"?>
<!-- Generator: Adobe Illustrator 21.1.0, SVG Export Plug-In . SVG Version: 6.00 Build 0)  -->
<svg version="1.1" id="레이어_1" xmlns="http://www.w3.org/2000/svg" xmlns:xlink="http://www.w3.org/1999/xlink" x="0px"
	 y="0px" viewBox="0 0 36.417 16" style="enable-background:new 0 0 36.417 16;" xml:space="preserve">
<style type="text/css">
	.st0{fill:#FFFFFF;}
</style>
<g>
	<path class="st0" d="M2.16,10.895c-0.091,0-0.173-0.027-0.248-0.084c-0.075-0.056-0.107-0.145-0.096-0.268V8.29
		C1.806,7.832,1.795,7.374,1.785,6.916S1.763,6,1.752,5.542c0-0.043-0.001-0.123-0.004-0.24C1.746,5.185,1.742,5.067,1.737,4.95
		c0.005-0.106,0.044-0.199,0.116-0.276c0.072-0.077,0.18-0.116,0.324-0.116h1.4c0.117,0,0.239,0,0.364,0
		c0.125,0,0.228,0.002,0.308,0.008c0.096,0.005,0.177,0.029,0.244,0.071c0.066,0.042,0.1,0.124,0.1,0.245
		c0,0.074-0.012,0.132-0.036,0.174S4.502,5.13,4.465,5.151c-0.038,0.021-0.08,0.033-0.128,0.036C4.288,5.189,4.241,5.19,4.192,5.19
		h-0.56c-0.182,0-0.351,0.001-0.508,0.004C2.967,5.197,2.806,5.199,2.64,5.199c-0.069,0-0.111,0.019-0.124,0.056
		c-0.013,0.038-0.02,0.078-0.02,0.12c0,0.155,0.001,0.3,0.004,0.436c0.003,0.136,0.005,0.271,0.008,0.404
		c0.002,0.133,0.006,0.27,0.012,0.408s0.008,0.285,0.008,0.44c0.416,0,0.769,0,1.06,0c0.291,0,0.498,0.005,0.62,0.016
		c0.112,0.005,0.208,0.031,0.288,0.076c0.08,0.045,0.12,0.138,0.12,0.276c0,0.123-0.036,0.205-0.108,0.248
		C4.436,7.721,4.347,7.737,4.241,7.727C4.208,7.721,4.158,7.717,4.088,7.714c-0.069-0.002-0.149-0.005-0.24-0.008
		c-0.091-0.002-0.191-0.004-0.3-0.004c-0.109,0-0.22,0-0.332,0c-0.128,0-0.252-0.001-0.372-0.004C2.724,7.696,2.622,7.7,2.536,7.71
		c0,0.432,0.002,0.874,0.008,1.325c0.005,0.45,0.008,0.892,0.008,1.323c0,0.097-0.003,0.174-0.008,0.232s-0.029,0.114-0.072,0.168
		C2.392,10.85,2.288,10.895,2.16,10.895z"/>
	<path class="st0" d="M7.985,8.862C7.99,9.135,7.969,9.398,7.921,9.654c-0.048,0.257-0.128,0.484-0.24,0.685
		s-0.259,0.361-0.44,0.484c-0.182,0.122-0.405,0.188-0.672,0.199c-0.31,0.011-0.565-0.051-0.768-0.184
		c-0.203-0.134-0.361-0.307-0.476-0.521C5.21,10.105,5.131,9.871,5.089,9.615C5.046,9.358,5.027,9.116,5.033,8.887
		c0.005-0.235,0.029-0.469,0.072-0.704c0.043-0.235,0.119-0.447,0.228-0.636c0.109-0.189,0.259-0.344,0.448-0.464
		c0.189-0.12,0.433-0.185,0.732-0.196C6.795,6.881,7.03,6.933,7.217,7.042c0.187,0.109,0.336,0.259,0.448,0.448
		c0.112,0.189,0.192,0.404,0.24,0.644C7.952,8.375,7.979,8.617,7.985,8.862z M5.713,8.887c-0.005,0.139,0.001,0.298,0.02,0.476
		C5.751,9.542,5.79,9.71,5.848,9.867s0.143,0.289,0.252,0.396s0.255,0.154,0.436,0.145c0.149-0.006,0.272-0.054,0.368-0.145
		C7,10.172,7.076,10.056,7.133,9.915C7.188,9.773,7.226,9.61,7.244,9.427s0.025-0.372,0.02-0.564
		C7.259,8.676,7.242,8.499,7.213,8.331C7.183,8.163,7.139,8.017,7.08,7.895S6.946,7.676,6.852,7.606S6.643,7.505,6.505,7.511
		C6.355,7.521,6.231,7.565,6.133,7.643s-0.179,0.18-0.24,0.308C5.831,8.079,5.787,8.223,5.761,8.382
		C5.734,8.542,5.718,8.71,5.713,8.887z"/>
	<path class="st0" d="M10.833,7.535c-0.267,0.037-0.496,0.11-0.688,0.22C9.952,7.864,9.769,8.046,9.593,8.303
		c-0.011,0.17-0.016,0.341-0.016,0.512c0,0.171,0,0.339,0,0.504c0,0.235,0.001,0.477,0.004,0.725
		c0.002,0.248,0.006,0.465,0.012,0.651c-0.005,0.091-0.044,0.166-0.116,0.225c-0.072,0.059-0.151,0.088-0.236,0.088
		s-0.161-0.026-0.228-0.08c-0.066-0.054-0.103-0.125-0.108-0.216c-0.011-0.395-0.019-0.81-0.024-1.244S8.873,8.633,8.873,8.271
		c0-0.187,0-0.371,0-0.552c0-0.182,0.002-0.36,0.008-0.536c0.005-0.107,0.044-0.187,0.116-0.24c0.072-0.053,0.153-0.08,0.244-0.08
		c0.075,0,0.147,0.024,0.216,0.072s0.106,0.123,0.112,0.224c0,0.037,0,0.063,0,0.076c0,0.014,0,0.027,0,0.04
		c0,0.014,0.001,0.027,0.004,0.04c0.003,0.014,0.004,0.039,0.004,0.076c0.187-0.155,0.374-0.265,0.56-0.332
		c0.187-0.067,0.39-0.113,0.608-0.14c0.112-0.011,0.201,0.016,0.268,0.08c0.067,0.064,0.1,0.139,0.1,0.224
		c0,0.069-0.022,0.136-0.068,0.2S10.929,7.524,10.833,7.535z"/>
	<path class="st0" d="M15.113,7.999c-0.011-0.133-0.045-0.236-0.104-0.308c-0.059-0.072-0.133-0.105-0.224-0.1
		c-0.139,0.005-0.264,0.049-0.376,0.132c-0.112,0.083-0.216,0.175-0.312,0.276c0,0.048,0.001,0.1,0.004,0.156
		c0.002,0.056,0.004,0.131,0.004,0.224s0,0.213,0,0.36c0,0.147,0,0.332,0,0.557c0,0.208,0.001,0.438,0.004,0.688
		c0.002,0.251,0.004,0.485,0.004,0.704c0,0.106-0.039,0.188-0.116,0.244c-0.078,0.056-0.162,0.084-0.252,0.084
		c-0.085,0-0.161-0.026-0.228-0.08c-0.067-0.053-0.105-0.133-0.116-0.24c0.011-0.181,0.017-0.389,0.02-0.624
		c0.002-0.234,0.004-0.455,0.004-0.663c0-0.235-0.001-0.47-0.004-0.705c-0.003-0.235-0.009-0.459-0.02-0.672
		c-0.011-0.133-0.055-0.236-0.132-0.308C13.191,7.65,13.107,7.62,13.017,7.63c-0.144,0.011-0.271,0.054-0.38,0.128
		c-0.109,0.075-0.209,0.174-0.3,0.296c0,0.416-0.001,0.853-0.004,1.313c-0.003,0.458-0.004,0.898-0.004,1.319
		c0,0.106-0.039,0.188-0.116,0.244c-0.078,0.056-0.159,0.084-0.244,0.084c-0.075,0-0.149-0.026-0.224-0.08
		c-0.075-0.053-0.112-0.133-0.112-0.24V7.23c0.021-0.101,0.064-0.176,0.128-0.224c0.064-0.048,0.133-0.072,0.208-0.072
		s0.153,0.019,0.236,0.056c0.083,0.037,0.124,0.125,0.124,0.264c0.106-0.085,0.224-0.156,0.352-0.212
		c0.128-0.056,0.248-0.086,0.36-0.092c0.187,0,0.352,0.032,0.496,0.096c0.144,0.064,0.269,0.171,0.376,0.32
		c0.117-0.123,0.249-0.223,0.396-0.3c0.146-0.077,0.311-0.119,0.492-0.124c0.176,0,0.327,0.028,0.452,0.084
		c0.125,0.056,0.23,0.132,0.316,0.228c0.085,0.096,0.149,0.206,0.192,0.328c0.043,0.123,0.067,0.248,0.072,0.376
		c0.005,0.123,0.009,0.251,0.012,0.384c0.003,0.134,0.004,0.27,0.004,0.408s-0.001,0.28-0.004,0.424
		c-0.002,0.144-0.004,0.285-0.004,0.424c0,0.182-0.001,0.364-0.004,0.548c-0.003,0.185-0.001,0.361,0.004,0.532
		c0.005,0.117-0.028,0.203-0.1,0.256c-0.072,0.054-0.153,0.08-0.244,0.08c-0.091,0-0.173-0.022-0.248-0.068
		c-0.075-0.045-0.115-0.118-0.12-0.22V9.615c0-0.112,0.001-0.226,0.004-0.341c0.002-0.114,0.004-0.228,0.004-0.34
		c0-0.144-0.001-0.291-0.004-0.44C15.13,8.345,15.123,8.18,15.113,7.999z"/>
	<path class="st0" d="M18.192,7.495c-0.139,0-0.284,0.035-0.436,0.104s-0.287,0.149-0.404,0.24
		c-0.069,0.059-0.147,0.098-0.232,0.116c-0.085,0.019-0.163-0.009-0.232-0.084c-0.053-0.059-0.084-0.128-0.092-0.208
		s0.025-0.168,0.1-0.264c0.08-0.101,0.209-0.199,0.388-0.292s0.38-0.167,0.604-0.22c0.059-0.011,0.122-0.021,0.188-0.032
		c0.067-0.011,0.132-0.016,0.196-0.016c0.145,0,0.285,0.019,0.424,0.056c0.139,0.038,0.266,0.095,0.38,0.172
		c0.115,0.078,0.208,0.176,0.28,0.296c0.072,0.12,0.11,0.266,0.116,0.436c0.011,0.171,0.019,0.357,0.024,0.56
		c0.005,0.203,0.01,0.411,0.016,0.624c0.005,0.267,0.008,0.55,0.008,0.849s0.008,0.576,0.024,0.832
		c0.005,0.106-0.028,0.188-0.101,0.248c-0.071,0.059-0.15,0.088-0.235,0.088c-0.069,0-0.134-0.025-0.192-0.076
		s-0.096-0.116-0.112-0.196c-0.106,0.075-0.234,0.134-0.384,0.176c-0.149,0.043-0.282,0.069-0.399,0.08
		c-0.251,0.017-0.468-0.005-0.652-0.063s-0.334-0.145-0.452-0.256c-0.118-0.112-0.203-0.248-0.256-0.408s-0.075-0.336-0.064-0.528
		c0.016-0.336,0.124-0.611,0.324-0.828c0.2-0.216,0.479-0.361,0.836-0.436c0.106-0.026,0.252-0.053,0.436-0.08
		c0.184-0.026,0.361-0.04,0.531-0.04c-0.005-0.074-0.008-0.149-0.008-0.224s-0.003-0.128-0.008-0.16
		c-0.011-0.075-0.026-0.141-0.048-0.2C18.739,7.7,18.705,7.65,18.66,7.61c-0.045-0.04-0.104-0.069-0.18-0.088
		C18.406,7.504,18.309,7.495,18.192,7.495z M17.4,9.774c0,0.214,0.06,0.374,0.18,0.48c0.12,0.106,0.278,0.154,0.476,0.144
		c0.107-0.005,0.209-0.023,0.308-0.056s0.186-0.073,0.261-0.124c0.074-0.051,0.133-0.108,0.176-0.172
		c0.042-0.064,0.063-0.128,0.063-0.192c-0.005-0.149-0.009-0.296-0.012-0.439c-0.003-0.145-0.007-0.291-0.012-0.44
		c-0.112-0.005-0.245,0.001-0.4,0.02c-0.154,0.019-0.291,0.042-0.408,0.068c-0.208,0.043-0.365,0.132-0.472,0.269
		C17.453,9.467,17.4,9.615,17.4,9.774z"/>
	<path class="st0" d="M20.172,7.179c-0.056-0.062-0.084-0.129-0.084-0.204s0.029-0.146,0.088-0.212c0.059-0.067,0.146-0.1,0.265-0.1
		h0.479V5.238c0-0.096,0.039-0.172,0.116-0.228c0.077-0.056,0.156-0.084,0.236-0.084c0.079,0,0.161,0.027,0.243,0.08
		c0.083,0.054,0.124,0.133,0.124,0.24v1.4c0.128-0.005,0.251-0.007,0.368-0.004c0.117,0.002,0.251,0.004,0.4,0.004
		c0.101,0,0.175,0.036,0.22,0.108c0.045,0.072,0.068,0.14,0.068,0.204c0,0.069-0.025,0.137-0.076,0.204s-0.127,0.1-0.229,0.1
		c-0.122,0-0.243,0.001-0.363,0.004c-0.12,0.002-0.25,0.007-0.389,0.012c0,0.139-0.001,0.256-0.004,0.352
		c-0.003,0.096-0.004,0.189-0.004,0.28s0,0.187,0,0.288c0,0.101,0,0.224,0,0.368c0,0.251,0.001,0.528,0.004,0.832
		c0.003,0.305,0.01,0.584,0.021,0.84c0.005,0.118,0.059,0.174,0.16,0.169c0.079,0,0.165-0.007,0.256-0.021s0.17-0.028,0.239-0.044
		c0.155-0.037,0.265-0.024,0.328,0.04c0.064,0.063,0.097,0.146,0.097,0.248c0,0.059-0.018,0.113-0.053,0.164
		c-0.034,0.051-0.095,0.095-0.18,0.132c-0.139,0.054-0.273,0.085-0.404,0.096s-0.252,0.019-0.363,0.024
		c-0.251,0.011-0.444-0.048-0.58-0.176c-0.137-0.128-0.21-0.32-0.221-0.576c-0.005-0.128-0.009-0.266-0.012-0.412
		s-0.005-0.296-0.008-0.448c-0.003-0.151-0.004-0.3-0.004-0.444s0-0.28,0-0.408c0-0.106-0.002-0.201-0.004-0.284
		c-0.003-0.083-0.004-0.161-0.004-0.236c0-0.064,0-0.123,0-0.176s0-0.108,0-0.164c0-0.056,0.001-0.119,0.004-0.188
		c0.002-0.069,0.004-0.152,0.004-0.248h-0.488C20.312,7.276,20.228,7.24,20.172,7.179z"/>
	<path class="st0" d="M23.092,7.179c-0.056-0.062-0.084-0.129-0.084-0.204s0.029-0.146,0.088-0.212c0.059-0.067,0.146-0.1,0.265-0.1
		h0.479V5.238c0-0.096,0.039-0.172,0.116-0.228c0.077-0.056,0.156-0.084,0.236-0.084c0.079,0,0.161,0.027,0.243,0.08
		c0.083,0.054,0.124,0.133,0.124,0.24v1.4c0.128-0.005,0.251-0.007,0.368-0.004c0.117,0.002,0.251,0.004,0.4,0.004
		c0.101,0,0.175,0.036,0.22,0.108c0.045,0.072,0.068,0.14,0.068,0.204c0,0.069-0.025,0.137-0.076,0.204s-0.127,0.1-0.229,0.1
		c-0.122,0-0.243,0.001-0.363,0.004c-0.12,0.002-0.25,0.007-0.389,0.012c0,0.139-0.001,0.256-0.004,0.352
		c-0.003,0.096-0.004,0.189-0.004,0.28s0,0.187,0,0.288c0,0.101,0,0.224,0,0.368c0,0.251,0.001,0.528,0.004,0.832
		c0.003,0.305,0.01,0.584,0.021,0.84c0.005,0.118,0.059,0.174,0.16,0.169c0.079,0,0.165-0.007,0.256-0.021s0.17-0.028,0.239-0.044
		c0.155-0.037,0.265-0.024,0.328,0.04c0.064,0.063,0.097,0.146,0.097,0.248c0,0.059-0.018,0.113-0.053,0.164
		c-0.034,0.051-0.095,0.095-0.18,0.132c-0.139,0.054-0.273,0.085-0.404,0.096s-0.252,0.019-0.363,0.024
		c-0.251,0.011-0.444-0.048-0.58-0.176c-0.137-0.128-0.21-0.32-0.221-0.576c-0.005-0.128-0.009-0.266-0.012-0.412
		s-0.005-0.296-0.008-0.448c-0.003-0.151-0.004-0.3-0.004-0.444s0-0.28,0-0.408c0-0.106-0.002-0.201-0.004-0.284
		c-0.003-0.083-0.004-0.161-0.004-0.236c0-0.064,0-0.123,0-0.176s0-0.108,0-0.164c0-0.056,0.001-0.119,0.004-0.188
		c0.002-0.069,0.004-0.152,0.004-0.248h-0.488C23.232,7.276,23.148,7.24,23.092,7.179z"/>
	<path class="st0" d="M26.92,5.575c-0.192,0-0.331-0.06-0.416-0.18s-0.112-0.252-0.08-0.396c0.026-0.139,0.077-0.24,0.152-0.304
		c0.074-0.064,0.173-0.106,0.296-0.128c0.074-0.011,0.146-0.004,0.212,0.02s0.125,0.062,0.176,0.112
		c0.051,0.05,0.091,0.109,0.12,0.176c0.029,0.067,0.044,0.137,0.044,0.212c-0.005,0.123-0.047,0.235-0.124,0.336
		C27.223,5.524,27.096,5.575,26.92,5.575z M26.697,6.291c0.069-0.056,0.149-0.084,0.239-0.084c0.097,0,0.183,0.032,0.261,0.096
		c0.077,0.064,0.11,0.149,0.1,0.256c0,0.101-0.001,0.19-0.004,0.268c-0.003,0.077-0.004,0.153-0.004,0.228
		c0,0.139,0.001,0.288,0.004,0.448s0.007,0.376,0.012,0.648l0.064,2.536c0,0.117-0.037,0.204-0.112,0.26
		c-0.074,0.057-0.154,0.084-0.24,0.084c-0.085,0-0.161-0.029-0.228-0.088s-0.105-0.139-0.116-0.239
		c-0.005-0.208-0.011-0.429-0.016-0.66c-0.006-0.232-0.011-0.463-0.017-0.692c-0.005-0.229-0.011-0.449-0.016-0.66
		c-0.006-0.21-0.008-0.396-0.008-0.556c0-0.17-0.002-0.308-0.004-0.412C26.61,7.619,26.606,7.521,26.6,7.431
		c-0.005-0.091-0.008-0.18-0.008-0.268s0-0.186,0-0.292V6.55C26.592,6.433,26.627,6.347,26.697,6.291z"/>
	<path class="st0" d="M28.488,7.199c0-0.102,0.039-0.175,0.116-0.22s0.153-0.068,0.229-0.068c0.111,0,0.198,0.032,0.26,0.096
		s0.092,0.131,0.092,0.2v0.08c0.139-0.096,0.287-0.176,0.444-0.24s0.329-0.099,0.516-0.104c0.288-0.005,0.53,0.1,0.729,0.316
		c0.197,0.216,0.296,0.519,0.296,0.908v1.369c0,0.219,0,0.428,0,0.628c0,0.199-0.003,0.372-0.008,0.516
		c-0.006,0.106-0.043,0.188-0.112,0.244s-0.149,0.084-0.24,0.084c-0.085,0-0.163-0.026-0.232-0.08s-0.109-0.134-0.119-0.24
		c0-0.139,0-0.274,0-0.408c0-0.133,0.002-0.267,0.008-0.399c0-0.054,0-0.128,0-0.225c0-0.096,0.001-0.195,0.004-0.3
		c0.003-0.104,0.004-0.204,0.004-0.3c0-0.096,0-0.171,0-0.224c0-0.133,0-0.268,0-0.404c0-0.136-0.006-0.273-0.016-0.412
		c-0.011-0.229-0.088-0.368-0.232-0.416C30.08,7.55,29.917,7.575,29.736,7.67c-0.091,0.048-0.177,0.102-0.26,0.16
		s-0.178,0.131-0.284,0.216c0,0.421-0.001,0.857-0.004,1.308c-0.003,0.451-0.004,0.89-0.004,1.316
		c-0.005,0.106-0.041,0.187-0.108,0.24c-0.066,0.053-0.145,0.08-0.235,0.08s-0.17-0.027-0.236-0.08
		c-0.066-0.054-0.105-0.134-0.116-0.24V7.199z"/>
	<path class="st0" d="M31.951,9.103c0.006-0.261,0.031-0.524,0.076-0.788c0.046-0.264,0.128-0.501,0.248-0.712
		c0.12-0.21,0.282-0.383,0.488-0.516c0.205-0.133,0.468-0.2,0.788-0.2c0.106,0,0.213,0.02,0.319,0.059s0.2,0.088,0.28,0.146
		c0.021-0.058,0.056-0.109,0.104-0.154c0.049-0.045,0.126-0.067,0.232-0.067c0.102,0,0.176,0.031,0.224,0.092
		c0.048,0.062,0.072,0.135,0.072,0.22c0,0.24-0.001,0.429-0.004,0.568s-0.004,0.261-0.004,0.368c0,0.075,0,0.188,0,0.34
		s-0.002,0.327-0.004,0.524c-0.003,0.197-0.004,0.41-0.004,0.637s0,0.446,0,0.659c0,0.069,0,0.148,0,0.236s0,0.176,0,0.264
		c0,0.089-0.002,0.173-0.004,0.252c-0.003,0.08-0.007,0.147-0.013,0.2c-0.063,0.758-0.45,1.187-1.16,1.288
		c-0.096,0.017-0.198,0.021-0.308,0.017c-0.109-0.006-0.218-0.02-0.324-0.04c-0.106-0.021-0.206-0.049-0.3-0.08
		c-0.094-0.032-0.17-0.069-0.229-0.112c-0.074-0.048-0.123-0.117-0.147-0.208c-0.023-0.091-0.001-0.176,0.068-0.256
		c0.042-0.054,0.099-0.09,0.167-0.108c0.07-0.019,0.147-0.009,0.232,0.028c0.117,0.048,0.236,0.087,0.356,0.116
		s0.226,0.038,0.315,0.027c0.24-0.026,0.407-0.104,0.5-0.235c0.094-0.131,0.146-0.319,0.156-0.564
		c0.006-0.063,0.007-0.15,0.004-0.26s-0.004-0.199-0.004-0.268c-0.213,0.181-0.461,0.276-0.744,0.287
		c-0.202,0.006-0.389-0.03-0.56-0.107s-0.317-0.192-0.439-0.344c-0.123-0.152-0.219-0.338-0.288-0.557
		C31.979,9.636,31.947,9.386,31.951,9.103z M34.104,8.016c0-0.145-0.061-0.262-0.181-0.353c-0.119-0.091-0.249-0.137-0.388-0.137
		c-0.187,0-0.337,0.054-0.452,0.161c-0.114,0.107-0.205,0.239-0.271,0.397c-0.067,0.158-0.112,0.328-0.137,0.509
		c-0.023,0.182-0.035,0.348-0.035,0.498c0.005,0.353,0.073,0.631,0.204,0.834c0.13,0.203,0.3,0.311,0.508,0.321
		c0.085,0,0.168-0.013,0.248-0.036c0.08-0.024,0.153-0.057,0.22-0.097s0.124-0.087,0.172-0.141c0.048-0.053,0.085-0.106,0.112-0.16
		V8.016z"/>
</g>
</svg>
