<?xml version="1.0" encoding="utf-8"?>
<!-- Generator: Adobe Illustrator 21.1.0, SVG Export Plug-In . SVG Version: 6.00 Build 0)  -->
<svg version="1.1" id="레이어_1" xmlns="http://www.w3.org/2000/svg" xmlns:xlink="http://www.w3.org/1999/xlink" x="0px"
	 y="0px" viewBox="0 0 36.417 16" style="enable-background:new 0 0 36.417 16;" xml:space="preserve">
<style type="text/css">
	.st0{fill:#FFFFFF;}
</style>
<g>
	<path class="st0" d="M11.525,8.086c-0.107,0-0.192-0.031-0.256-0.092c-0.064-0.062-0.096-0.137-0.096-0.228
		c0-0.075,0.025-0.148,0.076-0.22c0.051-0.072,0.129-0.11,0.236-0.116c0.17-0.005,0.353-0.005,0.548,0s0.377,0.002,0.548-0.008
		c0.128-0.005,0.223,0.012,0.284,0.052c0.061,0.04,0.1,0.132,0.116,0.276c0.01,0.091,0.015,0.212,0.012,0.364
		c-0.002,0.152-0.004,0.292-0.004,0.42c0,0.256-0.001,0.526-0.004,0.808c-0.003,0.283-0.004,0.555-0.004,0.816
		c0,0.059-0.007,0.119-0.02,0.184c-0.014,0.064-0.058,0.125-0.132,0.184c-0.085,0.069-0.184,0.128-0.296,0.177
		c-0.112,0.048-0.229,0.088-0.352,0.12c-0.123,0.031-0.243,0.054-0.36,0.067s-0.221,0.021-0.312,0.021
		c-0.384,0-0.719-0.078-1.004-0.232c-0.286-0.154-0.524-0.369-0.716-0.644C9.597,9.76,9.451,9.433,9.352,9.051
		c-0.099-0.381-0.15-0.799-0.156-1.252C9.191,7.361,9.234,6.944,9.325,6.546C9.415,6.149,9.554,5.8,9.741,5.499
		s0.421-0.542,0.704-0.724c0.283-0.181,0.616-0.277,1-0.288c0.32-0.01,0.583,0.021,0.788,0.096c0.205,0.075,0.385,0.184,0.54,0.328
		c0.064,0.059,0.096,0.124,0.096,0.196c0,0.072-0.021,0.137-0.064,0.196c-0.048,0.069-0.115,0.119-0.2,0.148
		c-0.085,0.029-0.166,0.017-0.24-0.036c-0.032-0.021-0.08-0.048-0.144-0.08c-0.064-0.032-0.133-0.063-0.208-0.092
		s-0.156-0.053-0.244-0.072c-0.088-0.019-0.172-0.028-0.252-0.028c-0.272,0.005-0.508,0.087-0.708,0.244
		c-0.2,0.157-0.365,0.362-0.496,0.616c-0.131,0.253-0.227,0.539-0.288,0.856C9.963,7.176,9.935,7.497,9.941,7.823
		c0.005,0.4,0.049,0.752,0.132,1.056c0.083,0.304,0.195,0.559,0.336,0.764s0.305,0.359,0.492,0.46
		c0.187,0.102,0.392,0.152,0.616,0.152c0.053,0,0.117-0.004,0.192-0.012c0.074-0.009,0.149-0.021,0.224-0.036
		c0.075-0.017,0.146-0.037,0.212-0.064c0.067-0.026,0.116-0.059,0.148-0.096c0.005-0.325,0.008-0.625,0.008-0.9
		c0-0.274,0-0.569,0-0.884c0-0.091-0.012-0.144-0.036-0.16s-0.065-0.024-0.124-0.024L11.525,8.086z"/>
	<path class="st0" d="M15.932,7.535c-0.267,0.037-0.496,0.11-0.688,0.22c-0.192,0.109-0.376,0.292-0.552,0.548
		c-0.011,0.17-0.016,0.341-0.016,0.512c0,0.171,0,0.339,0,0.504c0,0.235,0.001,0.477,0.004,0.725
		c0.002,0.248,0.006,0.465,0.012,0.651c-0.005,0.091-0.044,0.166-0.116,0.225c-0.072,0.059-0.151,0.088-0.236,0.088
		s-0.161-0.026-0.228-0.08c-0.066-0.054-0.103-0.125-0.108-0.216c-0.011-0.395-0.019-0.81-0.024-1.244s-0.008-0.833-0.008-1.196
		c0-0.187,0-0.371,0-0.552c0-0.182,0.002-0.36,0.008-0.536c0.005-0.107,0.044-0.187,0.116-0.24c0.072-0.053,0.153-0.08,0.244-0.08
		c0.075,0,0.147,0.024,0.216,0.072s0.106,0.123,0.112,0.224c0,0.037,0,0.063,0,0.076c0,0.014,0,0.027,0,0.04
		c0,0.014,0.001,0.027,0.004,0.04c0.003,0.014,0.004,0.039,0.004,0.076c0.187-0.155,0.374-0.265,0.56-0.332
		c0.187-0.067,0.39-0.113,0.608-0.14c0.112-0.011,0.201,0.016,0.268,0.08c0.067,0.064,0.1,0.139,0.1,0.224
		c0,0.069-0.022,0.136-0.068,0.2S16.028,7.524,15.932,7.535z"/>
	<path class="st0" d="M18.084,7.495c-0.139,0-0.284,0.035-0.436,0.104s-0.287,0.149-0.404,0.24
		c-0.069,0.059-0.147,0.098-0.232,0.116c-0.085,0.019-0.163-0.009-0.232-0.084c-0.053-0.059-0.084-0.128-0.092-0.208
		s0.025-0.168,0.1-0.264c0.08-0.101,0.209-0.199,0.388-0.292s0.38-0.167,0.604-0.22c0.059-0.011,0.122-0.021,0.188-0.032
		c0.067-0.011,0.132-0.016,0.196-0.016c0.144,0,0.285,0.019,0.424,0.056c0.139,0.038,0.265,0.095,0.38,0.172
		c0.114,0.078,0.208,0.176,0.28,0.296c0.071,0.12,0.11,0.266,0.115,0.436c0.011,0.171,0.02,0.357,0.024,0.56
		s0.011,0.411,0.016,0.624c0.006,0.267,0.009,0.55,0.009,0.849s0.008,0.576,0.023,0.832c0.006,0.106-0.027,0.188-0.1,0.248
		c-0.072,0.059-0.151,0.088-0.236,0.088c-0.069,0-0.133-0.025-0.191-0.076c-0.06-0.051-0.097-0.116-0.112-0.196
		c-0.106,0.075-0.235,0.134-0.384,0.176c-0.149,0.043-0.283,0.069-0.4,0.08c-0.251,0.017-0.468-0.005-0.652-0.063
		s-0.334-0.145-0.452-0.256c-0.118-0.112-0.203-0.248-0.256-0.408s-0.075-0.336-0.064-0.528c0.016-0.336,0.124-0.611,0.324-0.828
		c0.2-0.216,0.479-0.361,0.836-0.436c0.106-0.026,0.252-0.053,0.436-0.08c0.184-0.026,0.361-0.04,0.532-0.04
		c-0.006-0.074-0.008-0.149-0.008-0.224s-0.003-0.128-0.008-0.16c-0.011-0.075-0.027-0.141-0.049-0.2
		C18.63,7.7,18.597,7.65,18.552,7.61s-0.105-0.069-0.18-0.088C18.297,7.504,18.201,7.495,18.084,7.495z M17.292,9.774
		c0,0.214,0.06,0.374,0.18,0.48c0.12,0.106,0.278,0.154,0.476,0.144c0.107-0.005,0.209-0.023,0.308-0.056s0.186-0.073,0.26-0.124
		c0.075-0.051,0.134-0.108,0.176-0.172c0.043-0.064,0.064-0.128,0.064-0.192c-0.006-0.149-0.01-0.296-0.012-0.439
		c-0.003-0.145-0.007-0.291-0.013-0.44c-0.111-0.005-0.245,0.001-0.399,0.02c-0.155,0.019-0.291,0.042-0.408,0.068
		c-0.208,0.043-0.365,0.132-0.472,0.269C17.346,9.467,17.292,9.615,17.292,9.774z"/>
	<path class="st0" d="M21.244,12.335c-0.006,0.106-0.044,0.188-0.116,0.244c-0.072,0.056-0.151,0.084-0.236,0.084
		c-0.091,0-0.171-0.024-0.24-0.072s-0.104-0.125-0.104-0.232V9.543c0-0.245,0-0.447,0-0.604s-0.002-0.291-0.004-0.4
		c-0.003-0.109-0.004-0.204-0.004-0.284s-0.002-0.165-0.004-0.256c-0.003-0.091-0.006-0.199-0.009-0.324
		c-0.002-0.125-0.004-0.289-0.004-0.492c0-0.08,0.032-0.152,0.097-0.216c0.063-0.064,0.139-0.096,0.224-0.096
		c0.074,0,0.148,0.02,0.22,0.059c0.072,0.04,0.119,0.097,0.141,0.17c0.106-0.074,0.224-0.128,0.352-0.162s0.256-0.049,0.384-0.043
		c0.272,0.011,0.496,0.079,0.672,0.204c0.177,0.125,0.317,0.285,0.425,0.48c0.106,0.195,0.18,0.409,0.22,0.644
		c0.04,0.234,0.06,0.464,0.06,0.688c-0.005,0.64-0.122,1.135-0.352,1.484c-0.229,0.35-0.552,0.519-0.968,0.508
		c-0.128-0.005-0.259-0.026-0.393-0.063c-0.133-0.037-0.253-0.086-0.359-0.145V12.335z M21.236,9.878
		c0.075,0.155,0.183,0.263,0.324,0.324s0.281,0.087,0.42,0.076c0.214-0.01,0.373-0.135,0.48-0.373
		c0.106-0.237,0.16-0.573,0.16-1.007c0-0.155-0.013-0.313-0.036-0.473c-0.024-0.161-0.065-0.307-0.124-0.438
		s-0.136-0.238-0.232-0.321c-0.096-0.083-0.216-0.127-0.359-0.132c-0.171-0.005-0.319,0.039-0.444,0.132s-0.188,0.221-0.188,0.381
		V9.878z"/>
	<path class="st0" d="M25.861,7.526c-0.139,0-0.283,0.063-0.433,0.188c-0.149,0.125-0.301,0.29-0.456,0.492
		c-0.005,0.064-0.009,0.14-0.012,0.228s-0.004,0.18-0.004,0.276c0,0.182,0.003,0.387,0.008,0.617
		c0.005,0.229,0.011,0.437,0.017,0.624c0.005,0.149,0.009,0.287,0.012,0.416c0.002,0.128,0.004,0.231,0.004,0.312
		c0,0.112-0.033,0.194-0.101,0.248c-0.066,0.054-0.145,0.08-0.235,0.08s-0.174-0.029-0.248-0.088
		c-0.075-0.059-0.115-0.142-0.12-0.248c-0.006-0.08-0.008-0.157-0.008-0.232c0-0.074-0.003-0.149-0.008-0.224
		c-0.011-0.134-0.018-0.282-0.021-0.448c-0.003-0.165-0.004-0.322-0.004-0.472c-0.005-0.411-0.015-0.822-0.028-1.232
		c-0.013-0.411-0.02-0.827-0.02-1.248c-0.006-0.09-0.011-0.225-0.017-0.404c-0.005-0.179-0.008-0.364-0.008-0.556
		c0-0.17,0.003-0.344,0.008-0.52c0.006-0.176,0.017-0.341,0.032-0.496c0.011-0.106,0.044-0.188,0.101-0.244
		c0.056-0.056,0.143-0.079,0.26-0.068c0.122,0.011,0.209,0.048,0.26,0.112s0.073,0.144,0.068,0.24
		c-0.011,0.155-0.021,0.331-0.028,0.528s-0.012,0.378-0.012,0.544c0,0.155,0.001,0.308,0.004,0.46
		c0.003,0.152,0.007,0.3,0.012,0.444c0,0.075,0.001,0.155,0.004,0.24c0.003,0.085,0.007,0.165,0.013,0.24
		c0.111-0.101,0.237-0.199,0.376-0.292s0.301-0.153,0.487-0.18c0.214-0.026,0.399-0.016,0.557,0.032s0.288,0.129,0.392,0.244
		c0.104,0.115,0.184,0.264,0.24,0.448c0.056,0.184,0.089,0.399,0.1,0.644c0.011,0.32,0.019,0.656,0.024,1.008
		c0.005,0.353,0.008,0.667,0.008,0.944v0.472c0,0.112-0.036,0.196-0.108,0.253c-0.071,0.056-0.153,0.084-0.243,0.084
		c-0.086,0-0.163-0.027-0.232-0.08c-0.069-0.054-0.106-0.134-0.112-0.24c-0.005-0.139-0.009-0.289-0.012-0.452
		s-0.004-0.332-0.004-0.508c0-0.203-0.001-0.423-0.004-0.66s-0.01-0.468-0.021-0.692c-0.011-0.298-0.055-0.512-0.132-0.64
		C26.139,7.59,26.02,7.526,25.861,7.526z"/>
</g>
</svg>
