<?xml version="1.0" encoding="utf-8"?>
<!-- Generator: Adobe Illustrator 21.1.0, SVG Export Plug-In . SVG Version: 6.00 Build 0)  -->
<svg version="1.1" id="레이어_1" xmlns="http://www.w3.org/2000/svg" xmlns:xlink="http://www.w3.org/1999/xlink" x="0px"
	 y="0px" viewBox="0 0 36.417 16" style="enable-background:new 0 0 36.417 16;" xml:space="preserve">
<style type="text/css">
	.st0{fill:#FFFFFF;}
</style>
<g>
	<path class="st0" d="M14.865,9.663c0,0.101-0.021,0.177-0.064,0.228c-0.043,0.051-0.104,0.09-0.184,0.116
		c-0.032,0.011-0.068,0.016-0.108,0.016s-0.082,0-0.124,0h-0.144h-1.04c-0.304,0-0.604-0.001-0.9-0.004
		c-0.296-0.002-0.594-0.004-0.892-0.004c-0.149,0-0.28,0-0.392,0s-0.221,0.002-0.328,0.004c-0.106,0.003-0.214,0.004-0.324,0.004
		s-0.236,0-0.38,0c-0.016,0-0.05,0-0.1,0c-0.051,0-0.104,0.002-0.16,0.004c-0.056,0.003-0.108,0.004-0.156,0.004
		c-0.048,0-0.08,0-0.096,0H9.288c-0.091,0-0.168-0.028-0.232-0.088C8.993,9.884,8.96,9.799,8.96,9.687
		c0-0.165,0.085-0.264,0.256-0.296C9.27,9.38,9.335,9.375,9.412,9.375s0.146,0,0.204,0h0.096c0.219,0,0.405-0.002,0.56-0.004
		c0.155-0.003,0.295-0.004,0.42-0.004c0.125,0,0.241,0,0.348,0c0.107,0,0.221,0,0.344,0h3.112
		C14.742,9.367,14.865,9.466,14.865,9.663z M10.177,5.55c-0.096,0.005-0.173-0.021-0.232-0.08C9.886,5.412,9.851,5.34,9.841,5.254
		C9.835,5.169,9.863,5.09,9.925,5.019c0.061-0.072,0.156-0.105,0.284-0.1c0.027,0.005,0.065,0.008,0.116,0.008s0.113,0,0.188,0
		c0.144,0,0.318-0.001,0.524-0.004c0.205-0.002,0.425-0.006,0.66-0.012c0.234-0.005,0.479-0.012,0.732-0.02
		c0.253-0.008,0.497-0.015,0.732-0.02c0.17,0,0.294,0.036,0.372,0.108c0.077,0.072,0.121,0.186,0.132,0.34
		c0.005,0.043,0.008,0.092,0.008,0.148c0,0.056,0,0.111,0,0.164c0,0.187-0.007,0.397-0.02,0.632
		c-0.014,0.234-0.031,0.471-0.052,0.708s-0.045,0.464-0.072,0.68c-0.027,0.216-0.051,0.399-0.072,0.548
		c-0.021,0.112-0.077,0.192-0.168,0.24s-0.181,0.064-0.272,0.048c-0.091-0.016-0.159-0.06-0.204-0.132s-0.06-0.156-0.044-0.252
		c0.005-0.048,0.017-0.141,0.036-0.28c0.019-0.139,0.037-0.303,0.056-0.492c0.019-0.189,0.036-0.392,0.052-0.608
		c0.016-0.216,0.027-0.428,0.032-0.636V5.654c0-0.08-0.038-0.12-0.112-0.12c-0.149,0-0.347,0.001-0.592,0.004
		c-0.246,0.003-0.499,0.005-0.76,0.008C11.219,5.549,10.97,5.55,10.732,5.55S10.31,5.55,10.177,5.55z"/>
	<path class="st0" d="M16.113,5.367c-0.075,0-0.151-0.003-0.228-0.008s-0.146-0.013-0.204-0.024
		c-0.091-0.016-0.159-0.052-0.204-0.108c-0.045-0.056-0.068-0.119-0.068-0.188c0-0.096,0.039-0.184,0.116-0.264
		c0.077-0.08,0.18-0.106,0.308-0.08h-0.008c0.032,0.005,0.073,0.01,0.124,0.012C15.999,4.709,16.07,4.71,16.16,4.71h0.488
		c0.117,0,0.212,0,0.284,0c0.072,0,0.135-0.001,0.188-0.004c0.053-0.002,0.102-0.007,0.144-0.012
		c0.043-0.005,0.093-0.01,0.152-0.016c0.208-0.011,0.341,0.017,0.4,0.084c0.059,0.066,0.088,0.188,0.088,0.364v1.872
		c0.005,0.128-0.009,0.231-0.044,0.308s-0.146,0.121-0.332,0.132c-0.117,0.011-0.288,0.018-0.512,0.02
		c-0.224,0.003-0.504,0.007-0.84,0.012v1.464c0,0.042,0.008,0.069,0.024,0.08s0.045,0.016,0.088,0.016
		c0.091,0,0.2-0.002,0.328-0.008c0.128-0.005,0.264-0.013,0.408-0.024c0.144-0.011,0.288-0.025,0.432-0.044
		c0.144-0.019,0.277-0.042,0.4-0.068c0.144-0.027,0.253-0.007,0.328,0.06c0.075,0.067,0.112,0.146,0.112,0.236
		c0,0.064-0.022,0.124-0.067,0.18c-0.045,0.057-0.114,0.095-0.204,0.116c-0.149,0.038-0.319,0.068-0.508,0.092
		c-0.189,0.024-0.378,0.042-0.568,0.053s-0.368,0.019-0.536,0.023c-0.168,0.006-0.305,0.006-0.412,0
		c-0.128-0.005-0.229-0.023-0.304-0.056s-0.129-0.073-0.164-0.124s-0.057-0.108-0.068-0.172c-0.011-0.064-0.016-0.134-0.016-0.208
		c0-0.347,0-0.628,0-0.844c0-0.216,0-0.388,0-0.516s-0.001-0.221-0.004-0.28c-0.003-0.059-0.004-0.104-0.004-0.136
		c-0.011-0.176,0.016-0.307,0.08-0.392c0.064-0.085,0.173-0.128,0.328-0.128c0.219,0,0.449,0.001,0.692,0.004
		c0.242,0.003,0.455-0.001,0.636-0.012c0-0.149,0-0.287,0-0.412s0.001-0.243,0.004-0.352c0.003-0.109,0.004-0.213,0.004-0.312
		s0-0.199,0-0.3c0-0.043-0.011-0.065-0.032-0.068c-0.021-0.002-0.045-0.004-0.072-0.004c-0.064,0.005-0.141,0.011-0.232,0.016
		s-0.183,0.009-0.276,0.012c-0.093,0.003-0.181,0.004-0.264,0.004C16.226,5.367,16.16,5.367,16.113,5.367z M20.105,10.814v-3.36
		h-0.513h-0.271c0,0.336,0.001,0.676,0.004,1.02c0.003,0.344,0.007,0.679,0.012,1.004c0,0.277,0.001,0.561,0.004,0.849
		s0.004,0.535,0.004,0.743c0,0.102-0.04,0.179-0.12,0.232c-0.079,0.054-0.159,0.08-0.239,0.08c-0.091,0-0.171-0.031-0.24-0.092
		c-0.069-0.062-0.104-0.138-0.104-0.229c0.006-0.256,0.01-0.526,0.013-0.812c0.002-0.285,0.004-0.557,0.004-0.813
		c0-0.378-0.002-0.76-0.004-1.144c-0.003-0.384-0.007-0.808-0.013-1.272c0-0.192,0-0.352,0-0.48s-0.001-0.236-0.004-0.324
		c-0.002-0.088-0.004-0.162-0.004-0.22s0-0.112,0-0.16c0-0.187,0-0.375,0-0.564c0-0.189,0.003-0.391,0.008-0.604
		c0-0.112,0.035-0.199,0.104-0.26c0.069-0.062,0.149-0.092,0.24-0.092c0.08,0,0.158,0.035,0.235,0.104s0.119,0.155,0.124,0.256
		c-0.011,0.165-0.017,0.407-0.02,0.724c-0.003,0.317-0.004,0.668-0.004,1.052v0.368H19.6c0.075,0,0.155,0,0.24,0
		c0.086,0,0.174-0.003,0.265-0.008c0-0.501-0.002-0.952-0.005-1.352c-0.002-0.4-0.004-0.693-0.004-0.88
		c0-0.101,0.027-0.185,0.08-0.252c0.054-0.067,0.128-0.105,0.225-0.116c0.048,0,0.096,0.007,0.144,0.02
		c0.048,0.014,0.092,0.035,0.132,0.064c0.04,0.03,0.072,0.065,0.097,0.108c0.023,0.042,0.033,0.088,0.027,0.136v0.264
		c0,0.042-0.001,0.083-0.004,0.12c-0.003,0.038-0.004,0.078-0.004,0.12v0.88c0,0.363,0,0.755,0,1.176s0,0.848,0,1.28
		c0,0.432,0.001,0.856,0.004,1.272s0.007,0.795,0.012,1.137c0,0.021,0.002,0.04,0.005,0.056c0.002,0.016,0.004,0.035,0.004,0.056
		c0.005,0.054,0.006,0.116,0.004,0.188c-0.003,0.072-0.01,0.132-0.021,0.18c-0.026,0.106-0.07,0.172-0.132,0.196
		s-0.132,0.036-0.212,0.036c-0.096,0-0.179-0.035-0.248-0.104s-0.104-0.144-0.104-0.224V10.814z"/>
	<path class="st0" d="M24.791,9.551c0.118,0,0.228,0.001,0.328,0.004c0.102,0.003,0.21,0.004,0.324,0.004s0.247-0.001,0.396-0.004
		c0.148-0.003,0.33-0.009,0.544-0.02c0.069,0,0.143-0.002,0.22-0.005c0.077-0.002,0.15-0.004,0.22-0.004
		c0.08,0,0.16-0.002,0.24-0.008c0.106,0,0.197,0.024,0.272,0.071c0.074,0.048,0.111,0.124,0.111,0.229
		c0,0.115-0.027,0.196-0.084,0.241c-0.056,0.044-0.124,0.08-0.204,0.106c-0.021,0.005-0.062,0.009-0.12,0.012
		s-0.119,0.004-0.184,0.004c-0.075,0.006-0.157,0.008-0.248,0.008c-0.347,0.011-0.7,0.015-1.06,0.013
		c-0.36-0.003-0.714-0.004-1.061-0.004c-0.384,0-0.745,0-1.084,0s-0.689-0.003-1.052-0.009c-0.026,0-0.083,0.004-0.168,0.013
		c-0.086,0.008-0.185,0.012-0.296,0.012c-0.091,0-0.172-0.029-0.244-0.087c-0.072-0.059-0.108-0.146-0.108-0.261
		c0-0.085,0.032-0.161,0.097-0.229c0.063-0.068,0.151-0.103,0.264-0.103c0.043,0,0.108,0,0.196,0s0.181,0.001,0.279,0.004
		s0.192,0.004,0.28,0.004s0.156,0,0.204,0c0.102,0,0.2,0.001,0.296,0.004s0.213,0.004,0.353,0.004c0.139,0,0.309,0,0.512,0
		C24.218,9.551,24.477,9.551,24.791,9.551z M26.72,7.758c0.011,0.139-0.036,0.229-0.141,0.272c-0.104,0.043-0.215,0.067-0.332,0.072
		c-0.085,0.005-0.201,0.009-0.348,0.012c-0.146,0.002-0.312,0.005-0.496,0.008c-0.184,0.003-0.384,0.005-0.6,0.008
		c-0.216,0.003-0.439,0.004-0.668,0.004c-0.091,0-0.201,0-0.332,0s-0.272,0.001-0.424,0.004c-0.152,0.002-0.308,0.004-0.465,0.004
		s-0.311,0-0.46,0c-0.128,0-0.215-0.04-0.26-0.12s-0.063-0.16-0.052-0.24c0.011-0.075,0.045-0.139,0.104-0.192
		c0.059-0.053,0.145-0.08,0.257-0.08h0.56c0-0.085-0.001-0.179-0.004-0.28c-0.003-0.101-0.006-0.204-0.008-0.308
		c-0.003-0.104-0.004-0.207-0.004-0.308c0-0.102,0-0.195,0-0.28c0-0.091,0-0.169,0-0.236c0-0.067,0.002-0.122,0.008-0.164
		c0.011-0.091,0.04-0.171,0.088-0.24c0.048-0.069,0.139-0.104,0.271-0.104c0.097,0,0.178,0.024,0.244,0.072
		c0.067,0.048,0.103,0.117,0.108,0.208v0.152c0,0.075,0.001,0.168,0.004,0.28c0.003,0.112,0.004,0.237,0.004,0.376
		c0,0.144-0.001,0.289-0.004,0.436c-0.003,0.146-0.001,0.281,0.004,0.404c0.208,0.005,0.415,0.007,0.62,0.004
		c0.205-0.002,0.415-0.006,0.628-0.012c0.005-0.048,0.008-0.098,0.008-0.148c0-0.05,0-0.103,0-0.156c0-0.133,0-0.268,0-0.404
		c0-0.136-0.001-0.264-0.004-0.384s-0.005-0.227-0.008-0.32s-0.004-0.161-0.004-0.204c-0.006-0.117,0.029-0.203,0.104-0.256
		c0.075-0.053,0.157-0.08,0.248-0.08c0.134,0,0.225,0.031,0.272,0.092c0.048,0.062,0.074,0.14,0.08,0.236
		c0.005,0.155,0.009,0.329,0.012,0.524s0.004,0.393,0.004,0.596c0,0.08,0,0.163,0,0.248c0,0.085-0.003,0.166-0.008,0.24
		c0.074,0,0.15-0.003,0.228-0.008c0.078-0.005,0.156-0.01,0.236-0.016c0.139-0.011,0.259-0.001,0.36,0.028
		C26.653,7.528,26.709,7.615,26.72,7.758z M26.056,4.703c0.128-0.011,0.242,0.001,0.344,0.036c0.102,0.035,0.157,0.122,0.168,0.26
		c0.005,0.133-0.037,0.221-0.128,0.264c-0.091,0.042-0.194,0.066-0.312,0.072c-0.091,0.005-0.21,0.009-0.356,0.012
		c-0.146,0.002-0.304,0.004-0.472,0.004s-0.338,0-0.509,0c-0.17,0-0.319,0-0.447,0c-0.149,0-0.31,0-0.48,0s-0.337,0-0.5,0
		c-0.162,0-0.318,0-0.468,0s-0.277,0-0.384,0c-0.097,0-0.171-0.039-0.225-0.116c-0.053-0.077-0.074-0.153-0.063-0.228
		c0.011-0.074,0.045-0.141,0.104-0.2s0.139-0.088,0.24-0.088c0.064,0,0.161,0,0.292,0s0.278,0.001,0.444,0.004
		c0.165,0.002,0.339,0.004,0.52,0.004c0.182,0,0.354,0,0.521,0c0.197,0,0.376,0,0.536,0c0.159,0,0.308-0.001,0.443-0.004
		c0.136-0.003,0.265-0.005,0.384-0.008C25.827,4.712,25.944,4.708,26.056,4.703z"/>
</g>
</svg>
