<?xml version="1.0" encoding="utf-8"?>
<!-- Generator: Adobe Illustrator 21.1.0, SVG Export Plug-In . SVG Version: 6.00 Build 0)  -->
<svg version="1.1" id="레이어_1" xmlns="http://www.w3.org/2000/svg" xmlns:xlink="http://www.w3.org/1999/xlink" x="0px"
	 y="0px" viewBox="0 0 36.417 16" style="enable-background:new 0 0 36.417 16;" xml:space="preserve">
<style type="text/css">
	.st0{fill:#FFFFFF;}
</style>
<g>
	<path class="st0" d="M15.352,4.871c0-0.107,0.039-0.186,0.116-0.236c0.078-0.05,0.156-0.076,0.236-0.076
		c0.074,0,0.154,0.019,0.24,0.056c0.085,0.037,0.128,0.115,0.128,0.232c0,0.485,0.004,0.96,0.012,1.424s0.017,0.931,0.028,1.4
		s0.019,0.951,0.024,1.445c0.005,0.493,0.011,0.985,0.016,1.476c-0.005,0.112-0.047,0.196-0.124,0.252
		c-0.077,0.056-0.159,0.084-0.244,0.084c-0.09,0-0.169-0.026-0.236-0.08s-0.105-0.133-0.116-0.24
		c-0.005-0.469-0.011-0.932-0.016-1.388s-0.014-0.916-0.024-1.38c-0.123,0-0.25-0.001-0.38-0.004
		c-0.13-0.002-0.254-0.004-0.372-0.004c-0.198,0-0.376,0.001-0.536,0.004c-0.16,0.003-0.347,0.004-0.56,0.004
		c0,0.171,0,0.333,0,0.488s0,0.311,0,0.468s0.001,0.322,0.004,0.493c0.003,0.17,0.007,0.354,0.012,0.552
		c0,0.08,0.001,0.167,0.004,0.26c0.002,0.094,0.004,0.182,0.004,0.264c0,0.083,0,0.153,0,0.213c0,0.059,0,0.096,0,0.111
		c-0.005,0.112-0.045,0.197-0.12,0.256S13.291,11.03,13.2,11.03c-0.09,0-0.17-0.027-0.24-0.084c-0.069-0.056-0.109-0.137-0.12-0.243
		c-0.005-0.257-0.009-0.509-0.012-0.757c-0.003-0.247-0.007-0.473-0.012-0.676c-0.005-0.304-0.008-0.606-0.008-0.908
		c0-0.301-0.005-0.636-0.016-1.004c-0.005-0.123-0.008-0.3-0.008-0.532s0-0.468,0-0.708c0-0.224,0-0.452,0-0.684
		s0.005-0.441,0.016-0.628c0.005-0.085,0.044-0.151,0.116-0.196c0.072-0.045,0.153-0.068,0.244-0.068c0.09,0,0.174,0.027,0.252,0.08
		c0.077,0.053,0.116,0.131,0.116,0.232V7.15c0.128-0.005,0.26-0.006,0.396-0.004c0.136,0.003,0.265,0.004,0.388,0.004
		c0.197,0,0.373,0,0.528,0s0.336,0.003,0.544,0.008c0-0.016,0-0.051,0-0.104s-0.001-0.111-0.004-0.172
		c-0.003-0.061-0.004-0.12-0.004-0.176s0-0.092,0-0.108c-0.005-0.166-0.009-0.315-0.012-0.448c-0.002-0.133-0.005-0.267-0.008-0.4
		c-0.003-0.133-0.004-0.269-0.004-0.408C15.352,5.204,15.352,5.046,15.352,4.871z"/>
	<path class="st0" d="M17.112,10.575c0.011-0.604,0.018-1.219,0.02-1.849c0.003-0.629,0.004-1.219,0.004-1.768
		c0-0.4-0.001-0.771-0.004-1.112c-0.002-0.341-0.006-0.653-0.012-0.936v0.016c-0.011-0.064-0.005-0.123,0.016-0.176
		c0.016-0.042,0.049-0.084,0.1-0.124s0.129-0.065,0.236-0.076c0.213,0,0.46,0.008,0.74,0.024c0.28,0.016,0.553,0.075,0.82,0.176
		c0.341,0.133,0.611,0.355,0.812,0.664c0.2,0.31,0.308,0.675,0.324,1.096c0.016,0.347-0.033,0.657-0.148,0.932
		c-0.114,0.275-0.275,0.509-0.483,0.704s-0.456,0.347-0.744,0.456s-0.597,0.172-0.928,0.188v1.745
		c0.021,0.122-0.008,0.224-0.088,0.304s-0.173,0.12-0.28,0.12c-0.053,0-0.108-0.01-0.164-0.028s-0.105-0.055-0.148-0.107
		C17.137,10.759,17.112,10.676,17.112,10.575z M17.865,8.119c0.224-0.016,0.433-0.064,0.628-0.144
		c0.194-0.08,0.362-0.188,0.504-0.324c0.141-0.136,0.25-0.296,0.328-0.48c0.077-0.184,0.113-0.385,0.107-0.604
		c-0.011-0.309-0.08-0.564-0.208-0.764c-0.128-0.2-0.299-0.346-0.512-0.436c-0.048-0.021-0.108-0.04-0.18-0.056
		c-0.072-0.016-0.147-0.029-0.225-0.04s-0.154-0.02-0.231-0.028c-0.078-0.008-0.148-0.015-0.212-0.02V8.119z"/>
	<path class="st0" d="M23.8,5.511c0.021,0.123-0.012,0.224-0.1,0.304s-0.183,0.12-0.284,0.12c-0.075,0-0.143-0.02-0.204-0.06
		s-0.1-0.105-0.116-0.196c-0.032-0.171-0.103-0.301-0.212-0.392s-0.249-0.139-0.42-0.144c-0.283-0.005-0.485,0.06-0.608,0.196
		c-0.122,0.136-0.184,0.292-0.184,0.468c0,0.203,0.076,0.413,0.228,0.632c0.152,0.219,0.389,0.48,0.708,0.784
		c0.262,0.25,0.48,0.475,0.656,0.672s0.317,0.384,0.424,0.56c0.107,0.176,0.182,0.348,0.225,0.516
		c0.042,0.168,0.063,0.348,0.063,0.54c0,0.251-0.045,0.47-0.136,0.656s-0.212,0.341-0.364,0.464
		c-0.151,0.122-0.326,0.216-0.523,0.28c-0.197,0.063-0.408,0.096-0.632,0.096c-0.219,0-0.425-0.035-0.616-0.104
		c-0.192-0.069-0.36-0.165-0.504-0.287c-0.145-0.123-0.256-0.269-0.336-0.437s-0.12-0.348-0.12-0.54
		c-0.006-0.112,0.03-0.2,0.107-0.264c0.077-0.064,0.161-0.097,0.252-0.097s0.173,0.025,0.244,0.076
		c0.072,0.051,0.113,0.13,0.124,0.236c0.011,0.24,0.092,0.424,0.244,0.552s0.354,0.192,0.604,0.192c0.293,0,0.519-0.075,0.676-0.225
		c0.157-0.148,0.235-0.354,0.235-0.615c0-0.16-0.023-0.309-0.071-0.444c-0.048-0.136-0.12-0.272-0.216-0.408
		c-0.097-0.136-0.215-0.276-0.356-0.42s-0.306-0.31-0.492-0.496c-0.191-0.192-0.365-0.371-0.52-0.536
		c-0.155-0.165-0.284-0.325-0.389-0.48c-0.104-0.155-0.184-0.307-0.239-0.456c-0.057-0.149-0.084-0.301-0.084-0.456
		c0-0.165,0.027-0.328,0.084-0.488c0.056-0.16,0.146-0.303,0.271-0.428c0.125-0.125,0.285-0.227,0.48-0.304
		c0.194-0.077,0.433-0.116,0.716-0.116c0.352,0,0.652,0.082,0.899,0.244C23.564,4.869,23.726,5.137,23.8,5.511z"/>
</g>
</svg>
