<?xml version="1.0" encoding="utf-8"?>
<!-- Generator: Adobe Illustrator 21.1.0, SVG Export Plug-In . SVG Version: 6.00 Build 0)  -->
<svg version="1.1" id="레이어_1" xmlns="http://www.w3.org/2000/svg" xmlns:xlink="http://www.w3.org/1999/xlink" x="0px"
	 y="0px" viewBox="0 0 36.417 16" style="enable-background:new 0 0 36.417 16;" xml:space="preserve">
<style type="text/css">
	.st0{fill:#FFFFFF;}
</style>
<g>
	<path class="st0" d="M14.04,4.559c0.299-0.021,0.548,0.019,0.748,0.12c0.2,0.101,0.361,0.244,0.484,0.428s0.208,0.4,0.256,0.648
		c0.048,0.248,0.069,0.508,0.064,0.78c-0.005,0.25-0.033,0.485-0.084,0.704c-0.051,0.219-0.132,0.411-0.244,0.576
		c-0.112,0.166-0.26,0.295-0.444,0.388c-0.184,0.093-0.412,0.14-0.684,0.14c-0.304,0-0.551-0.054-0.74-0.164
		s-0.339-0.255-0.448-0.436c-0.109-0.182-0.184-0.388-0.224-0.62s-0.06-0.473-0.06-0.724c0-0.528,0.112-0.957,0.336-1.288
		C13.224,4.78,13.571,4.596,14.04,4.559z M14.04,5.183c-0.144,0.011-0.26,0.057-0.348,0.14c-0.088,0.082-0.156,0.182-0.204,0.299
		C13.44,5.738,13.409,5.864,13.392,6s-0.024,0.259-0.024,0.371c0,0.154,0.006,0.31,0.02,0.467c0.013,0.157,0.046,0.299,0.1,0.426
		c0.053,0.128,0.129,0.233,0.228,0.315s0.233,0.124,0.404,0.124c0.165,0,0.298-0.035,0.4-0.104c0.101-0.069,0.18-0.16,0.236-0.271
		c0.056-0.111,0.093-0.236,0.112-0.375c0.019-0.139,0.028-0.279,0.028-0.423c0-0.197-0.013-0.38-0.04-0.55s-0.072-0.316-0.136-0.438
		c-0.064-0.123-0.151-0.217-0.26-0.283S14.211,5.167,14.04,5.183z M14.664,10.831c0.149,0.005,0.283,0.008,0.4,0.008
		s0.235,0,0.352,0c0.288,0,0.604-0.003,0.948-0.008c0.344-0.006,0.695-0.017,1.052-0.032c0.091-0.006,0.164,0.016,0.22,0.063
		c0.056,0.049,0.086,0.112,0.092,0.192c0.016,0.224-0.067,0.344-0.248,0.36c-0.421,0.026-0.797,0.042-1.128,0.048
		c-0.331,0.005-0.637,0.008-0.92,0.008h-1.088c-0.187,0-0.323-0.032-0.408-0.096c-0.085-0.064-0.128-0.197-0.128-0.4
		c0-0.112,0-0.236,0-0.372s0.001-0.273,0.004-0.412c0.002-0.139,0.004-0.272,0.004-0.403s0-0.247,0-0.349
		c0-0.128,0.037-0.22,0.112-0.275c0.074-0.057,0.165-0.084,0.272-0.084c0.106,0,0.194,0.034,0.264,0.104s0.102,0.149,0.096,0.24
		c-0.005,0.165-0.008,0.303-0.008,0.412s0,0.209,0,0.3c0,0.075-0.001,0.159-0.004,0.252c-0.002,0.094-0.004,0.198-0.004,0.316
		c0,0.053,0.009,0.088,0.028,0.104C14.591,10.823,14.621,10.831,14.664,10.831z M16.936,4.566c0-0.101,0.037-0.179,0.112-0.232
		s0.157-0.08,0.248-0.08c0.08,0,0.155,0.024,0.224,0.072c0.069,0.048,0.112,0.117,0.128,0.208c0.005,0.032,0.008,0.076,0.008,0.132
		s0,0.116,0,0.18v0.936c0,0.229,0,0.501,0,0.816c0,0.314-0.001,0.637-0.004,0.968c-0.002,0.331-0.005,0.651-0.008,0.96
		c-0.003,0.31-0.007,0.571-0.012,0.784c-0.005,0.139-0.044,0.232-0.116,0.28c-0.072,0.048-0.151,0.072-0.236,0.072
		c-0.096,0-0.177-0.027-0.244-0.08c-0.067-0.054-0.1-0.146-0.1-0.28V8.694c0.005-0.288,0.009-0.594,0.012-0.92
		c0.002-0.325,0.006-0.648,0.012-0.968h-0.384c-0.091,0-0.176,0-0.256,0c-0.08,0-0.144-0.003-0.192-0.008
		c-0.096-0.01-0.172-0.042-0.228-0.096c-0.056-0.053-0.084-0.131-0.084-0.232c0-0.107,0.039-0.188,0.116-0.244
		c0.077-0.056,0.161-0.079,0.252-0.068c0.059,0.005,0.126,0.008,0.204,0.008c0.077,0,0.161,0,0.252,0h0.32c0-0.144,0-0.284,0-0.42
		c0-0.136-0.003-0.273-0.008-0.412c0-0.091-0.003-0.203-0.008-0.336S16.936,4.721,16.936,4.566z"/>
	<path class="st0" d="M20.16,4.918c0.336-0.016,0.606,0.04,0.812,0.168s0.367,0.297,0.484,0.508c0.117,0.21,0.195,0.447,0.235,0.708
		s0.061,0.515,0.061,0.76c0,0.288-0.019,0.569-0.057,0.844c-0.037,0.274-0.111,0.521-0.224,0.74S21.202,9.042,21,9.175
		c-0.203,0.134-0.47,0.2-0.8,0.2c-0.342,0-0.612-0.075-0.813-0.225c-0.2-0.148-0.352-0.337-0.456-0.564
		c-0.104-0.227-0.171-0.476-0.2-0.748s-0.044-0.53-0.044-0.776c0-0.245,0.021-0.493,0.061-0.744c0.04-0.25,0.114-0.476,0.224-0.676
		c0.109-0.2,0.259-0.367,0.448-0.5S19.856,4.935,20.16,4.918z M20.184,5.535c-0.176,0.016-0.315,0.077-0.42,0.184
		c-0.104,0.106-0.183,0.234-0.236,0.384c-0.053,0.149-0.086,0.31-0.1,0.48c-0.014,0.171-0.02,0.331-0.02,0.48
		c0,0.176,0.005,0.363,0.016,0.56s0.041,0.38,0.092,0.548s0.131,0.308,0.24,0.42c0.109,0.112,0.263,0.168,0.46,0.168
		c0.202,0,0.36-0.063,0.472-0.188c0.112-0.125,0.193-0.277,0.244-0.456s0.08-0.364,0.088-0.556s0.013-0.357,0.013-0.496
		c0-0.224-0.014-0.432-0.04-0.624c-0.027-0.192-0.072-0.358-0.137-0.5c-0.063-0.141-0.15-0.248-0.26-0.32
		C20.487,5.546,20.349,5.519,20.184,5.535z M22.232,6.814c0.112,0,0.222,0.001,0.328,0.004c0.106,0.003,0.243-0.001,0.408-0.012
		c0.005-0.331,0.003-0.691-0.008-1.08s-0.017-0.768-0.017-1.136c0-0.112,0.033-0.197,0.101-0.256
		c0.066-0.059,0.153-0.088,0.26-0.088c0.112,0,0.194,0.035,0.248,0.104s0.08,0.157,0.08,0.264c0,0.219,0,0.425,0,0.62
		c0,0.195,0,0.383,0,0.564c0,0.182,0.001,0.36,0.004,0.536c0.003,0.176,0.004,0.355,0.004,0.536v2.464c0,0.33,0,0.654,0,0.972
		s-0.003,0.588-0.008,0.813c-0.006,0.106-0.043,0.188-0.112,0.243c-0.069,0.057-0.142,0.084-0.216,0.084
		c-0.106,0-0.19-0.034-0.252-0.104s-0.092-0.144-0.092-0.224c0.005-0.188,0.008-0.4,0.008-0.641s0-0.475,0-0.704
		c0-0.384,0.001-0.767,0.004-1.148s0.001-0.767-0.004-1.156c-0.043-0.005-0.098-0.008-0.164-0.008s-0.138,0-0.212,0
		c-0.075,0-0.148,0-0.22,0c-0.072,0-0.135-0.002-0.188-0.008C21.982,7.438,21.88,7.324,21.88,7.11c0-0.106,0.033-0.183,0.1-0.228
		C22.047,6.837,22.131,6.814,22.232,6.814z"/>
</g>
</svg>
