<?xml version="1.0" encoding="utf-8"?>
<!-- Generator: Adobe Illustrator 21.1.0, SVG Export Plug-In . SVG Version: 6.00 Build 0)  -->
<svg version="1.1" id="레이어_1" xmlns="http://www.w3.org/2000/svg" xmlns:xlink="http://www.w3.org/1999/xlink" x="0px"
	 y="0px" viewBox="0 0 36.417 16" style="enable-background:new 0 0 36.417 16;" xml:space="preserve">
<style type="text/css">
	.st0{fill:#FFFFFF;}
</style>
<g>
	<path class="st0" d="M3.968,4.791c0.005-0.106,0.047-0.187,0.124-0.24c0.078-0.053,0.159-0.08,0.244-0.08
		c0.075,0,0.156,0.024,0.244,0.072s0.132,0.123,0.132,0.224c0,0.139-0.001,0.268-0.004,0.388c-0.003,0.12-0.005,0.233-0.008,0.34
		c-0.003,0.106-0.005,0.213-0.008,0.32C4.69,5.921,4.688,6.03,4.688,6.143c0,0.155,0.001,0.312,0.004,0.472
		c0.003,0.16,0.004,0.32,0.004,0.48c0,0.496,0.001,0.976,0.004,1.44c0.002,0.464-0.007,0.952-0.028,1.464
		c0,0.005-0.002,0.018-0.008,0.036s-0.008,0.038-0.008,0.06s0.008,0.041,0.024,0.06c0.016,0.02,0.045,0.028,0.088,0.028
		c0.229,0.006,0.436,0.006,0.62,0c0.184-0.005,0.358-0.008,0.524-0.008c0.042,0,0.097,0,0.164,0c0.066,0,0.136-0.001,0.208-0.004
		c0.072-0.003,0.141-0.004,0.208-0.004c0.066,0,0.119,0,0.156,0c0.096,0,0.173,0.034,0.232,0.104s0.088,0.145,0.088,0.225
		c0,0.074-0.026,0.14-0.08,0.195c-0.054,0.057-0.128,0.087-0.224,0.093c-0.128,0.005-0.295,0.009-0.5,0.012
		c-0.206,0.003-0.417,0.005-0.636,0.008s-0.427,0.004-0.624,0.004s-0.354,0-0.472,0c-0.176,0-0.308-0.028-0.396-0.084
		c-0.088-0.056-0.127-0.178-0.116-0.364c0.011-0.395,0.018-0.826,0.02-1.296c0.003-0.469,0.004-0.96,0.004-1.472
		c0-0.229,0-0.476,0-0.74s0-0.521,0-0.772S3.946,5.59,3.949,5.367C3.951,5.143,3.957,4.951,3.968,4.791z"/>
	<path class="st0" d="M8.904,7.495c-0.139,0-0.284,0.035-0.436,0.104s-0.287,0.149-0.404,0.24C7.995,7.897,7.917,7.936,7.832,7.955
		C7.747,7.973,7.669,7.945,7.6,7.871C7.547,7.812,7.516,7.743,7.508,7.663s0.025-0.168,0.1-0.264C7.688,7.297,7.817,7.2,7.996,7.106
		C8.175,7.013,8.376,6.94,8.6,6.887c0.059-0.011,0.122-0.021,0.188-0.032C8.855,6.844,8.92,6.838,8.984,6.838
		c0.144,0,0.285,0.019,0.424,0.056c0.139,0.038,0.265,0.095,0.38,0.172c0.115,0.078,0.208,0.176,0.28,0.296
		c0.072,0.12,0.11,0.266,0.116,0.436c0.011,0.171,0.019,0.357,0.024,0.56c0.005,0.203,0.01,0.411,0.016,0.624
		c0.005,0.267,0.008,0.55,0.008,0.849s0.008,0.576,0.024,0.832c0.005,0.106-0.028,0.188-0.1,0.248
		c-0.072,0.059-0.151,0.088-0.236,0.088c-0.069,0-0.133-0.025-0.192-0.076c-0.059-0.051-0.096-0.116-0.112-0.196
		c-0.106,0.075-0.235,0.134-0.384,0.176c-0.149,0.043-0.283,0.069-0.4,0.08c-0.251,0.017-0.468-0.005-0.652-0.063
		c-0.184-0.059-0.334-0.145-0.452-0.256c-0.118-0.112-0.203-0.248-0.256-0.408S7.397,9.919,7.408,9.727
		c0.016-0.336,0.124-0.611,0.324-0.828c0.2-0.216,0.479-0.361,0.836-0.436c0.106-0.026,0.252-0.053,0.436-0.08
		c0.184-0.026,0.361-0.04,0.532-0.04C9.531,8.268,9.528,8.193,9.528,8.119S9.525,7.991,9.52,7.958
		c-0.011-0.075-0.027-0.141-0.048-0.2C9.451,7.7,9.417,7.65,9.372,7.61c-0.045-0.04-0.105-0.069-0.18-0.088
		C9.118,7.504,9.021,7.495,8.904,7.495z M8.112,9.774c0,0.214,0.06,0.374,0.18,0.48c0.12,0.106,0.278,0.154,0.476,0.144
		c0.107-0.005,0.209-0.023,0.308-0.056s0.186-0.073,0.26-0.124s0.133-0.108,0.176-0.172c0.042-0.064,0.064-0.128,0.064-0.192
		C9.571,9.705,9.567,9.559,9.564,9.415c-0.003-0.145-0.007-0.291-0.012-0.44c-0.112-0.005-0.245,0.001-0.4,0.02
		C8.997,9.014,8.861,9.036,8.744,9.063C8.536,9.105,8.379,9.194,8.272,9.331C8.165,9.467,8.112,9.615,8.112,9.774z"/>
	<path class="st0" d="M11.368,7.199c0-0.102,0.039-0.175,0.116-0.22c0.077-0.045,0.153-0.068,0.228-0.068
		c0.112,0,0.199,0.032,0.26,0.096c0.062,0.064,0.092,0.131,0.092,0.2v0.08c0.139-0.096,0.287-0.176,0.444-0.24
		s0.329-0.099,0.516-0.104c0.288-0.005,0.53,0.1,0.728,0.316c0.197,0.216,0.296,0.519,0.296,0.908v1.369c0,0.219,0,0.428,0,0.628
		c0,0.199-0.003,0.372-0.008,0.516c-0.005,0.106-0.043,0.188-0.112,0.244s-0.149,0.084-0.24,0.084c-0.085,0-0.163-0.026-0.232-0.08
		s-0.109-0.134-0.12-0.24c0-0.139,0-0.274,0-0.408c0-0.133,0.002-0.267,0.008-0.399c0-0.054,0-0.128,0-0.225
		c0-0.096,0.001-0.195,0.004-0.3c0.003-0.104,0.004-0.204,0.004-0.3c0-0.096,0-0.171,0-0.224c0-0.133,0-0.268,0-0.404
		c0-0.136-0.005-0.273-0.016-0.412c-0.011-0.229-0.088-0.368-0.232-0.416C12.96,7.55,12.797,7.575,12.616,7.67
		c-0.091,0.048-0.177,0.102-0.26,0.16c-0.083,0.059-0.178,0.131-0.284,0.216c0,0.421-0.001,0.857-0.004,1.308
		c-0.003,0.451-0.004,0.89-0.004,1.316c-0.005,0.106-0.042,0.187-0.108,0.24c-0.066,0.053-0.145,0.08-0.236,0.08
		s-0.169-0.027-0.236-0.08c-0.067-0.054-0.105-0.134-0.116-0.24V7.199z"/>
	<path class="st0" d="M14.832,9.103c0.005-0.261,0.031-0.524,0.076-0.788s0.128-0.501,0.248-0.712
		c0.12-0.21,0.283-0.383,0.488-0.516c0.206-0.133,0.468-0.2,0.788-0.2c0.106,0,0.213,0.02,0.32,0.059
		c0.107,0.04,0.2,0.088,0.28,0.146c0.021-0.058,0.056-0.109,0.104-0.154c0.048-0.045,0.125-0.067,0.232-0.067
		c0.101,0,0.176,0.031,0.224,0.092c0.048,0.062,0.072,0.135,0.072,0.22c0,0.24-0.001,0.429-0.004,0.568
		c-0.003,0.139-0.004,0.261-0.004,0.368c0,0.075,0,0.188,0,0.34s-0.001,0.327-0.004,0.524c-0.003,0.197-0.004,0.41-0.004,0.637
		s0,0.446,0,0.659c0,0.069,0,0.148,0,0.236s0,0.176,0,0.264c0,0.089-0.001,0.173-0.004,0.252c-0.002,0.08-0.007,0.147-0.012,0.2
		c-0.064,0.758-0.451,1.187-1.16,1.288c-0.096,0.017-0.199,0.021-0.308,0.017c-0.109-0.006-0.217-0.02-0.324-0.04
		c-0.107-0.021-0.207-0.049-0.3-0.08c-0.093-0.032-0.169-0.069-0.228-0.112c-0.075-0.048-0.124-0.117-0.148-0.208
		s-0.001-0.176,0.068-0.256c0.043-0.054,0.099-0.09,0.168-0.108s0.147-0.009,0.232,0.028c0.117,0.048,0.236,0.087,0.356,0.116
		c0.12,0.029,0.225,0.038,0.316,0.027c0.24-0.026,0.407-0.104,0.5-0.235s0.145-0.319,0.156-0.564c0.005-0.063,0.007-0.15,0.004-0.26
		c-0.003-0.109-0.004-0.199-0.004-0.268c-0.213,0.181-0.461,0.276-0.744,0.287c-0.203,0.006-0.39-0.03-0.56-0.107
		c-0.171-0.077-0.317-0.192-0.44-0.344c-0.123-0.152-0.219-0.338-0.288-0.557S14.826,9.386,14.832,9.103z M16.984,8.016
		c0-0.145-0.06-0.262-0.18-0.353c-0.12-0.091-0.25-0.137-0.388-0.137c-0.187,0-0.337,0.054-0.452,0.161
		c-0.115,0.107-0.206,0.239-0.272,0.397c-0.066,0.158-0.112,0.328-0.136,0.509c-0.024,0.182-0.036,0.348-0.036,0.498
		c0.005,0.353,0.073,0.631,0.204,0.834s0.3,0.311,0.508,0.321c0.085,0,0.168-0.013,0.248-0.036c0.08-0.024,0.153-0.057,0.22-0.097
		c0.066-0.04,0.124-0.087,0.172-0.141c0.048-0.053,0.085-0.106,0.112-0.16V8.016z"/>
	<path class="st0" d="M18.663,7.19c0.011-0.106,0.055-0.184,0.133-0.232c0.077-0.048,0.155-0.072,0.235-0.072
		c0.086,0,0.16,0.024,0.225,0.072c0.063,0.048,0.096,0.123,0.096,0.224c0,0.176-0.001,0.348-0.004,0.516
		c-0.003,0.168-0.004,0.332-0.004,0.492v1.32c0.005,0.272,0.048,0.492,0.128,0.66s0.211,0.246,0.392,0.236
		c0.203-0.011,0.382-0.104,0.536-0.276c0.154-0.174,0.253-0.394,0.296-0.66V8.615c0-0.133,0-0.273,0-0.42c0-0.146,0-0.285,0-0.416
		c0-0.13,0.002-0.249,0.004-0.356c0.003-0.106,0.007-0.192,0.013-0.256c0.01-0.091,0.05-0.163,0.119-0.216s0.145-0.08,0.225-0.08
		s0.154,0.024,0.224,0.072c0.069,0.048,0.104,0.115,0.104,0.2c0,0.091-0.002,0.191-0.004,0.3c-0.003,0.109-0.004,0.228-0.004,0.356
		c0,0.091-0.002,0.188-0.005,0.292c-0.002,0.104-0.004,0.209-0.004,0.316c0,0.106,0,0.21,0,0.312c0,0.101,0.003,0.194,0.009,0.28
		c0.005,0.123,0.008,0.25,0.008,0.384s0,0.27,0,0.408c0,0.128,0.001,0.275,0.004,0.443s0.004,0.321,0.004,0.46
		c0,0.102-0.035,0.177-0.104,0.225s-0.144,0.072-0.224,0.072c-0.085,0-0.16-0.021-0.224-0.061c-0.064-0.04-0.097-0.11-0.097-0.212
		v-0.16c-0.106,0.134-0.237,0.243-0.392,0.328s-0.32,0.128-0.496,0.128c-0.203,0-0.379-0.036-0.528-0.107
		c-0.149-0.072-0.273-0.174-0.372-0.305s-0.173-0.285-0.224-0.464s-0.079-0.377-0.084-0.596c0-0.054-0.001-0.119-0.004-0.196
		s-0.004-0.157-0.004-0.24c0-0.082,0-0.165,0-0.248c0-0.083,0-0.156,0-0.22c0-0.24,0-0.483,0-0.728
		C18.64,7.665,18.648,7.425,18.663,7.19z"/>
	<path class="st0" d="M23.76,7.495c-0.139,0-0.284,0.035-0.437,0.104c-0.151,0.069-0.286,0.149-0.403,0.24
		c-0.069,0.059-0.147,0.098-0.232,0.116s-0.163-0.009-0.232-0.084c-0.053-0.059-0.084-0.128-0.092-0.208s0.025-0.168,0.101-0.264
		c0.08-0.101,0.209-0.199,0.388-0.292s0.38-0.167,0.604-0.22c0.059-0.011,0.122-0.021,0.188-0.032s0.132-0.016,0.196-0.016
		c0.144,0,0.285,0.019,0.424,0.056c0.139,0.038,0.265,0.095,0.38,0.172c0.114,0.078,0.208,0.176,0.28,0.296
		c0.071,0.12,0.11,0.266,0.115,0.436c0.011,0.171,0.02,0.357,0.024,0.56s0.011,0.411,0.016,0.624
		c0.006,0.267,0.009,0.55,0.009,0.849s0.008,0.576,0.023,0.832c0.006,0.106-0.027,0.188-0.1,0.248
		c-0.072,0.059-0.151,0.088-0.236,0.088c-0.069,0-0.133-0.025-0.191-0.076c-0.06-0.051-0.097-0.116-0.112-0.196
		c-0.106,0.075-0.235,0.134-0.384,0.176c-0.149,0.043-0.283,0.069-0.4,0.08c-0.251,0.017-0.468-0.005-0.652-0.063
		c-0.184-0.059-0.334-0.145-0.451-0.256c-0.118-0.112-0.203-0.248-0.257-0.408c-0.053-0.16-0.074-0.336-0.063-0.528
		c0.016-0.336,0.124-0.611,0.324-0.828c0.199-0.216,0.479-0.361,0.836-0.436c0.106-0.026,0.252-0.053,0.436-0.08
		c0.185-0.026,0.361-0.04,0.532-0.04c-0.006-0.074-0.008-0.149-0.008-0.224s-0.003-0.128-0.008-0.16
		c-0.011-0.075-0.027-0.141-0.049-0.2c-0.021-0.059-0.055-0.108-0.1-0.148s-0.105-0.069-0.18-0.088
		C23.973,7.504,23.877,7.495,23.76,7.495z M22.968,9.774c0,0.214,0.06,0.374,0.18,0.48s0.278,0.154,0.476,0.144
		c0.107-0.005,0.21-0.023,0.309-0.056s0.186-0.073,0.26-0.124c0.075-0.051,0.134-0.108,0.176-0.172
		c0.043-0.064,0.064-0.128,0.064-0.192c-0.006-0.149-0.01-0.296-0.012-0.439c-0.003-0.145-0.007-0.291-0.013-0.44
		c-0.111-0.005-0.245,0.001-0.399,0.02c-0.155,0.019-0.291,0.042-0.408,0.068c-0.208,0.043-0.365,0.132-0.472,0.269
		C23.021,9.467,22.968,9.615,22.968,9.774z"/>
	<path class="st0" d="M25.951,9.103c0.006-0.261,0.031-0.524,0.076-0.788c0.046-0.264,0.128-0.501,0.248-0.712
		c0.12-0.21,0.283-0.383,0.488-0.516s0.468-0.2,0.788-0.2c0.106,0,0.213,0.02,0.319,0.059c0.107,0.04,0.2,0.088,0.28,0.146
		c0.021-0.058,0.056-0.109,0.104-0.154c0.048-0.045,0.125-0.067,0.231-0.067c0.102,0,0.176,0.031,0.225,0.092
		c0.048,0.062,0.071,0.135,0.071,0.22c0,0.24-0.001,0.429-0.004,0.568s-0.004,0.261-0.004,0.368c0,0.075,0,0.188,0,0.34
		s-0.001,0.327-0.004,0.524s-0.004,0.41-0.004,0.637s0,0.446,0,0.659c0,0.069,0,0.148,0,0.236s0,0.176,0,0.264
		c0,0.089-0.001,0.173-0.004,0.252c-0.003,0.08-0.007,0.147-0.012,0.2c-0.064,0.758-0.451,1.187-1.16,1.288
		c-0.097,0.017-0.199,0.021-0.309,0.017c-0.109-0.006-0.217-0.02-0.323-0.04c-0.107-0.021-0.207-0.049-0.301-0.08
		c-0.093-0.032-0.169-0.069-0.228-0.112c-0.075-0.048-0.124-0.117-0.148-0.208c-0.023-0.091-0.001-0.176,0.068-0.256
		c0.043-0.054,0.099-0.09,0.168-0.108s0.146-0.009,0.232,0.028c0.117,0.048,0.235,0.087,0.355,0.116s0.226,0.038,0.316,0.027
		c0.239-0.026,0.406-0.104,0.5-0.235c0.093-0.131,0.145-0.319,0.155-0.564c0.006-0.063,0.007-0.15,0.005-0.26
		c-0.003-0.109-0.005-0.199-0.005-0.268c-0.213,0.181-0.461,0.276-0.743,0.287c-0.203,0.006-0.39-0.03-0.561-0.107
		s-0.317-0.192-0.439-0.344c-0.123-0.152-0.219-0.338-0.288-0.557S25.947,9.386,25.951,9.103z M28.104,8.016
		c0-0.145-0.06-0.262-0.18-0.353c-0.12-0.091-0.25-0.137-0.389-0.137c-0.187,0-0.337,0.054-0.451,0.161
		c-0.115,0.107-0.206,0.239-0.272,0.397c-0.066,0.158-0.112,0.328-0.136,0.509c-0.024,0.182-0.036,0.348-0.036,0.498
		c0.005,0.353,0.073,0.631,0.204,0.834s0.3,0.311,0.508,0.321c0.085,0,0.168-0.013,0.248-0.036c0.08-0.024,0.153-0.057,0.22-0.097
		s0.124-0.087,0.172-0.141c0.048-0.053,0.086-0.106,0.112-0.16V8.016z"/>
	<path class="st0" d="M29.624,8.862c0.005-0.245,0.038-0.486,0.1-0.724s0.158-0.448,0.292-0.632
		c0.133-0.184,0.303-0.332,0.508-0.444s0.455-0.168,0.748-0.168c0.155,0,0.311,0.033,0.468,0.1c0.157,0.066,0.301,0.168,0.429,0.304
		c0.128,0.136,0.233,0.307,0.319,0.512c0.086,0.206,0.133,0.447,0.145,0.724c0.005,0.117-0.012,0.219-0.053,0.304
		c-0.039,0.085-0.143,0.144-0.308,0.176c-0.074,0.016-0.19,0.029-0.348,0.04c-0.157,0.011-0.329,0.021-0.517,0.032
		c-0.187,0.011-0.374,0.019-0.563,0.023c-0.189,0.006-0.356,0.011-0.5,0.017c0.005,0.144,0.02,0.291,0.044,0.439
		c0.024,0.149,0.07,0.286,0.14,0.408c0.069,0.123,0.168,0.223,0.296,0.3c0.128,0.078,0.299,0.116,0.513,0.116
		c0.133,0,0.263-0.023,0.388-0.072c0.125-0.048,0.241-0.101,0.348-0.159c0.091-0.049,0.174-0.058,0.248-0.028
		s0.133,0.076,0.176,0.14c0.037,0.059,0.053,0.126,0.045,0.2c-0.009,0.074-0.05,0.142-0.125,0.2
		c-0.176,0.128-0.354,0.217-0.535,0.268c-0.182,0.051-0.376,0.076-0.584,0.076c-0.565,0-0.989-0.187-1.272-0.56
		C29.742,10.081,29.608,9.551,29.624,8.862z M31.24,7.55c-0.256-0.01-0.461,0.075-0.615,0.256c-0.155,0.181-0.24,0.413-0.257,0.696
		c0.134,0,0.328-0.001,0.584-0.004c0.257-0.002,0.579-0.025,0.969-0.068C31.91,8.143,31.836,7.926,31.7,7.783
		C31.564,7.639,31.41,7.561,31.24,7.55z"/>
</g>
</svg>
