<?xml version="1.0" encoding="utf-8"?>
<!-- Generator: Adobe Illustrator 21.1.0, SVG Export Plug-In . SVG Version: 6.00 Build 0)  -->
<svg version="1.1" id="레이어_1" xmlns="http://www.w3.org/2000/svg" xmlns:xlink="http://www.w3.org/1999/xlink" x="0px"
	 y="0px" viewBox="0 0 36.417 16" style="enable-background:new 0 0 36.417 16;" xml:space="preserve">
<style type="text/css">
	.st0{fill:#FFFFFF;}
</style>
<g>
	<path class="st0" d="M2.788,9.895C2.757,9.927,2.718,9.955,2.673,9.979c-0.045,0.024-0.092,0.04-0.14,0.048
		c-0.048,0.009-0.096,0.004-0.144-0.012S2.298,9.964,2.261,9.911c-0.059-0.086-0.079-0.167-0.06-0.244s0.055-0.146,0.108-0.204
		c0.299-0.336,0.572-0.685,0.82-1.044c0.248-0.36,0.463-0.74,0.644-1.14H3.164c-0.155,0-0.293,0-0.416,0S2.535,7.276,2.476,7.271
		C2.402,7.265,2.326,7.243,2.248,7.203S2.133,7.081,2.133,6.958c0-0.101,0.036-0.177,0.108-0.228
		C2.312,6.68,2.402,6.654,2.509,6.654c0.064,0,0.156,0,0.276,0S3.036,6.653,3.181,6.65c0.144-0.002,0.291-0.005,0.44-0.008
		C3.77,6.64,3.909,6.639,4.036,6.639c0.133-0.39,0.227-0.773,0.28-1.152c0-0.005,0-0.02,0-0.044S4.292,5.407,4.244,5.407
		c-0.117,0-0.276,0.001-0.476,0.004c-0.2,0.002-0.42,0.007-0.66,0.012c-0.091,0-0.178,0-0.26,0S2.695,5.42,2.637,5.415
		C2.562,5.409,2.485,5.387,2.405,5.347s-0.12-0.116-0.12-0.228c0-0.107,0.036-0.188,0.108-0.244
		c0.072-0.056,0.164-0.084,0.276-0.084c0.405,0,0.76-0.004,1.064-0.012C4.036,4.771,4.338,4.761,4.637,4.75
		c0.112,0,0.197,0.019,0.256,0.056c0.059,0.037,0.103,0.084,0.132,0.14c0.029,0.056,0.044,0.12,0.044,0.192
		c0,0.072-0.003,0.143-0.008,0.212C5.018,5.719,4.942,6.096,4.832,6.482S4.575,7.257,4.389,7.646
		C4.201,8.036,3.976,8.421,3.713,8.803C3.449,9.185,3.14,9.548,2.788,9.895z M6.972,10.814c0-0.496,0-1.037,0-1.624
		c0-0.586-0.003-1.165-0.008-1.736H6.476h-0.2c0,0.341,0,0.683,0,1.024S6.279,9.15,6.285,9.471c0,0.128,0.001,0.266,0.004,0.412
		c0.003,0.146,0.004,0.291,0.004,0.432c0,0.142,0,0.277,0,0.408s0,0.244,0,0.34c0,0.102-0.039,0.181-0.116,0.236
		c-0.078,0.056-0.156,0.084-0.236,0.084c-0.09,0-0.17-0.029-0.24-0.088s-0.104-0.134-0.104-0.225
		c0.005-0.181,0.008-0.361,0.008-0.54c0-0.178,0-0.358,0-0.539c0-0.294,0.001-0.601,0.004-0.921C5.611,8.75,5.61,8.441,5.604,8.143
		c-0.005-0.256-0.009-0.536-0.012-0.84C5.59,6.999,5.589,6.716,5.589,6.455c0-0.288-0.001-0.589-0.004-0.904
		C5.582,5.236,5.586,4.924,5.597,4.615c0.005-0.107,0.042-0.192,0.112-0.256S5.855,4.263,5.94,4.263c0.091,0,0.173,0.033,0.248,0.1
		c0.075,0.067,0.109,0.154,0.104,0.26C6.282,4.777,6.277,5.015,6.277,5.334s0,0.677,0,1.072v0.416h0.208c0.074,0,0.153,0,0.236,0
		c0.083,0,0.164-0.003,0.244-0.008c0-0.506-0.001-0.964-0.004-1.372C6.958,5.035,6.954,4.729,6.949,4.526
		c0-0.101,0.031-0.185,0.092-0.252c0.062-0.066,0.14-0.105,0.236-0.116c0.096-0.011,0.185,0.016,0.268,0.08
		c0.083,0.064,0.119,0.147,0.108,0.248c0.005,0.096,0.005,0.199,0,0.308C7.647,4.904,7.644,4.996,7.644,5.07v1.016
		c0,0.363,0,0.747,0,1.152c0,0.406,0,0.815,0,1.228c0,0.414,0.001,0.819,0.004,1.216c0.003,0.397,0.007,0.767,0.012,1.108v0.104
		c0,0.059,0.001,0.12,0.004,0.185c0.003,0.063-0.001,0.114-0.012,0.151c-0.021,0.106-0.064,0.179-0.128,0.216
		c-0.064,0.038-0.136,0.057-0.216,0.057c-0.096,0-0.177-0.033-0.244-0.101c-0.066-0.066-0.1-0.143-0.1-0.228L6.972,10.814z"/>
	<path class="st0" d="M9.533,5.159c-0.075,0-0.151-0.003-0.228-0.008C9.227,5.145,9.159,5.137,9.1,5.126
		c-0.102-0.021-0.172-0.055-0.212-0.1c-0.04-0.045-0.06-0.121-0.06-0.228c0-0.106,0.042-0.188,0.128-0.244
		c0.085-0.056,0.189-0.076,0.312-0.06C9.306,4.5,9.407,4.504,9.573,4.506c0.165,0.003,0.418,0.004,0.76,0.004
		c0.117,0,0.215,0,0.292,0s0.143-0.001,0.196-0.004c0.054-0.002,0.102-0.006,0.144-0.012c0.043-0.005,0.093-0.011,0.152-0.016
		c0.203-0.011,0.337,0.019,0.404,0.088s0.103,0.192,0.108,0.368c0,0.213,0,0.389,0,0.528s0,0.255,0,0.348s0,0.172,0,0.236
		s0,0.125,0,0.184s0,0.112,0,0.16c0,0.048-0.012,0.089-0.036,0.124c-0.024,0.035-0.063,0.064-0.116,0.088s-0.128,0.039-0.224,0.044
		c-0.123,0.011-0.34,0.018-0.652,0.02c-0.312,0.003-0.66,0.007-1.044,0.012C9.551,6.801,9.548,6.936,9.548,7.083
		c0,0.147,0.003,0.281,0.008,0.404c0,0.043,0.004,0.068,0.012,0.076C9.576,7.57,9.599,7.575,9.637,7.575
		c0.059,0,0.116,0.001,0.172,0.004c0.056,0.002,0.11,0.004,0.164,0.004c0.154,0,0.333-0.005,0.536-0.016
		c0.202-0.011,0.373-0.024,0.512-0.04c0.069-0.005,0.141-0.013,0.216-0.024s0.147-0.021,0.216-0.032s0.13-0.02,0.184-0.028
		c0.053-0.008,0.093-0.015,0.12-0.02c0.139-0.026,0.247-0.009,0.324,0.052c0.077,0.061,0.116,0.137,0.116,0.228
		c0,0.059-0.02,0.116-0.06,0.172s-0.1,0.1-0.18,0.132c-0.043,0.011-0.123,0.029-0.24,0.056c-0.118,0.027-0.251,0.045-0.4,0.056
		C11.06,8.14,10.845,8.157,10.668,8.17c-0.176,0.014-0.334,0.023-0.476,0.028C10.051,8.204,9.92,8.208,9.801,8.21
		c-0.12,0.003-0.247,0.001-0.38-0.004c-0.234-0.011-0.392-0.071-0.472-0.18c-0.08-0.109-0.12-0.241-0.12-0.396V6.935
		c0-0.075,0-0.144,0-0.208S8.826,6.601,8.82,6.542c-0.021-0.347,0.115-0.52,0.408-0.52c0.106,0,0.237,0,0.392,0s0.312,0,0.472,0
		c0.16,0,0.313-0.001,0.46-0.004c0.146-0.002,0.265-0.007,0.356-0.012V5.199c0-0.027-0.005-0.044-0.016-0.052
		s-0.038-0.012-0.08-0.012c-0.107,0.005-0.224,0.01-0.352,0.012c-0.128,0.003-0.252,0.005-0.372,0.008
		c-0.12,0.003-0.23,0.004-0.332,0.004C9.655,5.159,9.58,5.159,9.533,5.159z M9.94,9.591C9.871,9.596,9.812,9.59,9.764,9.571
		S9.679,9.527,9.652,9.496C9.626,9.465,9.606,9.429,9.593,9.39c-0.014-0.04-0.02-0.075-0.02-0.107
		C9.562,9.072,9.671,8.961,9.9,8.951c0.133-0.005,0.317-0.009,0.552-0.012c0.234-0.002,0.486-0.005,0.756-0.008
		c0.27-0.003,0.539-0.004,0.808-0.004c0.269,0,0.505,0,0.708,0h0.336c0.042,0,0.095,0.004,0.156,0.012
		c0.061,0.008,0.118,0.028,0.172,0.059c0.053,0.032,0.097,0.078,0.132,0.138s0.052,0.142,0.052,0.241
		c-0.005,0.105-0.007,0.222-0.004,0.35c0.003,0.128,0.004,0.262,0.004,0.4c0,0.202-0.001,0.41-0.004,0.624
		c-0.002,0.213-0.009,0.399-0.02,0.56c-0.016,0.219-0.136,0.331-0.36,0.336c-0.106,0.006-0.193-0.022-0.26-0.084
		c-0.067-0.062-0.1-0.161-0.1-0.3c0-0.054,0-0.124,0-0.212s0.001-0.18,0.004-0.276c0.002-0.096,0.004-0.19,0.004-0.283
		c0-0.094,0-0.173,0-0.236c0-0.069,0-0.127,0-0.172c0-0.046-0.001-0.09-0.004-0.132c-0.003-0.043-0.005-0.087-0.008-0.133
		c-0.003-0.045-0.004-0.1-0.004-0.164c0-0.021-0.002-0.042-0.008-0.063s-0.037-0.032-0.096-0.032
		c-0.166,0.006-0.346,0.008-0.54,0.008c-0.195,0-0.394,0-0.596,0c-0.293,0-0.583,0.002-0.868,0.004
		C10.427,9.573,10.17,9.58,9.94,9.591z M12.868,4.542c0-0.106,0.04-0.187,0.12-0.24c0.08-0.054,0.165-0.08,0.256-0.08
		c0.08,0,0.155,0.022,0.224,0.068c0.069,0.045,0.112,0.116,0.128,0.212v1.696c0,0.368-0.001,0.708-0.004,1.02
		c-0.003,0.312-0.007,0.63-0.012,0.956c-0.005,0.091-0.038,0.169-0.096,0.236c-0.059,0.066-0.128,0.105-0.208,0.116
		c-0.106,0.011-0.203-0.015-0.288-0.076c-0.085-0.062-0.123-0.164-0.112-0.308c0-0.107,0.001-0.21,0.004-0.312
		c0.003-0.101,0.004-0.197,0.004-0.288c0-0.128,0.001-0.247,0.004-0.356c0.002-0.109,0.004-0.223,0.004-0.34s0-0.247,0-0.388
		c0-0.141,0-0.313,0-0.516c0-0.149,0-0.294,0-0.436c0-0.141-0.003-0.297-0.008-0.468c0-0.069-0.003-0.143-0.008-0.22
		C12.871,4.741,12.868,4.649,12.868,4.542z"/>
	<path class="st0" d="M15.628,8.887c0,0.048,0.024,0.072,0.072,0.072h0.44c0.17,0,0.331-0.004,0.48-0.012
		c0.149-0.008,0.301-0.017,0.456-0.028c0.139-0.011,0.276-0.026,0.412-0.048c0.136-0.021,0.233-0.037,0.292-0.048
		c0.117-0.027,0.214-0.021,0.292,0.016c0.077,0.038,0.126,0.094,0.147,0.168c0.021,0.069,0.016,0.146-0.016,0.228
		c-0.032,0.083-0.099,0.146-0.2,0.188c-0.037,0.011-0.128,0.028-0.272,0.052c-0.144,0.024-0.291,0.042-0.44,0.052
		c-0.32,0.027-0.58,0.044-0.78,0.053c-0.2,0.008-0.37,0.012-0.508,0.012c-0.101,0-0.195-0.001-0.28-0.004
		c-0.085-0.003-0.176-0.007-0.272-0.012c-0.118-0.006-0.212-0.024-0.284-0.057C15.097,9.487,15.04,9.444,15,9.391
		c-0.04-0.053-0.067-0.111-0.08-0.175c-0.013-0.064-0.02-0.134-0.02-0.208c0-0.778,0.003-1.491,0.008-2.141
		c0.005-0.65,0.008-1.233,0.008-1.75c0-0.271,0.128-0.407,0.384-0.407c0.149,0.005,0.325,0.009,0.528,0.012
		c0.203,0.002,0.392,0.004,0.568,0.004c0.192,0,0.379,0,0.56,0s0.341-0.005,0.48-0.016c0.123-0.011,0.213,0.01,0.272,0.063
		s0.096,0.116,0.112,0.19c0.016,0.079,0.003,0.153-0.04,0.221c-0.043,0.069-0.118,0.111-0.224,0.126
		c-0.171,0.026-0.344,0.042-0.52,0.047c-0.176,0.005-0.365,0.008-0.568,0.008c-0.139,0-0.266,0-0.38,0
		c-0.115,0-0.263-0.005-0.444-0.016c0,0.24,0,0.48,0,0.72c0,0.24-0.003,0.48-0.008,0.72h0.36c0.203,0,0.398-0.001,0.588-0.004
		c0.189-0.003,0.348-0.007,0.476-0.012c0.106-0.005,0.195,0.025,0.264,0.092c0.069,0.066,0.104,0.137,0.104,0.212
		c0,0.069-0.019,0.135-0.056,0.196c-0.038,0.062-0.102,0.098-0.192,0.108c-0.171,0.027-0.367,0.042-0.588,0.044
		c-0.222,0.003-0.441,0.004-0.66,0.004h-0.296c0,0.117,0,0.243,0,0.376s-0.001,0.267-0.004,0.4
		c-0.002,0.133-0.004,0.259-0.004,0.376S15.628,8.801,15.628,8.887z M18.093,6.663c0.053,0,0.105,0,0.156,0s0.11,0,0.18,0
		s0.152-0.001,0.248-0.004c0.096-0.003,0.213-0.004,0.352-0.004V4.568c0-0.112,0.032-0.198,0.097-0.257
		c0.063-0.059,0.149-0.088,0.256-0.088c0.102,0,0.182,0.029,0.24,0.088s0.088,0.133,0.088,0.224c0,0.048,0,0.125,0,0.232
		c0,0.106-0.002,0.223-0.004,0.348c-0.003,0.125-0.004,0.252-0.004,0.38s0,0.24,0,0.336c0,0.107,0,0.201,0,0.284
		c0,0.083,0,0.165,0,0.248c0,0.083,0.001,0.172,0.004,0.268c0.002,0.096,0.004,0.211,0.004,0.344
		c0.005,0.432,0.009,0.877,0.012,1.336s0.004,0.896,0.004,1.313c0,0.133,0,0.268,0,0.403c0,0.137-0.001,0.271-0.004,0.404
		c-0.003,0.134-0.005,0.259-0.008,0.376s-0.004,0.224-0.004,0.32c-0.006,0.106-0.043,0.188-0.112,0.244
		c-0.069,0.056-0.142,0.084-0.216,0.084c-0.106,0-0.192-0.035-0.256-0.104c-0.064-0.069-0.097-0.144-0.097-0.224
		c0.006-0.187,0.01-0.411,0.013-0.672c0.002-0.262,0.004-0.518,0.004-0.769c0-0.176-0.002-0.354-0.004-0.536
		c-0.003-0.181-0.004-0.365-0.004-0.552c0-0.24-0.002-0.459-0.004-0.656c-0.003-0.197-0.005-0.413-0.005-0.648
		c-0.042-0.005-0.104-0.008-0.184-0.008s-0.167,0-0.26,0c-0.094,0-0.187,0.001-0.28,0.004C18.21,7.293,18.13,7.294,18.06,7.294
		c-0.091,0-0.167-0.029-0.228-0.087c-0.062-0.058-0.092-0.137-0.092-0.237c0-0.105,0.036-0.184,0.108-0.237
		C17.92,6.681,18.002,6.657,18.093,6.663z"/>
	<path class="st0" d="M24.26,4.918c0.331-0.005,0.601,0.049,0.809,0.164s0.371,0.27,0.491,0.464c0.12,0.195,0.201,0.423,0.244,0.684
		s0.064,0.536,0.064,0.824c0,0.288-0.021,0.571-0.064,0.848c-0.043,0.277-0.121,0.525-0.235,0.744
		c-0.115,0.219-0.276,0.396-0.484,0.528c-0.208,0.134-0.475,0.2-0.8,0.2c-0.347,0-0.622-0.075-0.824-0.225
		c-0.203-0.148-0.358-0.338-0.468-0.568s-0.181-0.48-0.212-0.752c-0.032-0.272-0.048-0.531-0.048-0.776
		c0-0.251,0.022-0.503,0.067-0.756c0.045-0.253,0.127-0.481,0.244-0.684s0.274-0.368,0.472-0.496S23.961,4.924,24.26,4.918z
		 M24.26,5.542c-0.176,0.016-0.317,0.076-0.424,0.18s-0.188,0.23-0.244,0.38s-0.093,0.31-0.112,0.48
		c-0.019,0.171-0.027,0.328-0.027,0.472c0,0.17,0.007,0.356,0.02,0.556c0.014,0.2,0.048,0.384,0.104,0.552
		c0.056,0.168,0.139,0.308,0.248,0.42s0.263,0.168,0.46,0.168c0.208,0,0.369-0.063,0.483-0.188c0.115-0.125,0.2-0.276,0.257-0.452
		c0.056-0.176,0.09-0.361,0.104-0.556c0.014-0.195,0.02-0.361,0.02-0.5c0-0.528-0.067-0.919-0.203-1.172
		C24.808,5.629,24.58,5.516,24.26,5.542z M26.972,11.127c0-0.272,0.002-0.522,0.004-0.752c0.003-0.229,0.006-0.445,0.009-0.648
		c0.002-0.202,0.005-0.396,0.008-0.58c0.002-0.184,0.004-0.369,0.004-0.556c0-0.144,0-0.322,0-0.536s-0.002-0.432-0.004-0.656
		c-0.003-0.224-0.004-0.437-0.004-0.64c0-0.203,0-0.365,0-0.488c0-0.378-0.003-0.715-0.009-1.008
		c-0.005-0.293-0.013-0.528-0.023-0.704c0-0.123,0.029-0.216,0.088-0.28s0.133-0.101,0.224-0.112
		c0.091-0.005,0.182,0.025,0.272,0.092c0.091,0.067,0.136,0.151,0.136,0.252v1.208c0,0.24-0.001,0.492-0.004,0.756
		c-0.003,0.264-0.004,0.54-0.004,0.828c-0.006,0.272-0.007,0.545-0.004,0.82s0.004,0.556,0.004,0.844
		c0,0.182-0.001,0.374-0.004,0.577c-0.003,0.202-0.004,0.403-0.004,0.604s0.001,0.391,0.004,0.572s0.007,0.336,0.012,0.464
		c0.006,0.096-0.032,0.169-0.112,0.22c-0.079,0.051-0.157,0.076-0.231,0.076c-0.102,0-0.187-0.029-0.256-0.088
		S26.972,11.244,26.972,11.127z"/>
	<path class="st0" d="M34.06,7.887c0.102,0,0.183,0.028,0.244,0.085s0.092,0.142,0.092,0.255c0,0.103-0.023,0.173-0.072,0.211
		c-0.048,0.038-0.109,0.067-0.184,0.089c-0.026,0.011-0.089,0.018-0.188,0.02c-0.1,0.003-0.202,0.004-0.309,0.004H33.22
		c-0.075,0-0.157-0.001-0.248-0.004c-0.091-0.002-0.201-0.004-0.332-0.004s-0.29,0-0.479,0c-0.189,0-0.42,0-0.692,0
		c-0.271,0-0.592,0-0.96,0s-0.8,0-1.296,0c-0.043,0-0.109,0-0.2,0s-0.154-0.002-0.191-0.008c-0.091-0.011-0.166-0.044-0.225-0.101
		c-0.059-0.057-0.088-0.136-0.088-0.239c0-0.092,0.035-0.167,0.104-0.227c0.069-0.06,0.146-0.086,0.231-0.081
		c0.112,0.005,0.232,0.011,0.36,0.016c0.128,0.005,0.31,0.008,0.544,0.008c0.091,0,0.179,0.001,0.264,0.004
		c0.086,0.003,0.195,0.004,0.328,0.004c0.134,0,0.304,0.001,0.512,0.004c0.208,0.003,0.48,0.004,0.816,0.004
		c0.304,0,0.623-0.001,0.956-0.004c0.333-0.002,0.668-0.009,1.004-0.02c0.042,0,0.089-0.001,0.14-0.004
		c0.051-0.002,0.098-0.004,0.14-0.004C33.961,7.895,34.012,7.892,34.06,7.887z M33.46,11.079c-0.006,0.139-0.046,0.239-0.12,0.304
		c-0.075,0.063-0.174,0.099-0.296,0.104c-0.331,0.017-0.604,0.027-0.82,0.032c-0.216,0.006-0.424,0.011-0.624,0.017
		c-0.199,0.005-0.412,0.008-0.636,0.008s-0.51,0-0.855,0c-0.235,0-0.407-0.042-0.517-0.124c-0.109-0.083-0.164-0.236-0.164-0.46
		c0-0.134,0.001-0.265,0.004-0.393s0.004-0.253,0.004-0.376V9.503c0-0.134,0.043-0.22,0.128-0.26
		c0.086-0.04,0.185-0.061,0.297-0.061h1.487c0.272,0,0.558-0.001,0.856-0.004c0.298-0.003,0.584-0.009,0.855-0.02
		c0.106-0.006,0.204,0.025,0.292,0.092s0.129,0.169,0.124,0.308v0.568c0,0.154-0.001,0.319-0.004,0.496
		C33.469,10.799,33.465,10.951,33.46,11.079z M29.909,4.958c-0.117-0.011-0.21-0.045-0.276-0.104s-0.1-0.128-0.1-0.208
		c0-0.091,0.029-0.168,0.088-0.232s0.144-0.093,0.256-0.088c0.208,0.011,0.43,0.015,0.664,0.012
		c0.234-0.002,0.456-0.004,0.664-0.004c0.181,0,0.357,0,0.528,0c0.17,0,0.325-0.001,0.464-0.004
		c0.139-0.002,0.258-0.007,0.359-0.012c0.102-0.005,0.179-0.01,0.232-0.016c0.101-0.005,0.185-0.001,0.252,0.012
		c0.066,0.014,0.118,0.039,0.155,0.076c0.038,0.037,0.063,0.085,0.076,0.144c0.014,0.059,0.022,0.133,0.028,0.224v1
		c0,0.059-0.002,0.112-0.004,0.16c-0.003,0.048-0.017,0.088-0.04,0.12c-0.024,0.032-0.062,0.057-0.112,0.076
		c-0.051,0.019-0.124,0.03-0.22,0.036c-0.037,0-0.112,0.001-0.225,0.004C32.588,6.157,32.454,6.16,32.3,6.163
		c-0.154,0.002-0.325,0.004-0.512,0.004s-0.373,0-0.561,0c-0.202,0-0.38,0.001-0.531,0.004c-0.152,0.003-0.298,0.004-0.437,0.004
		v0.464c0,0.042,0.006,0.068,0.017,0.076c0.01,0.008,0.037,0.015,0.079,0.02C30.5,6.745,30.671,6.75,30.868,6.75s0.397,0,0.6,0
		c0.225,0,0.437,0,0.636,0c0.2,0,0.358-0.005,0.477-0.016c0.074-0.005,0.143-0.009,0.204-0.012c0.061-0.003,0.112-0.007,0.155-0.012
		c0.037-0.005,0.072-0.009,0.104-0.012c0.032-0.003,0.061-0.004,0.088-0.004c0.133-0.005,0.23,0.027,0.292,0.096
		s0.092,0.144,0.092,0.224c0,0.075-0.026,0.14-0.08,0.196s-0.12,0.089-0.2,0.1c-0.122,0.016-0.261,0.028-0.416,0.036
		c-0.154,0.008-0.312,0.015-0.472,0.02s-0.317,0.009-0.472,0.012c-0.155,0.003-0.293,0.004-0.416,0.004
		c-0.293,0-0.562-0.004-0.804-0.012c-0.243-0.008-0.437-0.015-0.58-0.02c-0.235-0.011-0.383-0.064-0.444-0.16
		c-0.062-0.096-0.092-0.221-0.092-0.376l0.008-0.856c0-0.181,0.029-0.296,0.088-0.344c0.059-0.048,0.168-0.072,0.328-0.072
		c0.149,0,0.331,0.003,0.544,0.008c0.213,0.005,0.456,0.003,0.729-0.008c0.148-0.005,0.294-0.008,0.436-0.008
		s0.272-0.001,0.392-0.004c0.12-0.002,0.226-0.004,0.316-0.004s0.16-0.002,0.208-0.008V5.046c0-0.042-0.004-0.069-0.012-0.08
		c-0.009-0.01-0.039-0.019-0.093-0.024c-0.144,0.005-0.304,0.009-0.479,0.012c-0.176,0.002-0.347,0.005-0.512,0.008
		c-0.166,0.003-0.315,0.004-0.448,0.004c-0.134,0-0.224,0-0.272,0c-0.042,0-0.106,0-0.191,0c-0.086,0-0.175,0-0.269,0
		c-0.093,0-0.179-0.001-0.256-0.004C29.979,4.96,29.929,4.958,29.909,4.958z M30.18,10.783c0,0.048,0.008,0.078,0.024,0.092
		c0.016,0.013,0.048,0.02,0.096,0.02c0.171,0,0.356,0.002,0.556,0.004c0.2,0.003,0.378,0.004,0.532,0.004
		c0.24,0,0.462-0.004,0.664-0.012c0.203-0.008,0.435-0.02,0.696-0.036V9.934c0-0.047-0.007-0.073-0.021-0.079
		c-0.014-0.005-0.041-0.013-0.084-0.023c-0.154,0.005-0.345,0.008-0.571,0.008c-0.228,0-0.447,0-0.66,0
		c-0.262,0-0.493,0.001-0.696,0.004c-0.202,0.003-0.379,0.004-0.528,0.004c0,0.09-0.001,0.171-0.004,0.242
		C30.182,10.16,30.18,10.23,30.18,10.3c0,0.068,0,0.141,0,0.218S30.18,10.683,30.18,10.783z"/>
</g>
</svg>
