<?xml version="1.0" encoding="utf-8"?>
<!-- Generator: Adobe Illustrator 21.1.0, SVG Export Plug-In . SVG Version: 6.00 Build 0)  -->
<svg version="1.1" id="레이어_1" xmlns="http://www.w3.org/2000/svg" xmlns:xlink="http://www.w3.org/1999/xlink" x="0px"
	 y="0px" viewBox="0 0 36.417 16" style="enable-background:new 0 0 36.417 16;" xml:space="preserve">
<style type="text/css">
	.st0{fill:#FFFFFF;}
</style>
<g>
	<path class="st0" d="M9.996,4.878c-0.005-0.117,0.02-0.207,0.076-0.268c0.056-0.061,0.129-0.092,0.22-0.092
		c0.059,0,0.117,0.016,0.176,0.048c0.059,0.032,0.104,0.078,0.136,0.136c0.069,0.128,0.136,0.25,0.2,0.368
		c0.064,0.118,0.125,0.238,0.184,0.36c0.336,0.629,0.663,1.253,0.98,1.872s0.625,1.245,0.924,1.88v-3.16c0-0.25,0-0.475,0-0.672
		s-0.003-0.363-0.008-0.496c0.011-0.112,0.049-0.2,0.116-0.264c0.066-0.064,0.145-0.096,0.236-0.096
		c0.085,0,0.171,0.031,0.256,0.092c0.085,0.062,0.128,0.159,0.128,0.292c0,0.048-0.001,0.12-0.004,0.216
		c-0.002,0.096-0.004,0.196-0.004,0.3s-0.001,0.203-0.004,0.296c-0.003,0.093-0.004,0.162-0.004,0.204v1.888
		c0,0.368,0.001,0.773,0.004,1.216c0.002,0.443,0.004,0.931,0.004,1.464c0,0.063-0.004,0.127-0.012,0.188
		c-0.008,0.062-0.023,0.119-0.044,0.173c-0.021,0.053-0.054,0.096-0.096,0.128c-0.043,0.031-0.099,0.048-0.168,0.048
		c-0.091,0-0.168-0.029-0.232-0.088c-0.064-0.06-0.12-0.142-0.168-0.248c-0.091-0.188-0.189-0.391-0.296-0.612
		c-0.106-0.222-0.216-0.444-0.328-0.668c-0.107-0.213-0.216-0.43-0.328-0.648c-0.112-0.218-0.229-0.442-0.352-0.672
		c-0.155-0.304-0.304-0.584-0.448-0.84c-0.144-0.256-0.28-0.536-0.408-0.84c0.005,0.112,0.011,0.238,0.016,0.376
		c0.005,0.139,0.011,0.277,0.016,0.416c0.005,0.139,0.01,0.272,0.016,0.4c0.005,0.128,0.008,0.24,0.008,0.336
		c0.01,0.288,0.02,0.545,0.028,0.772s0.015,0.443,0.02,0.648s0.011,0.412,0.016,0.62c0.005,0.208,0.008,0.439,0.008,0.695
		c0,0.123-0.042,0.214-0.124,0.272s-0.169,0.088-0.26,0.088c-0.091,0-0.171-0.031-0.24-0.092c-0.069-0.062-0.104-0.151-0.104-0.269
		V9.839c-0.005-0.331-0.008-0.68-0.008-1.048c0-0.368-0.014-0.76-0.04-1.176c-0.016-0.459-0.028-0.911-0.036-1.356
		C10.04,5.813,10.023,5.353,9.996,4.878z"/>
	<path class="st0" d="M16.084,7.495c-0.139,0-0.284,0.035-0.436,0.104s-0.287,0.149-0.404,0.24
		c-0.069,0.059-0.147,0.098-0.232,0.116c-0.085,0.019-0.163-0.009-0.232-0.084c-0.053-0.059-0.084-0.128-0.092-0.208
		s0.025-0.168,0.1-0.264c0.08-0.101,0.209-0.199,0.388-0.292s0.38-0.167,0.604-0.22c0.059-0.011,0.122-0.021,0.188-0.032
		c0.067-0.011,0.132-0.016,0.196-0.016c0.144,0,0.285,0.019,0.424,0.056c0.139,0.038,0.265,0.095,0.38,0.172
		c0.115,0.078,0.208,0.176,0.28,0.296c0.072,0.12,0.11,0.266,0.116,0.436c0.011,0.171,0.019,0.357,0.024,0.56
		c0.005,0.203,0.01,0.411,0.016,0.624c0.005,0.267,0.008,0.55,0.008,0.849s0.008,0.576,0.024,0.832
		c0.005,0.106-0.028,0.188-0.1,0.248c-0.072,0.059-0.151,0.088-0.236,0.088c-0.069,0-0.133-0.025-0.192-0.076
		c-0.059-0.051-0.096-0.116-0.112-0.196c-0.106,0.075-0.235,0.134-0.384,0.176c-0.149,0.043-0.283,0.069-0.4,0.08
		c-0.251,0.017-0.468-0.005-0.652-0.063s-0.334-0.145-0.452-0.256c-0.118-0.112-0.203-0.248-0.256-0.408s-0.075-0.336-0.064-0.528
		c0.016-0.336,0.124-0.611,0.324-0.828c0.2-0.216,0.479-0.361,0.836-0.436c0.106-0.026,0.252-0.053,0.436-0.08
		c0.184-0.026,0.361-0.04,0.532-0.04c-0.005-0.074-0.008-0.149-0.008-0.224s-0.003-0.128-0.008-0.16
		c-0.011-0.075-0.027-0.141-0.048-0.2c-0.021-0.059-0.055-0.108-0.1-0.148c-0.045-0.04-0.105-0.069-0.18-0.088
		C16.298,7.504,16.201,7.495,16.084,7.495z M15.292,9.774c0,0.214,0.06,0.374,0.18,0.48c0.12,0.106,0.278,0.154,0.476,0.144
		c0.107-0.005,0.209-0.023,0.308-0.056s0.186-0.073,0.26-0.124s0.133-0.108,0.176-0.172c0.042-0.064,0.064-0.128,0.064-0.192
		c-0.005-0.149-0.009-0.296-0.012-0.439c-0.003-0.145-0.007-0.291-0.012-0.44c-0.112-0.005-0.245,0.001-0.4,0.02
		c-0.155,0.019-0.291,0.042-0.408,0.068c-0.208,0.043-0.365,0.132-0.472,0.269C15.346,9.467,15.292,9.615,15.292,9.774z"/>
	<path class="st0" d="M22.004,7.999C21.993,7.865,21.958,7.763,21.9,7.69c-0.059-0.072-0.133-0.105-0.224-0.1
		C21.537,7.596,21.412,7.64,21.3,7.723c-0.112,0.083-0.216,0.175-0.313,0.276c0,0.048,0.002,0.1,0.005,0.156
		c0.002,0.056,0.004,0.131,0.004,0.224s0,0.213,0,0.36c0,0.147,0,0.332,0,0.557c0,0.208,0.001,0.438,0.004,0.688
		c0.002,0.251,0.004,0.485,0.004,0.704c0,0.106-0.039,0.188-0.116,0.244s-0.161,0.084-0.252,0.084c-0.085,0-0.161-0.026-0.228-0.08
		c-0.067-0.053-0.105-0.133-0.116-0.24c0.011-0.181,0.017-0.389,0.02-0.624c0.003-0.234,0.004-0.455,0.004-0.663
		c0-0.235-0.001-0.47-0.004-0.705s-0.009-0.459-0.02-0.672c-0.011-0.133-0.055-0.236-0.132-0.308
		C20.082,7.65,19.998,7.62,19.909,7.63c-0.145,0.011-0.271,0.054-0.381,0.128c-0.109,0.075-0.209,0.174-0.3,0.296
		c0,0.416-0.001,0.853-0.004,1.313c-0.003,0.458-0.004,0.898-0.004,1.319c0,0.106-0.039,0.188-0.116,0.244s-0.158,0.084-0.244,0.084
		c-0.074,0-0.149-0.026-0.224-0.08c-0.075-0.053-0.112-0.133-0.112-0.24V7.23c0.021-0.101,0.064-0.176,0.128-0.224
		c0.064-0.048,0.134-0.072,0.208-0.072c0.075,0,0.153,0.019,0.236,0.056c0.083,0.037,0.124,0.125,0.124,0.264
		c0.106-0.085,0.224-0.156,0.352-0.212c0.129-0.056,0.248-0.086,0.36-0.092c0.187,0,0.353,0.032,0.496,0.096s0.27,0.171,0.376,0.32
		c0.117-0.123,0.249-0.223,0.396-0.3c0.146-0.077,0.311-0.119,0.491-0.124c0.177,0,0.327,0.028,0.452,0.084
		c0.125,0.056,0.23,0.132,0.316,0.228c0.085,0.096,0.149,0.206,0.191,0.328c0.043,0.123,0.067,0.248,0.072,0.376
		c0.005,0.123,0.01,0.251,0.012,0.384c0.003,0.134,0.004,0.27,0.004,0.408s-0.001,0.28-0.004,0.424
		c-0.002,0.144-0.004,0.285-0.004,0.424c0,0.182-0.001,0.364-0.004,0.548c-0.003,0.185-0.001,0.361,0.004,0.532
		c0.006,0.117-0.027,0.203-0.1,0.256c-0.072,0.054-0.153,0.08-0.244,0.08s-0.173-0.022-0.248-0.068
		c-0.074-0.045-0.114-0.118-0.12-0.22V9.615c0-0.112,0.001-0.226,0.004-0.341c0.003-0.114,0.004-0.228,0.004-0.34
		c0-0.144-0.001-0.291-0.004-0.44S22.015,8.18,22.004,7.999z"/>
	<path class="st0" d="M23.62,8.862c0.005-0.245,0.038-0.486,0.1-0.724s0.158-0.448,0.292-0.632c0.133-0.184,0.303-0.332,0.508-0.444
		s0.455-0.168,0.748-0.168c0.155,0,0.311,0.033,0.468,0.1c0.157,0.066,0.301,0.168,0.429,0.304c0.128,0.136,0.234,0.307,0.319,0.512
		c0.086,0.206,0.134,0.447,0.145,0.724c0.005,0.117-0.012,0.219-0.052,0.304c-0.04,0.085-0.144,0.144-0.309,0.176
		c-0.074,0.016-0.19,0.029-0.348,0.04s-0.329,0.021-0.517,0.032C25.217,9.098,25.03,9.105,24.84,9.11
		c-0.189,0.006-0.356,0.011-0.5,0.017c0.005,0.144,0.02,0.291,0.044,0.439c0.024,0.149,0.07,0.286,0.14,0.408
		c0.069,0.123,0.168,0.223,0.296,0.3c0.128,0.078,0.299,0.116,0.513,0.116c0.133,0,0.263-0.023,0.388-0.072
		c0.125-0.048,0.241-0.101,0.348-0.159c0.091-0.049,0.174-0.058,0.248-0.028c0.075,0.029,0.134,0.076,0.177,0.14
		c0.037,0.059,0.052,0.126,0.044,0.2c-0.009,0.074-0.05,0.142-0.124,0.2c-0.177,0.128-0.355,0.217-0.536,0.268
		c-0.182,0.051-0.376,0.076-0.584,0.076c-0.565,0-0.989-0.187-1.272-0.56C23.738,10.081,23.604,9.551,23.62,8.862z M25.236,7.55
		c-0.256-0.01-0.461,0.075-0.615,0.256c-0.155,0.181-0.24,0.413-0.257,0.696c0.134,0,0.328-0.001,0.584-0.004
		c0.257-0.002,0.579-0.025,0.969-0.068c-0.011-0.288-0.084-0.504-0.221-0.648C25.56,7.639,25.407,7.561,25.236,7.55z"/>
</g>
</svg>
