<?xml version="1.0" encoding="utf-8"?>
<!-- Generator: Adobe Illustrator 21.1.0, SVG Export Plug-In . SVG Version: 6.00 Build 0)  -->
<svg version="1.1" id="레이어_1" xmlns="http://www.w3.org/2000/svg" xmlns:xlink="http://www.w3.org/1999/xlink" x="0px"
	 y="0px" viewBox="0 0 36.417 16" style="enable-background:new 0 0 36.417 16;" xml:space="preserve">
<style type="text/css">
	.st0{fill:#FFFFFF;}
</style>
<g>
	<path class="st0" d="M3.348,4.595C3.445,4.57,3.556,4.561,3.684,4.566c0.443,0.021,0.834,0.098,1.176,0.228
		c0.341,0.131,0.628,0.323,0.86,0.576s0.407,0.571,0.524,0.952S6.418,7.153,6.412,7.67c-0.011,1.035-0.233,1.826-0.668,2.373
		s-1.058,0.825-1.868,0.836c-0.181,0.005-0.32-0.017-0.416-0.064c-0.096-0.048-0.152-0.168-0.168-0.359
		c-0.011-0.219-0.019-0.492-0.024-0.82S3.258,8.985,3.252,8.67c0-0.154,0-0.307,0-0.456c0-0.149-0.002-0.301-0.008-0.456
		L3.221,6.606c-0.005-0.25-0.012-0.497-0.02-0.74C3.192,5.624,3.188,5.375,3.188,5.119V4.862C3.199,4.708,3.252,4.619,3.348,4.595z
		 M3.949,7.73c0.005,0.41,0.011,0.827,0.016,1.25c0.005,0.424,0.013,0.84,0.024,1.25c0.026,0.006,0.049,0.008,0.068,0.008
		s0.039,0,0.06,0c0.234,0,0.449-0.07,0.644-0.211c0.194-0.142,0.361-0.332,0.5-0.571s0.247-0.517,0.324-0.831
		c0.077-0.314,0.116-0.644,0.116-0.99S5.659,6.966,5.576,6.668C5.493,6.37,5.375,6.112,5.221,5.894
		C5.066,5.675,4.876,5.507,4.653,5.39C4.429,5.273,4.178,5.22,3.9,5.23c0,0.277,0.003,0.551,0.008,0.823s0.013,0.546,0.024,0.823
		C3.938,7.014,3.94,7.155,3.94,7.299C3.94,7.443,3.943,7.587,3.949,7.73z"/>
	<path class="st0" d="M8.604,7.495c-0.139,0-0.284,0.035-0.436,0.104s-0.287,0.149-0.404,0.24C7.695,7.897,7.618,7.936,7.533,7.955
		C7.447,7.973,7.369,7.945,7.3,7.871C7.247,7.812,7.216,7.743,7.208,7.663s0.025-0.168,0.1-0.264C7.389,7.297,7.517,7.2,7.696,7.106
		S8.076,6.94,8.3,6.887c0.059-0.011,0.122-0.021,0.188-0.032C8.555,6.844,8.62,6.838,8.684,6.838c0.144,0,0.285,0.019,0.424,0.056
		c0.139,0.038,0.265,0.095,0.38,0.172c0.115,0.078,0.208,0.176,0.28,0.296c0.072,0.12,0.11,0.266,0.116,0.436
		c0.011,0.171,0.019,0.357,0.024,0.56c0.005,0.203,0.01,0.411,0.016,0.624c0.005,0.267,0.008,0.55,0.008,0.849
		s0.008,0.576,0.024,0.832c0.005,0.106-0.028,0.188-0.1,0.248c-0.072,0.059-0.151,0.088-0.236,0.088
		c-0.069,0-0.133-0.025-0.192-0.076c-0.059-0.051-0.096-0.116-0.112-0.196c-0.106,0.075-0.235,0.134-0.384,0.176
		c-0.149,0.043-0.283,0.069-0.4,0.08c-0.251,0.017-0.468-0.005-0.652-0.063c-0.184-0.059-0.334-0.145-0.452-0.256
		c-0.118-0.112-0.203-0.248-0.256-0.408S7.097,9.919,7.108,9.727c0.016-0.336,0.124-0.611,0.324-0.828
		c0.2-0.216,0.479-0.361,0.836-0.436c0.106-0.026,0.252-0.053,0.436-0.08c0.184-0.026,0.361-0.04,0.532-0.04
		C9.231,8.268,9.228,8.193,9.228,8.119s-0.003-0.128-0.008-0.16c-0.011-0.075-0.027-0.141-0.048-0.2
		C9.151,7.7,9.118,7.65,9.072,7.61c-0.045-0.04-0.105-0.069-0.18-0.088C8.818,7.504,8.722,7.495,8.604,7.495z M7.812,9.774
		c0,0.214,0.06,0.374,0.18,0.48c0.12,0.106,0.278,0.154,0.476,0.144c0.107-0.005,0.209-0.023,0.308-0.056s0.186-0.073,0.26-0.124
		s0.133-0.108,0.176-0.172c0.042-0.064,0.064-0.128,0.064-0.192C9.271,9.705,9.267,9.559,9.264,9.415
		c-0.003-0.145-0.007-0.291-0.012-0.44c-0.112-0.005-0.245,0.001-0.4,0.02C8.698,9.014,8.561,9.036,8.444,9.063
		C8.236,9.105,8.079,9.194,7.972,9.331C7.866,9.467,7.812,9.615,7.812,9.774z"/>
	<path class="st0" d="M10.585,7.179c-0.056-0.062-0.084-0.129-0.084-0.204s0.029-0.146,0.088-0.212c0.059-0.067,0.146-0.1,0.264-0.1
		h0.48V5.238c0-0.096,0.039-0.172,0.116-0.228c0.077-0.056,0.156-0.084,0.236-0.084c0.08,0,0.161,0.027,0.244,0.08
		c0.083,0.054,0.124,0.133,0.124,0.24v1.4c0.128-0.005,0.25-0.007,0.368-0.004c0.117,0.002,0.25,0.004,0.4,0.004
		c0.101,0,0.175,0.036,0.22,0.108c0.045,0.072,0.068,0.14,0.068,0.204c0,0.069-0.025,0.137-0.076,0.204s-0.126,0.1-0.228,0.1
		c-0.123,0-0.244,0.001-0.364,0.004c-0.12,0.002-0.25,0.007-0.388,0.012c0,0.139-0.001,0.256-0.004,0.352
		c-0.003,0.096-0.004,0.189-0.004,0.28s0,0.187,0,0.288c0,0.101,0,0.224,0,0.368c0,0.251,0.001,0.528,0.004,0.832
		c0.002,0.305,0.009,0.584,0.02,0.84c0.005,0.118,0.059,0.174,0.16,0.169c0.08,0,0.165-0.007,0.256-0.021s0.17-0.028,0.24-0.044
		c0.155-0.037,0.264-0.024,0.328,0.04c0.064,0.063,0.096,0.146,0.096,0.248c0,0.059-0.018,0.113-0.052,0.164
		s-0.095,0.095-0.18,0.132c-0.139,0.054-0.273,0.085-0.404,0.096s-0.252,0.019-0.364,0.024c-0.251,0.011-0.444-0.048-0.58-0.176
		c-0.136-0.128-0.209-0.32-0.22-0.576c-0.005-0.128-0.009-0.266-0.012-0.412c-0.003-0.146-0.005-0.296-0.008-0.448
		c-0.002-0.151-0.004-0.3-0.004-0.444s0-0.28,0-0.408c0-0.106-0.001-0.201-0.004-0.284c-0.003-0.083-0.004-0.161-0.004-0.236
		c0-0.064,0-0.123,0-0.176s0-0.108,0-0.164c0-0.056,0.001-0.119,0.004-0.188c0.002-0.069,0.004-0.152,0.004-0.248h-0.488
		C10.724,7.276,10.64,7.24,10.585,7.179z"/>
	<path class="st0" d="M15.357,7.495c-0.139,0-0.284,0.035-0.436,0.104s-0.287,0.149-0.404,0.24
		c-0.069,0.059-0.147,0.098-0.232,0.116c-0.085,0.019-0.163-0.009-0.232-0.084c-0.053-0.059-0.084-0.128-0.092-0.208
		s0.025-0.168,0.1-0.264c0.08-0.101,0.209-0.199,0.388-0.292s0.38-0.167,0.604-0.22c0.059-0.011,0.122-0.021,0.188-0.032
		c0.067-0.011,0.132-0.016,0.196-0.016c0.144,0,0.285,0.019,0.424,0.056c0.139,0.038,0.265,0.095,0.38,0.172
		c0.115,0.078,0.208,0.176,0.28,0.296c0.072,0.12,0.11,0.266,0.116,0.436c0.011,0.171,0.019,0.357,0.024,0.56
		c0.005,0.203,0.01,0.411,0.016,0.624c0.005,0.267,0.008,0.55,0.008,0.849s0.008,0.576,0.024,0.832
		c0.005,0.106-0.028,0.188-0.1,0.248c-0.072,0.059-0.151,0.088-0.236,0.088c-0.069,0-0.133-0.025-0.192-0.076
		c-0.059-0.051-0.096-0.116-0.112-0.196c-0.106,0.075-0.235,0.134-0.384,0.176c-0.149,0.043-0.283,0.069-0.4,0.08
		c-0.251,0.017-0.468-0.005-0.652-0.063s-0.334-0.145-0.452-0.256c-0.118-0.112-0.203-0.248-0.256-0.408s-0.075-0.336-0.064-0.528
		c0.016-0.336,0.124-0.611,0.324-0.828c0.2-0.216,0.479-0.361,0.836-0.436c0.106-0.026,0.252-0.053,0.436-0.08
		c0.184-0.026,0.361-0.04,0.532-0.04c-0.005-0.074-0.008-0.149-0.008-0.224s-0.003-0.128-0.008-0.16
		c-0.011-0.075-0.027-0.141-0.048-0.2C15.903,7.7,15.87,7.65,15.825,7.61c-0.045-0.04-0.105-0.069-0.18-0.088
		C15.57,7.504,15.474,7.495,15.357,7.495z M14.565,9.774c0,0.214,0.06,0.374,0.18,0.48c0.12,0.106,0.278,0.154,0.476,0.144
		c0.107-0.005,0.209-0.023,0.308-0.056s0.186-0.073,0.26-0.124s0.133-0.108,0.176-0.172c0.042-0.064,0.064-0.128,0.064-0.192
		c-0.005-0.149-0.009-0.296-0.012-0.439c-0.003-0.145-0.007-0.291-0.012-0.44c-0.112-0.005-0.245,0.001-0.4,0.02
		c-0.155,0.019-0.291,0.042-0.408,0.068c-0.208,0.043-0.365,0.132-0.472,0.269C14.618,9.467,14.565,9.615,14.565,9.774z"/>
	<path class="st0" d="M19.892,5.278c-0.154,0.005-0.267-0.029-0.336-0.104c-0.069-0.074-0.104-0.157-0.104-0.248
		c0-0.08,0.03-0.152,0.092-0.216s0.146-0.099,0.252-0.104c0.24-0.011,0.494-0.016,0.764-0.016s0.532,0,0.788,0
		c0.229,0,0.455,0.001,0.676,0.004c0.222,0.002,0.437,0.006,0.645,0.012c0.102,0.005,0.181,0.042,0.24,0.108
		c0.059,0.067,0.088,0.138,0.088,0.212c0,0.08-0.029,0.154-0.088,0.22c-0.06,0.067-0.147,0.1-0.265,0.1h-1.151
		c0.005,0.416,0.012,0.843,0.02,1.28c0.008,0.438,0.018,0.851,0.028,1.24c0.005,0.091,0.008,0.203,0.008,0.336s0,0.243,0,0.328
		c0,0.234-0.003,0.476-0.008,0.724c-0.006,0.248-0.011,0.487-0.017,0.717c-0.005,0.128-0.008,0.26-0.008,0.396
		s-0.003,0.273-0.008,0.412c-0.005,0.112-0.045,0.197-0.12,0.256c-0.074,0.059-0.157,0.088-0.248,0.088s-0.173-0.027-0.248-0.084
		c-0.074-0.056-0.114-0.137-0.12-0.244c-0.005-0.133-0.005-0.268,0-0.403c0.006-0.137,0.011-0.269,0.017-0.396
		c0.005-0.213,0.011-0.452,0.016-0.716c0.005-0.264,0.008-0.505,0.008-0.724c0-0.096,0-0.197,0-0.304
		c0-0.106-0.003-0.243-0.008-0.408c-0.011-0.4-0.022-0.813-0.036-1.24c-0.013-0.427-0.02-0.84-0.02-1.24
		c-0.166,0.005-0.319,0.008-0.46,0.008C20.147,5.271,20.015,5.273,19.892,5.278z"/>
	<path class="st0" d="M25.468,7.126c0.021-0.085,0.064-0.148,0.128-0.188c0.064-0.04,0.134-0.06,0.208-0.06
		c0.107,0,0.199,0.039,0.276,0.116s0.098,0.18,0.06,0.308c-0.139,0.453-0.281,0.897-0.428,1.332
		c-0.146,0.435-0.308,0.89-0.483,1.365c-0.14,0.368-0.303,0.777-0.492,1.228c-0.189,0.451-0.399,0.89-0.628,1.316
		c-0.017,0.032-0.04,0.062-0.072,0.088s-0.07,0.048-0.116,0.063c-0.045,0.017-0.093,0.023-0.144,0.021s-0.103-0.018-0.156-0.044
		c-0.075-0.037-0.121-0.105-0.14-0.204c-0.02-0.099-0.013-0.178,0.02-0.236c0.139-0.267,0.277-0.548,0.416-0.844
		s0.262-0.609,0.368-0.94c-0.219-0.517-0.44-1.039-0.664-1.568c-0.224-0.528-0.424-1.026-0.6-1.496
		C22.993,7.318,22.987,7.257,23,7.199c0.014-0.059,0.036-0.109,0.068-0.152c0.032-0.042,0.073-0.077,0.124-0.104
		c0.051-0.026,0.103-0.04,0.155-0.04c0.069,0,0.135,0.019,0.196,0.056c0.062,0.038,0.108,0.104,0.141,0.2
		c0.138,0.4,0.293,0.8,0.464,1.2c0.17,0.4,0.341,0.819,0.512,1.257c0.069-0.192,0.14-0.385,0.212-0.576
		c0.072-0.192,0.142-0.389,0.208-0.588c0.066-0.2,0.133-0.408,0.2-0.624C25.347,7.61,25.41,7.377,25.468,7.126z"/>
	<path class="st0" d="M27.701,12.335c-0.006,0.106-0.044,0.188-0.116,0.244c-0.072,0.056-0.151,0.084-0.236,0.084
		c-0.091,0-0.171-0.024-0.24-0.072s-0.104-0.125-0.104-0.232V9.543c0-0.245,0-0.447,0-0.604S27.002,8.648,27,8.539
		c-0.003-0.109-0.004-0.204-0.004-0.284s-0.002-0.165-0.004-0.256C26.99,7.908,26.987,7.8,26.984,7.674
		c-0.002-0.125-0.004-0.289-0.004-0.492c0-0.08,0.032-0.152,0.097-0.216c0.063-0.064,0.139-0.096,0.224-0.096
		c0.074,0,0.148,0.02,0.22,0.059c0.072,0.04,0.119,0.097,0.141,0.17c0.106-0.074,0.224-0.128,0.352-0.162s0.256-0.049,0.384-0.043
		c0.272,0.011,0.496,0.079,0.672,0.204c0.177,0.125,0.317,0.285,0.425,0.48c0.106,0.195,0.18,0.409,0.22,0.644
		c0.04,0.234,0.06,0.464,0.06,0.688c-0.005,0.64-0.122,1.135-0.352,1.484c-0.229,0.35-0.552,0.519-0.968,0.508
		c-0.128-0.005-0.259-0.026-0.393-0.063c-0.133-0.037-0.253-0.086-0.359-0.145V12.335z M27.692,9.878
		c0.075,0.155,0.183,0.263,0.324,0.324s0.281,0.087,0.42,0.076c0.214-0.01,0.373-0.135,0.48-0.373
		c0.106-0.237,0.16-0.573,0.16-1.007c0-0.155-0.013-0.313-0.036-0.473c-0.024-0.161-0.065-0.307-0.124-0.438
		s-0.136-0.238-0.232-0.321c-0.096-0.083-0.216-0.127-0.359-0.132c-0.171-0.005-0.319,0.039-0.444,0.132s-0.188,0.221-0.188,0.381
		V9.878z"/>
	<path class="st0" d="M30.42,8.862c0.005-0.245,0.038-0.486,0.1-0.724s0.158-0.448,0.292-0.632c0.133-0.184,0.303-0.332,0.508-0.444
		s0.455-0.168,0.748-0.168c0.155,0,0.311,0.033,0.468,0.1c0.157,0.066,0.3,0.168,0.429,0.304c0.127,0.136,0.234,0.307,0.319,0.512
		c0.085,0.206,0.134,0.447,0.145,0.724c0.005,0.117-0.013,0.219-0.053,0.304c-0.04,0.085-0.143,0.144-0.308,0.176
		c-0.075,0.016-0.191,0.029-0.348,0.04c-0.158,0.011-0.33,0.021-0.517,0.032S31.829,9.105,31.64,9.11
		c-0.189,0.006-0.356,0.011-0.5,0.017c0.005,0.144,0.02,0.291,0.044,0.439c0.024,0.149,0.07,0.286,0.14,0.408
		c0.069,0.123,0.168,0.223,0.296,0.3c0.128,0.078,0.299,0.116,0.513,0.116c0.133,0,0.262-0.023,0.388-0.072
		c0.125-0.048,0.241-0.101,0.348-0.159c0.091-0.049,0.174-0.058,0.248-0.028s0.134,0.076,0.176,0.14
		c0.037,0.059,0.053,0.126,0.044,0.2c-0.008,0.074-0.049,0.142-0.124,0.2c-0.176,0.128-0.354,0.217-0.536,0.268
		c-0.181,0.051-0.375,0.076-0.583,0.076c-0.565,0-0.989-0.187-1.272-0.56C30.537,10.081,30.404,9.551,30.42,8.862z M32.035,7.55
		c-0.256-0.01-0.461,0.075-0.615,0.256c-0.155,0.181-0.24,0.413-0.257,0.696c0.134,0,0.328-0.001,0.584-0.004
		c0.257-0.002,0.579-0.025,0.969-0.068c-0.012-0.288-0.084-0.504-0.221-0.648C32.36,7.639,32.206,7.561,32.035,7.55z"/>
</g>
</svg>
