<?xml version="1.0" encoding="utf-8"?>
<!-- Generator: Adobe Illustrator 21.1.0, SVG Export Plug-In . SVG Version: 6.00 Build 0)  -->
<svg version="1.1" id="레이어_1" xmlns="http://www.w3.org/2000/svg" xmlns:xlink="http://www.w3.org/1999/xlink" x="0px"
	 y="0px" viewBox="0 0 36.417 16" style="enable-background:new 0 0 36.417 16;" xml:space="preserve">
<style type="text/css">
	.st0{fill:#FFFFFF;}
</style>
<g>
	<path class="st0" d="M3.117,8.791c0,0.043,0.006,0.069,0.02,0.08C3.15,8.881,3.173,8.887,3.204,8.887
		c0.25,0,0.505-0.009,0.764-0.028C4.227,8.84,4.493,8.804,4.764,8.75c0.106-0.021,0.195-0.019,0.264,0.008
		c0.069,0.027,0.117,0.078,0.144,0.152c0.032,0.091,0.025,0.176-0.02,0.256c-0.045,0.08-0.114,0.136-0.204,0.168
		c-0.107,0.032-0.25,0.06-0.428,0.084c-0.179,0.023-0.364,0.044-0.556,0.06c-0.192,0.017-0.38,0.027-0.564,0.032
		c-0.184,0.006-0.337,0.006-0.46,0C2.823,9.506,2.728,9.488,2.657,9.459C2.584,9.43,2.529,9.389,2.489,9.335
		c-0.04-0.053-0.067-0.113-0.08-0.18s-0.02-0.137-0.02-0.212c0-0.734,0-1.343,0-1.825s0-0.867,0-1.154
		c0-0.287,0.001-0.494,0.004-0.619C2.395,5.22,2.396,5.145,2.396,5.118c0.005-0.106,0.043-0.199,0.112-0.279s0.165-0.12,0.288-0.12
		C2.94,4.724,3.086,4.728,3.232,4.73c0.147,0.003,0.29,0.004,0.428,0.004c0.314,0,0.613-0.008,0.896-0.024
		c0.112,0,0.201,0.026,0.268,0.079c0.066,0.053,0.1,0.131,0.1,0.237c0,0.089-0.034,0.159-0.1,0.209
		c-0.067,0.05-0.146,0.08-0.236,0.091C4.423,5.342,4.281,5.352,4.16,5.354C4.04,5.357,3.906,5.358,3.757,5.358
		c-0.107,0-0.203-0.001-0.288-0.004C3.383,5.352,3.271,5.351,3.133,5.351C3.127,5.639,3.123,5.935,3.12,6.238
		c-0.003,0.304-0.004,0.604-0.004,0.9c0,0.296,0,0.584,0,0.864C3.117,8.283,3.117,8.545,3.117,8.791z M5.54,6.719
		c0-0.133,0-0.26,0-0.38c0-0.12,0-0.238,0-0.356c0-0.117-0.001-0.234-0.004-0.352C5.534,5.513,5.533,5.388,5.533,5.254
		c0-0.09-0.001-0.181-0.004-0.272c-0.003-0.09-0.004-0.192-0.004-0.304c0-0.112,0.032-0.202,0.096-0.268
		c0.064-0.067,0.146-0.1,0.248-0.1c0.112,0,0.2,0.033,0.264,0.1c0.064,0.066,0.096,0.156,0.096,0.268v2.928c0,0.288,0,0.585,0,0.892
		s-0.001,0.61-0.004,0.909c-0.003,0.298-0.005,0.588-0.008,0.867c-0.003,0.28-0.007,0.543-0.012,0.788
		c0,0.106-0.04,0.186-0.12,0.236c-0.08,0.051-0.16,0.076-0.24,0.076s-0.157-0.032-0.232-0.097c-0.075-0.063-0.109-0.139-0.104-0.224
		c0.016-0.395,0.025-0.791,0.028-1.188C5.539,9.47,5.54,9.09,5.54,8.727V7.342C5.434,7.348,5.325,7.351,5.213,7.351
		c-0.112,0-0.219,0-0.32,0c-0.101,0-0.189,0-0.264,0s-0.128,0-0.16,0c-0.102,0-0.183-0.022-0.244-0.068s-0.095-0.122-0.1-0.228
		C4.119,6.948,4.154,6.867,4.228,6.811s0.163-0.084,0.264-0.084L5.54,6.719z M6.916,11.19c0-0.245-0.001-0.502-0.004-0.771
		c-0.003-0.27-0.004-0.537-0.004-0.804c0-0.268-0.001-0.528-0.004-0.785C6.902,8.575,6.901,8.34,6.901,8.126
		C6.895,7.694,6.892,7.277,6.892,6.875s0-0.769,0-1.1c0-0.277,0-0.521,0-0.732c0-0.21,0.005-0.377,0.016-0.5
		C6.919,4.436,6.956,4.353,7.02,4.294s0.144-0.088,0.24-0.088c0.112,0,0.197,0.028,0.256,0.084s0.088,0.132,0.088,0.228
		c0,0.032,0,0.072,0,0.12c0,0.048-0.001,0.099-0.004,0.152C7.598,4.844,7.597,4.893,7.597,4.938s0,0.082,0,0.108
		c0,0.187-0.001,0.371-0.004,0.552C7.59,5.78,7.589,5.988,7.589,6.223c0,0.112,0,0.237,0,0.376S7.587,6.881,7.584,7.03
		C7.582,7.18,7.58,7.327,7.58,7.471s0,0.277,0,0.4c0,0.491,0.001,0.972,0.004,1.444c0.003,0.473,0.009,0.927,0.02,1.364
		c0,0.106,0.001,0.209,0.004,0.308c0.002,0.099,0.001,0.175-0.004,0.229c-0.011,0.091-0.049,0.161-0.116,0.212
		c-0.067,0.051-0.143,0.076-0.228,0.076c-0.096,0-0.177-0.031-0.244-0.092C6.95,11.35,6.916,11.276,6.916,11.19z"/>
	<path class="st0" d="M10.14,4.918c0.331-0.005,0.6,0.049,0.808,0.164s0.372,0.27,0.492,0.464c0.12,0.195,0.201,0.423,0.244,0.684
		c0.042,0.261,0.064,0.536,0.064,0.824c0,0.288-0.021,0.571-0.064,0.848c-0.043,0.277-0.122,0.525-0.236,0.744
		c-0.115,0.219-0.276,0.396-0.484,0.528c-0.208,0.134-0.475,0.2-0.8,0.2C9.818,9.375,9.543,9.3,9.34,9.15
		C9.138,9.002,8.982,8.812,8.872,8.583s-0.18-0.48-0.212-0.752C8.628,7.559,8.613,7.3,8.613,7.055c0-0.251,0.022-0.503,0.068-0.756
		c0.045-0.253,0.126-0.481,0.244-0.684c0.118-0.203,0.275-0.368,0.472-0.496S9.842,4.924,10.14,4.918z M10.14,5.542
		c-0.176,0.016-0.317,0.076-0.424,0.18c-0.107,0.104-0.188,0.23-0.244,0.38c-0.056,0.149-0.093,0.31-0.112,0.48
		C9.342,6.753,9.332,6.911,9.332,7.055c0,0.17,0.007,0.356,0.02,0.556c0.013,0.2,0.048,0.384,0.104,0.552s0.139,0.308,0.248,0.42
		s0.263,0.168,0.46,0.168c0.208,0,0.369-0.063,0.484-0.188c0.115-0.125,0.2-0.276,0.256-0.452c0.056-0.176,0.09-0.361,0.104-0.556
		c0.013-0.195,0.02-0.361,0.02-0.5c0-0.528-0.068-0.919-0.204-1.172C10.688,5.629,10.46,5.516,10.14,5.542z M12.852,11.127
		c0-0.272,0.001-0.522,0.004-0.752c0.003-0.229,0.005-0.445,0.008-0.648c0.002-0.202,0.005-0.396,0.008-0.58
		c0.002-0.184,0.004-0.369,0.004-0.556c0-0.144,0-0.322,0-0.536s-0.001-0.432-0.004-0.656c-0.003-0.224-0.004-0.437-0.004-0.64
		c0-0.203,0-0.365,0-0.488c0-0.378-0.003-0.715-0.008-1.008c-0.005-0.293-0.013-0.528-0.024-0.704c0-0.123,0.029-0.216,0.088-0.28
		c0.059-0.064,0.133-0.101,0.224-0.112c0.091-0.005,0.181,0.025,0.272,0.092c0.091,0.067,0.136,0.151,0.136,0.252v1.208
		c0,0.24-0.001,0.492-0.004,0.756c-0.003,0.264-0.004,0.54-0.004,0.828c-0.005,0.272-0.006,0.545-0.004,0.82
		c0.003,0.275,0.004,0.556,0.004,0.844c0,0.182-0.001,0.374-0.004,0.577c-0.002,0.202-0.004,0.403-0.004,0.604
		s0.001,0.391,0.004,0.572c0.003,0.182,0.007,0.336,0.012,0.464c0.005,0.096-0.032,0.169-0.112,0.22
		c-0.08,0.051-0.157,0.076-0.232,0.076c-0.101,0-0.187-0.029-0.256-0.088S12.852,11.244,12.852,11.127z"/>
	<path class="st0" d="M15.628,8.887c0,0.048,0.024,0.072,0.072,0.072h0.44c0.17,0,0.331-0.004,0.48-0.012
		c0.149-0.008,0.301-0.017,0.456-0.028c0.139-0.011,0.276-0.026,0.412-0.048c0.136-0.021,0.233-0.037,0.292-0.048
		c0.117-0.027,0.214-0.021,0.292,0.016c0.077,0.038,0.126,0.094,0.147,0.168c0.021,0.069,0.016,0.146-0.016,0.228
		c-0.032,0.083-0.099,0.146-0.2,0.188c-0.037,0.011-0.128,0.028-0.272,0.052c-0.144,0.024-0.291,0.042-0.44,0.052
		c-0.32,0.027-0.58,0.044-0.78,0.053c-0.2,0.008-0.37,0.012-0.508,0.012c-0.101,0-0.195-0.001-0.28-0.004
		c-0.085-0.003-0.176-0.007-0.272-0.012c-0.118-0.006-0.212-0.024-0.284-0.057C15.097,9.487,15.04,9.444,15,9.391
		c-0.04-0.053-0.067-0.111-0.08-0.175c-0.013-0.064-0.02-0.134-0.02-0.208c0-0.778,0.003-1.491,0.008-2.141
		c0.005-0.65,0.008-1.233,0.008-1.75c0-0.271,0.128-0.407,0.384-0.407c0.149,0.005,0.325,0.009,0.528,0.012
		c0.203,0.002,0.392,0.004,0.568,0.004c0.192,0,0.379,0,0.56,0s0.341-0.005,0.48-0.016c0.123-0.011,0.213,0.01,0.272,0.063
		s0.096,0.116,0.112,0.19c0.016,0.079,0.003,0.153-0.04,0.221c-0.043,0.069-0.118,0.111-0.224,0.126
		c-0.171,0.026-0.344,0.042-0.52,0.047c-0.176,0.005-0.365,0.008-0.568,0.008c-0.139,0-0.266,0-0.38,0
		c-0.115,0-0.263-0.005-0.444-0.016c0,0.24,0,0.48,0,0.72c0,0.24-0.003,0.48-0.008,0.72h0.36c0.203,0,0.398-0.001,0.588-0.004
		c0.189-0.003,0.348-0.007,0.476-0.012c0.106-0.005,0.195,0.025,0.264,0.092c0.069,0.066,0.104,0.137,0.104,0.212
		c0,0.069-0.019,0.135-0.056,0.196c-0.038,0.062-0.102,0.098-0.192,0.108c-0.171,0.027-0.367,0.042-0.588,0.044
		c-0.222,0.003-0.441,0.004-0.66,0.004h-0.296c0,0.117,0,0.243,0,0.376s-0.001,0.267-0.004,0.4
		c-0.002,0.133-0.004,0.259-0.004,0.376S15.628,8.801,15.628,8.887z M18.093,6.663c0.053,0,0.105,0,0.156,0s0.11,0,0.18,0
		s0.152-0.001,0.248-0.004c0.096-0.003,0.213-0.004,0.352-0.004V4.568c0-0.112,0.032-0.198,0.097-0.257
		c0.063-0.059,0.149-0.088,0.256-0.088c0.102,0,0.182,0.029,0.24,0.088s0.088,0.133,0.088,0.224c0,0.048,0,0.125,0,0.232
		c0,0.106-0.002,0.223-0.004,0.348c-0.003,0.125-0.004,0.252-0.004,0.38s0,0.24,0,0.336c0,0.107,0,0.201,0,0.284
		c0,0.083,0,0.165,0,0.248c0,0.083,0.001,0.172,0.004,0.268c0.002,0.096,0.004,0.211,0.004,0.344
		c0.005,0.432,0.009,0.877,0.012,1.336s0.004,0.896,0.004,1.313c0,0.133,0,0.268,0,0.403c0,0.137-0.001,0.271-0.004,0.404
		c-0.003,0.134-0.005,0.259-0.008,0.376s-0.004,0.224-0.004,0.32c-0.006,0.106-0.043,0.188-0.112,0.244
		c-0.069,0.056-0.142,0.084-0.216,0.084c-0.106,0-0.192-0.035-0.256-0.104c-0.064-0.069-0.097-0.144-0.097-0.224
		c0.006-0.187,0.01-0.411,0.013-0.672c0.002-0.262,0.004-0.518,0.004-0.769c0-0.176-0.002-0.354-0.004-0.536
		c-0.003-0.181-0.004-0.365-0.004-0.552c0-0.24-0.002-0.459-0.004-0.656c-0.003-0.197-0.005-0.413-0.005-0.648
		c-0.042-0.005-0.104-0.008-0.184-0.008s-0.167,0-0.26,0c-0.094,0-0.187,0.001-0.28,0.004C18.21,7.293,18.13,7.294,18.06,7.294
		c-0.091,0-0.167-0.029-0.228-0.087c-0.062-0.058-0.092-0.137-0.092-0.237c0-0.105,0.036-0.184,0.108-0.237
		C17.92,6.681,18.002,6.657,18.093,6.663z"/>
	<path class="st0" d="M28.06,8.327c0.102-0.011,0.185,0.007,0.248,0.052c0.064,0.045,0.097,0.129,0.097,0.252
		c0,0.213-0.094,0.328-0.28,0.344c-0.059,0.005-0.132,0.009-0.22,0.012c-0.088,0.003-0.175,0.004-0.261,0.004h-0.312h-0.4v0.833
		c0,0.219,0.002,0.453,0.004,0.703c0.003,0.251-0.001,0.462-0.012,0.633c-0.005,0.074-0.04,0.148-0.104,0.224
		c-0.064,0.074-0.16,0.112-0.288,0.112c-0.086-0.006-0.16-0.036-0.225-0.093c-0.063-0.056-0.096-0.129-0.096-0.22
		c0.005-0.256,0.009-0.566,0.012-0.932s-0.001-0.783-0.012-1.252c-0.059,0-0.119,0.001-0.18,0.004
		c-0.062,0.003-0.124,0.004-0.188,0.004c-0.187,0.005-0.368,0.008-0.544,0.008s-0.352,0.003-0.528,0.008
		c0,0.155,0.002,0.323,0.005,0.504c0.002,0.182,0.004,0.334,0.004,0.456c0,0.208-0.002,0.419-0.004,0.633
		c-0.003,0.213-0.016,0.421-0.036,0.623c-0.011,0.086-0.058,0.151-0.141,0.196c-0.082,0.046-0.161,0.065-0.235,0.061
		c-0.086-0.011-0.162-0.043-0.229-0.097c-0.066-0.053-0.1-0.125-0.1-0.216c0-0.139,0.002-0.288,0.008-0.448
		c0.005-0.159,0.008-0.373,0.008-0.64c0-0.192,0.001-0.373,0.004-0.544s0.002-0.347-0.004-0.528h-0.088
		c-0.171,0-0.365,0.002-0.584,0.004c-0.219,0.003-0.424-0.001-0.616-0.012c-0.096-0.005-0.165-0.045-0.208-0.12
		c-0.042-0.075-0.059-0.16-0.048-0.256c0.017-0.102,0.058-0.172,0.124-0.212c0.066-0.04,0.143-0.06,0.229-0.06
		c0.085,0,0.183,0.002,0.292,0.008c0.108,0.005,0.217,0.008,0.323,0.008c0.075,0,0.192,0.001,0.353,0.004
		c0.16,0.002,0.328,0.004,0.504,0.004s0.344,0,0.504,0s0.28,0,0.36,0c0.277,0,0.555-0.003,0.832-0.008
		c0.277-0.005,0.546-0.013,0.808-0.024c0.043,0,0.132-0.001,0.268-0.004c0.137-0.002,0.273-0.007,0.412-0.012
		C27.682,8.337,27.863,8.332,28.06,8.327z M25.325,4.382c0.277-0.021,0.538,0,0.784,0.064c0.245,0.064,0.46,0.167,0.644,0.308
		c0.184,0.142,0.328,0.319,0.432,0.532c0.104,0.213,0.153,0.456,0.148,0.728c-0.006,0.314-0.068,0.577-0.188,0.788
		c-0.119,0.21-0.271,0.377-0.456,0.5c-0.184,0.123-0.388,0.209-0.611,0.26c-0.225,0.051-0.443,0.076-0.656,0.076
		c-0.288,0-0.545-0.04-0.772-0.12c-0.227-0.08-0.418-0.193-0.575-0.34c-0.157-0.147-0.276-0.323-0.356-0.528
		c-0.08-0.205-0.12-0.433-0.12-0.684c0-0.272,0.047-0.502,0.141-0.692c0.093-0.189,0.22-0.347,0.38-0.472
		c0.16-0.125,0.344-0.222,0.552-0.288C24.876,4.448,25.095,4.404,25.325,4.382z M25.365,4.991c-0.31,0.026-0.558,0.119-0.744,0.276
		s-0.28,0.391-0.28,0.7c0,0.352,0.099,0.615,0.296,0.788s0.459,0.26,0.784,0.26c0.165,0,0.32-0.018,0.464-0.052
		c0.145-0.035,0.27-0.092,0.376-0.172s0.192-0.184,0.256-0.312c0.064-0.128,0.097-0.285,0.097-0.472
		c0-0.154-0.028-0.297-0.084-0.428c-0.057-0.131-0.138-0.243-0.244-0.336c-0.107-0.093-0.237-0.163-0.393-0.208
		C25.738,4.989,25.562,4.975,25.365,4.991z"/>
	<path class="st0" d="M29.164,5.654c-0.229,0-0.345-0.101-0.345-0.304c0-0.085,0.027-0.155,0.08-0.208
		c0.054-0.053,0.145-0.08,0.272-0.08c0.149,0,0.34,0,0.571,0c0.232,0,0.481,0.001,0.748,0.004c0.267,0.003,0.538,0.005,0.813,0.008
		c0.274,0.002,0.532,0.004,0.771,0.004c0.128,0.011,0.215,0.042,0.261,0.092c0.044,0.051,0.067,0.116,0.067,0.196
		c0,0.123-0.03,0.204-0.092,0.244s-0.138,0.06-0.228,0.06c-0.187,0-0.339-0.001-0.456-0.004C31.51,5.664,31.401,5.661,31.3,5.659
		c-0.102-0.003-0.206-0.005-0.313-0.008c-0.106-0.002-0.239-0.004-0.399-0.004c-0.08,0-0.186,0-0.316,0s-0.267,0-0.408,0
		c-0.141,0-0.275,0.001-0.403,0.004C29.332,5.653,29.233,5.654,29.164,5.654z M30.556,5.935c0.453-0.005,0.806,0.111,1.056,0.348
		c0.251,0.237,0.376,0.559,0.376,0.964c0,0.427-0.126,0.75-0.38,0.972C31.355,8.44,31.017,8.55,30.596,8.55
		c-0.453,0-0.8-0.12-1.04-0.36c-0.24-0.24-0.36-0.557-0.36-0.952c0-0.203,0.037-0.384,0.112-0.544
		c0.074-0.16,0.173-0.296,0.296-0.408c0.123-0.112,0.267-0.197,0.432-0.256C30.201,5.972,30.374,5.94,30.556,5.935z M29.852,4.663
		c-0.197-0.042-0.288-0.157-0.271-0.344c0.01-0.106,0.057-0.18,0.14-0.22c0.082-0.04,0.172-0.049,0.268-0.028
		c0.106,0.021,0.201,0.04,0.284,0.056s0.16,0.028,0.232,0.036c0.071,0.008,0.145,0.015,0.22,0.02
		c0.074,0.005,0.157,0.008,0.248,0.008h0.264c0.091,0,0.176,0.02,0.256,0.06s0.12,0.111,0.12,0.212c0,0.069-0.011,0.124-0.031,0.164
		c-0.021,0.04-0.049,0.069-0.08,0.088c-0.032,0.019-0.068,0.031-0.108,0.036s-0.081,0.008-0.124,0.008
		c-0.069,0.005-0.124,0.008-0.164,0.008s-0.092,0-0.156,0c-0.154,0-0.329-0.007-0.523-0.02C30.229,4.733,30.038,4.705,29.852,4.663z
		 M30.572,6.519c-0.229,0.005-0.399,0.079-0.512,0.22c-0.112,0.142-0.168,0.308-0.168,0.5c0,0.256,0.068,0.443,0.204,0.56
		c0.136,0.118,0.303,0.176,0.5,0.176c0.256,0,0.436-0.068,0.54-0.204c0.104-0.136,0.156-0.319,0.156-0.548
		c0-0.208-0.063-0.379-0.188-0.512S30.801,6.513,30.572,6.519z M31.948,8.982c0.262,0,0.513,0.016,0.757,0.048
		c0.242,0.032,0.457,0.098,0.643,0.196c0.188,0.099,0.336,0.239,0.449,0.42c0.111,0.182,0.168,0.419,0.168,0.712
		c0,0.272-0.045,0.492-0.137,0.66c-0.09,0.168-0.225,0.3-0.4,0.396c-0.176,0.096-0.389,0.161-0.639,0.195
		c-0.252,0.035-0.531,0.055-0.841,0.061c-0.25,0.005-0.486-0.012-0.708-0.052c-0.221-0.04-0.413-0.111-0.575-0.212
		c-0.163-0.102-0.291-0.239-0.385-0.412c-0.093-0.174-0.14-0.389-0.14-0.645c0-0.261,0.053-0.479,0.16-0.656
		c0.106-0.176,0.245-0.315,0.416-0.42c0.171-0.104,0.364-0.179,0.58-0.224S31.729,8.982,31.948,8.982z M31.988,9.599
		c-0.154,0-0.297,0.011-0.428,0.032s-0.245,0.06-0.344,0.116c-0.099,0.056-0.176,0.133-0.232,0.231
		c-0.056,0.099-0.087,0.223-0.092,0.372c-0.005,0.16,0.024,0.287,0.088,0.38c0.064,0.094,0.148,0.166,0.252,0.216
		c0.104,0.051,0.22,0.083,0.349,0.097c0.128,0.013,0.256,0.02,0.384,0.02c0.133,0,0.274-0.003,0.424-0.008
		c0.148-0.005,0.287-0.029,0.412-0.072c0.125-0.042,0.229-0.111,0.313-0.208c0.082-0.096,0.123-0.234,0.123-0.416
		c0.006-0.176-0.029-0.315-0.104-0.42c-0.076-0.104-0.172-0.181-0.293-0.231c-0.119-0.051-0.256-0.081-0.408-0.092
		C32.28,9.604,32.132,9.599,31.988,9.599z M33.355,4.307c0.076-0.056,0.158-0.084,0.248-0.084c0.08,0,0.16,0.024,0.236,0.072
		c0.078,0.048,0.117,0.12,0.117,0.216v1.688c0,0.187,0,0.384,0,0.592s0,0.419,0,0.632c0,0.213-0.002,0.42-0.004,0.62
		c-0.004,0.2-0.008,0.38-0.014,0.54c-0.004,0.128-0.035,0.22-0.092,0.276c-0.055,0.056-0.129,0.087-0.219,0.092
		c-0.107,0.005-0.197-0.023-0.273-0.084c-0.074-0.062-0.111-0.164-0.111-0.308V8.015H32.98c-0.092,0-0.176,0-0.252,0
		c-0.078,0-0.141-0.003-0.188-0.008c-0.097-0.01-0.173-0.039-0.229-0.084c-0.056-0.045-0.084-0.121-0.084-0.228
		c0-0.213,0.106-0.32,0.32-0.32h0.695c0-0.101,0.002-0.219,0.004-0.352s0.004-0.277,0.004-0.432H32.98c-0.092,0-0.176,0-0.252,0
		c-0.078,0-0.141-0.002-0.188-0.008c-0.097-0.011-0.173-0.04-0.229-0.088c-0.056-0.048-0.084-0.123-0.084-0.224
		c0-0.213,0.106-0.32,0.32-0.32h0.695V5.519V4.55C33.243,4.444,33.281,4.362,33.355,4.307z"/>
</g>
</svg>
