<?xml version="1.0" encoding="utf-8"?>
<!-- Generator: Adobe Illustrator 21.1.0, SVG Export Plug-In . SVG Version: 6.00 Build 0)  -->
<svg version="1.1" id="레이어_1" xmlns="http://www.w3.org/2000/svg" xmlns:xlink="http://www.w3.org/1999/xlink" x="0px"
	 y="0px" viewBox="0 0 36.417 16" style="enable-background:new 0 0 36.417 16;" xml:space="preserve">
<style type="text/css">
	.st0{fill:#FFFFFF;}
</style>
<g>
	<path class="st0" d="M7.936,9.199c-0.181,0-0.317-0.003-0.408-0.009C7.438,9.186,7.363,9.178,7.305,9.167
		C7.209,9.146,7.139,9.108,7.097,9.055C7.054,9.002,7.033,8.938,7.033,8.862c0-0.096,0.036-0.18,0.108-0.252
		c0.072-0.072,0.175-0.097,0.308-0.076c0.027,0.005,0.066,0.009,0.12,0.012C7.622,8.549,7.694,8.55,7.785,8.55h0.864h0.048V8.398
		c0-0.069,0.001-0.146,0.004-0.232c0.003-0.085,0.004-0.165,0.004-0.24V7.911H8.449c-0.283,0-0.564,0-0.844,0
		c-0.28,0-0.567-0.005-0.86-0.016c-0.053,0-0.121-0.001-0.204-0.004c-0.083-0.003-0.15-0.009-0.204-0.02
		C6.15,7.838,6.067,7.724,6.089,7.526c0.011-0.101,0.052-0.17,0.124-0.208c0.072-0.037,0.153-0.061,0.244-0.072
		c0.043,0,0.083,0,0.12,0s0.077,0.002,0.12,0.008C6.728,7.26,6.758,7.263,6.785,7.263s0.056,0,0.088,0
		c0.411,0.011,0.779,0.017,1.104,0.02C8.302,7.285,8.63,7.287,8.961,7.287c0.288,0,0.584-0.001,0.888-0.004
		c0.304-0.003,0.64-0.009,1.008-0.02c0.042,0,0.108,0,0.196,0s0.177-0.003,0.268-0.008c0.101,0,0.208-0.002,0.32-0.008
		c0.128-0.005,0.217,0.021,0.268,0.08s0.076,0.141,0.076,0.248c0,0.117-0.031,0.193-0.092,0.228
		c-0.061,0.035-0.132,0.057-0.212,0.068c-0.016,0.005-0.059,0.008-0.128,0.008s-0.142,0-0.216,0c-0.091,0-0.187,0.003-0.288,0.008
		c-0.272,0.005-0.544,0.009-0.816,0.012C9.961,7.901,9.689,7.905,9.417,7.911v0.632c0.256-0.005,0.473-0.008,0.652-0.008
		s0.308-0.005,0.388-0.016c0.133-0.005,0.24-0.001,0.32,0.012c0.08,0.014,0.143,0.038,0.188,0.072
		c0.045,0.035,0.076,0.083,0.092,0.144s0.024,0.135,0.024,0.22v0.424c0,0.112,0.001,0.211,0.004,0.296
		c0.002,0.086,0.001,0.16-0.004,0.225c-0.011,0.154-0.049,0.268-0.116,0.34c-0.067,0.072-0.191,0.113-0.372,0.124
		c-0.075,0.005-0.206,0.008-0.392,0.008s-0.381,0-0.584,0c-0.331,0-0.656,0-0.976,0c-0.32,0-0.592,0.005-0.816,0.016v0.496
		c0,0.032,0.002,0.058,0.008,0.076s0.029,0.028,0.072,0.028c0.059,0,0.116,0.001,0.172,0.004s0.124,0.004,0.204,0.004
		c0.123,0,0.268,0,0.436,0s0.329-0.003,0.484-0.008c0.203-0.006,0.388-0.01,0.556-0.013c0.168-0.002,0.353-0.004,0.556-0.004
		c0.09,0,0.178-0.002,0.264-0.008c0.085-0.005,0.149-0.011,0.192-0.016c0.027-0.006,0.052-0.008,0.076-0.008s0.047,0,0.068,0
		c0.128-0.011,0.226,0.019,0.292,0.088c0.067,0.069,0.1,0.149,0.1,0.239c0,0.069-0.024,0.134-0.072,0.192
		c-0.048,0.059-0.118,0.102-0.208,0.128c-0.038,0.006-0.103,0.011-0.196,0.017c-0.093,0.005-0.217,0.008-0.372,0.008
		c-0.256,0-0.515,0.001-0.776,0.004c-0.261,0.002-0.509,0.007-0.744,0.012c-0.144,0.005-0.297,0.008-0.46,0.008s-0.297,0-0.404,0
		c-0.091,0-0.175,0-0.252,0c-0.078,0-0.146-0.003-0.204-0.008c-0.117-0.005-0.212-0.025-0.284-0.06
		c-0.072-0.034-0.128-0.077-0.168-0.128c-0.04-0.05-0.066-0.108-0.08-0.175c-0.014-0.066-0.02-0.137-0.02-0.211v-0.231
		c0-0.106-0.001-0.212-0.004-0.318c-0.002-0.106-0.004-0.221-0.004-0.343c0-0.276,0.133-0.414,0.4-0.414c0.102,0,0.395,0,0.88,0
		c0.485,0,1.154-0.005,2.008-0.016V9.272c0-0.032-0.003-0.059-0.008-0.077c-0.005-0.02-0.032-0.028-0.08-0.028
		c-0.112,0.005-0.255,0.011-0.428,0.016c-0.173,0.006-0.364,0.01-0.572,0.012C9.049,9.197,8.831,9.199,8.605,9.199
		C8.378,9.199,8.155,9.199,7.936,9.199z M10.257,4.446c0-0.042,0.005-0.086,0.016-0.132c0.01-0.045,0.03-0.086,0.06-0.124
		c0.029-0.037,0.069-0.065,0.12-0.084c0.051-0.019,0.116-0.022,0.196-0.012c0.101,0.011,0.174,0.049,0.22,0.116
		c0.045,0.067,0.065,0.137,0.06,0.212c-0.011,0.352-0.012,0.684-0.004,0.996s0.004,0.617-0.012,0.916
		c-0.011,0.139-0.046,0.237-0.108,0.296c-0.062,0.059-0.199,0.091-0.412,0.096c-0.042,0-0.108,0-0.196,0S10.011,6.728,9.905,6.73
		c-0.107,0.003-0.22,0.004-0.34,0.004c-0.12,0-0.233,0-0.34,0c-0.144,0-0.294,0-0.452,0c-0.158,0-0.307-0.001-0.448-0.004
		C8.183,6.728,8.054,6.725,7.936,6.723C7.819,6.72,7.728,6.716,7.664,6.71C7.515,6.7,7.405,6.673,7.332,6.63
		C7.261,6.588,7.224,6.489,7.224,6.334s0.003-0.316,0.008-0.484c0.005-0.168,0.005-0.354,0-0.556c0-0.053,0-0.103,0-0.148
		s0-0.1,0-0.164s0-0.141,0-0.232s0-0.205,0-0.344C7.222,4.305,7.257,4.228,7.337,4.174c0.08-0.053,0.168-0.08,0.264-0.08
		c0.085,0,0.164,0.022,0.236,0.068c0.072,0.045,0.11,0.119,0.116,0.22v0.56h2.304V4.446z M10.241,6.11
		c0-0.053,0.001-0.099,0.004-0.136c0.003-0.037,0.004-0.075,0.004-0.112c0-0.037,0-0.079,0-0.124c0-0.045,0-0.103,0-0.172H7.936
		c0,0.059,0,0.104,0,0.136c0,0.032,0,0.065,0,0.1S7.935,5.876,7.932,5.918C7.93,5.961,7.929,6.017,7.929,6.086L10.241,6.11z"/>
	<path class="st0" d="M17.769,8.535c0.101-0.011,0.19,0.008,0.268,0.056c0.077,0.048,0.116,0.134,0.116,0.256
		c0,0.101-0.029,0.178-0.088,0.229s-0.136,0.081-0.232,0.092c-0.043,0.005-0.108,0.009-0.196,0.012
		c-0.088,0.003-0.18,0.004-0.276,0.004h-0.36c-0.235,0-0.471,0-0.708,0s-0.468,0.003-0.692,0.008
		c0.005,0.107,0.008,0.221,0.008,0.34c0,0.12,0,0.233,0,0.341c0,0.122,0,0.231,0,0.328c0,0.096,0,0.184,0,0.264
		s-0.001,0.154-0.004,0.224c-0.003,0.069-0.004,0.139-0.004,0.208c0,0.048-0.001,0.109-0.004,0.185
		c-0.002,0.074-0.009,0.136-0.02,0.184c-0.021,0.091-0.07,0.156-0.144,0.196c-0.075,0.04-0.152,0.055-0.232,0.044
		c-0.09-0.011-0.168-0.042-0.232-0.092c-0.064-0.051-0.096-0.122-0.096-0.212c0-0.064,0.001-0.12,0.004-0.169
		c0.002-0.048,0.004-0.079,0.004-0.096c0.005-0.106,0.008-0.237,0.008-0.392c0-0.155,0-0.314,0-0.48V9.207
		c-0.144,0-0.278,0.001-0.404,0.004s-0.253,0.005-0.384,0.008c-0.131,0.003-0.268,0.004-0.412,0.004s-0.31,0-0.496,0
		c-0.027,0-0.071,0-0.132,0c-0.062,0-0.125,0-0.192,0c-0.067,0-0.131-0.001-0.192-0.004c-0.061-0.003-0.105-0.007-0.132-0.012
		c-0.096-0.011-0.172-0.051-0.228-0.12s-0.079-0.152-0.068-0.249c0.011-0.101,0.055-0.169,0.132-0.204
		c0.077-0.034,0.161-0.057,0.252-0.068c0.059-0.005,0.146-0.004,0.26,0.004c0.114,0.008,0.233,0.015,0.356,0.02
		c0.101,0.005,0.244,0.008,0.428,0.008s0.38,0,0.588,0s0.416-0.001,0.624-0.004c0.208-0.003,0.384-0.004,0.528-0.004
		s0.258,0,0.344,0s0.156-0.001,0.212-0.004c0.056-0.002,0.109-0.005,0.16-0.008c0.051-0.003,0.112-0.005,0.184-0.008
		c0.072-0.002,0.167-0.004,0.284-0.004c0.117,0,0.272-0.002,0.464-0.008c0.042,0,0.105,0,0.188,0c0.083,0,0.161-0.003,0.236-0.008
		C17.579,8.545,17.673,8.54,17.769,8.535z M13.345,4.895c0-0.123,0.032-0.22,0.096-0.292c0.064-0.072,0.157-0.108,0.28-0.108
		c0.085,0,0.189,0,0.312,0c0.123,0,0.257,0.001,0.404,0.004c0.146,0.003,0.298,0.004,0.456,0.004c0.157,0,0.313,0,0.468,0
		c0.25,0,0.495-0.002,0.732-0.008c0.237-0.005,0.417-0.008,0.54-0.008c0.155,0,0.25,0.034,0.288,0.1
		c0.037,0.067,0.056,0.14,0.056,0.22c0,0.064-0.021,0.128-0.064,0.192c-0.043,0.064-0.109,0.102-0.2,0.112
		c-0.171,0.016-0.395,0.025-0.672,0.028c-0.277,0.002-0.565,0.004-0.864,0.004c-0.213,0-0.405,0.001-0.576,0.004
		c-0.171,0.003-0.347-0.001-0.528-0.012c-0.005,0.085-0.008,0.187-0.008,0.304s0,0.243,0,0.376h0.76c0.171,0,0.347,0,0.528,0
		c0.181,0,0.352,0,0.512,0c0.16,0,0.303-0.001,0.428-0.004c0.125-0.002,0.22-0.007,0.284-0.012c0.106-0.01,0.189,0.018,0.248,0.084
		c0.059,0.067,0.088,0.138,0.088,0.212c0,0.069-0.02,0.135-0.06,0.196c-0.04,0.062-0.103,0.097-0.188,0.108
		c-0.085,0.011-0.196,0.02-0.332,0.028c-0.136,0.008-0.287,0.015-0.452,0.02c-0.166,0.005-0.34,0.008-0.524,0.008s-0.364,0-0.54,0
		c-0.123,0-0.25,0.001-0.38,0.004c-0.131,0.003-0.255,0.001-0.372-0.004v0.584c0,0.053,0.006,0.091,0.02,0.112
		c0.013,0.021,0.046,0.032,0.1,0.032c0.256,0,0.512,0,0.768,0c0.256,0,0.499-0.001,0.728-0.004c0.229-0.003,0.441-0.008,0.636-0.016
		c0.195-0.008,0.361-0.018,0.5-0.028c0.117-0.01,0.21,0.018,0.28,0.084c0.069,0.066,0.104,0.137,0.104,0.212
		c0,0.069-0.021,0.136-0.064,0.2c-0.042,0.064-0.117,0.102-0.224,0.112c-0.128,0.011-0.276,0.02-0.444,0.028
		s-0.369,0.018-0.604,0.028c-0.096,0.005-0.2,0.01-0.312,0.012c-0.112,0.003-0.225,0.004-0.34,0.004s-0.223,0-0.324,0
		c-0.101,0-0.187,0-0.256,0h-0.736c-0.213,0-0.359-0.049-0.436-0.148c-0.078-0.099-0.119-0.225-0.124-0.38
		c0-0.048-0.001-0.109-0.004-0.184c-0.003-0.075-0.004-0.157-0.004-0.248s0-0.183,0-0.276s0-0.183,0-0.268
		c0-0.155,0.001-0.311,0.004-0.468c0.002-0.157,0.004-0.301,0.004-0.432s0.001-0.243,0.004-0.336
		C13.344,4.981,13.345,4.921,13.345,4.895z"/>
	<path class="st0" d="M18.848,4.942c0-0.101,0.026-0.187,0.08-0.256s0.149-0.104,0.288-0.104c0.182,0,0.365,0,0.552,0
		S20.132,4.58,20.3,4.575s0.324-0.009,0.468-0.012c0.145-0.002,0.265-0.007,0.36-0.012c0.187-0.01,0.314,0.02,0.384,0.092
		c0.069,0.072,0.104,0.169,0.104,0.292v1.304c0,0.293,0,0.552,0,0.776c0,0.224,0.002,0.389,0.008,0.496
		c0,0.064-0.002,0.124-0.004,0.18c-0.003,0.056-0.017,0.108-0.04,0.156c-0.024,0.048-0.062,0.088-0.112,0.12
		c-0.051,0.032-0.124,0.056-0.22,0.072c-0.305,0.011-0.62,0.019-0.948,0.024S19.646,8.07,19.321,8.07
		c-0.038,0-0.079-0.001-0.124-0.004c-0.046-0.002-0.09-0.013-0.133-0.032c-0.042-0.019-0.08-0.048-0.111-0.088
		c-0.032-0.04-0.054-0.097-0.064-0.172c-0.011-0.064-0.019-0.157-0.023-0.28c-0.006-0.123-0.01-0.263-0.013-0.42
		s-0.005-0.324-0.008-0.5c-0.003-0.176-0.004-0.35-0.004-0.52c0-0.133,0-0.263,0-0.388c0-0.125,0.001-0.237,0.004-0.336
		s0.004-0.183,0.004-0.252S18.848,4.964,18.848,4.942z M19.56,5.207c-0.005,0.224-0.009,0.428-0.012,0.612s-0.004,0.359-0.004,0.524
		c0,0.166,0.003,0.33,0.008,0.492s0.011,0.335,0.016,0.516c0,0.042,0.011,0.069,0.032,0.08s0.054,0.016,0.097,0.016h0.672
		c0.122,0,0.216,0,0.279,0c0.064,0,0.152-0.002,0.265-0.008c0-0.176-0.002-0.365-0.004-0.568c-0.003-0.203-0.004-0.401-0.004-0.596
		c0-0.194,0-0.376,0-0.544s0-0.305,0-0.412c0-0.042-0.005-0.073-0.013-0.092s-0.041-0.028-0.1-0.028
		c-0.117,0.005-0.235,0.008-0.353,0.008s-0.237,0-0.359,0c-0.107,0-0.193-0.001-0.26-0.004C19.753,5.2,19.666,5.201,19.56,5.207z
		 M21.68,8.743c0.267,0,0.521,0.021,0.764,0.064c0.243,0.042,0.456,0.121,0.641,0.236c0.184,0.114,0.332,0.268,0.444,0.46
		c0.111,0.191,0.17,0.435,0.176,0.728c0,0.272-0.047,0.499-0.141,0.681c-0.093,0.181-0.228,0.327-0.403,0.439
		c-0.177,0.112-0.39,0.192-0.641,0.24c-0.25,0.048-0.53,0.074-0.84,0.08c-0.256,0.005-0.494-0.019-0.716-0.072
		s-0.413-0.139-0.576-0.256s-0.292-0.27-0.388-0.456s-0.145-0.408-0.145-0.664c0-0.261,0.054-0.485,0.16-0.672
		s0.245-0.34,0.416-0.46s0.365-0.208,0.584-0.264C21.235,8.771,21.456,8.743,21.68,8.743z M21.72,9.367
		c-0.154,0-0.299,0.017-0.432,0.052c-0.134,0.034-0.251,0.085-0.353,0.151c-0.102,0.067-0.181,0.155-0.239,0.265
		c-0.06,0.109-0.091,0.238-0.097,0.388c-0.005,0.16,0.025,0.293,0.092,0.4c0.067,0.106,0.153,0.191,0.261,0.256
		c0.106,0.063,0.225,0.109,0.355,0.136s0.26,0.04,0.389,0.04c0.133,0,0.274-0.01,0.424-0.028s0.286-0.056,0.412-0.111
		c0.125-0.057,0.229-0.139,0.312-0.248s0.127-0.255,0.132-0.437c0.006-0.176-0.03-0.321-0.107-0.436
		c-0.078-0.115-0.177-0.204-0.296-0.269c-0.12-0.063-0.257-0.106-0.408-0.128C22.012,9.378,21.865,9.367,21.72,9.367z M22.968,4.542
		c0-0.091,0.029-0.163,0.088-0.216s0.131-0.085,0.216-0.096c0.091-0.016,0.182,0.003,0.272,0.056s0.139,0.131,0.144,0.232
		c0.006,0.171,0.007,0.352,0.004,0.544c-0.002,0.192-0.004,0.371-0.004,0.536c0,0.304,0.002,0.633,0.004,0.988
		c0.003,0.355,0.002,0.713-0.004,1.076c0,0.091-0.001,0.2-0.004,0.328c-0.003,0.128-0.004,0.237-0.004,0.328
		c0,0.118-0.034,0.204-0.104,0.26c-0.069,0.056-0.149,0.084-0.24,0.084c-0.102,0-0.187-0.029-0.256-0.088s-0.104-0.147-0.104-0.264
		v-0.88h-0.368c-0.085,0-0.166,0-0.243,0c-0.078,0-0.141-0.003-0.188-0.008c-0.091-0.011-0.164-0.04-0.22-0.087
		c-0.057-0.047-0.084-0.121-0.084-0.221c0-0.111,0.027-0.192,0.084-0.245c0.056-0.053,0.132-0.079,0.228-0.079h0.792V5.854h-0.368
		c-0.085,0-0.164,0-0.235,0c-0.072,0-0.132,0.003-0.181,0.008c-0.101,0.005-0.18-0.02-0.235-0.076
		C21.9,5.73,21.872,5.649,21.872,5.542c0-0.106,0.027-0.187,0.084-0.24c0.056-0.054,0.132-0.08,0.228-0.08c0.054,0,0.115,0,0.185,0
		s0.144-0.003,0.224-0.008c0.059,0,0.12-0.001,0.184-0.004c0.064-0.002,0.131-0.004,0.2-0.004c0-0.112-0.001-0.224-0.004-0.336
		C22.969,4.758,22.968,4.649,22.968,4.542z"/>
	<path class="st0" d="M30.344,9.935c0,0.102-0.019,0.176-0.056,0.225c-0.038,0.048-0.102,0.088-0.192,0.119
		c-0.026,0.011-0.062,0.018-0.104,0.021c-0.043,0.003-0.086,0.004-0.128,0.004H29.72c-0.171,0-0.343-0.001-0.516-0.004
		c-0.174-0.003-0.346-0.004-0.517-0.004c-0.309,0-0.618-0.001-0.928-0.004s-0.616-0.004-0.92-0.004c-0.154,0-0.273,0-0.356,0
		c-0.082,0-0.158,0-0.228,0s-0.143,0.001-0.22,0.004c-0.078,0.003-0.186,0.004-0.324,0.004c-0.021,0-0.077,0-0.168,0
		s-0.192,0-0.304,0c-0.112,0-0.221,0.001-0.324,0.004c-0.104,0.003-0.175,0.004-0.212,0.004c-0.091,0.006-0.171-0.022-0.24-0.084
		s-0.104-0.146-0.104-0.252c0-0.08,0.025-0.146,0.076-0.196s0.119-0.086,0.204-0.107c0.026-0.006,0.073-0.01,0.141-0.013
		c0.066-0.002,0.141-0.004,0.224-0.004s0.165,0.002,0.248,0.004c0.082,0.003,0.153,0.004,0.212,0.004
		c0.299,0.006,0.56,0.007,0.784,0.005c0.224-0.003,0.461-0.01,0.712-0.021V9.367c0-0.091,0-0.175,0-0.252
		c0-0.078-0.003-0.157-0.008-0.237c0-0.059-0.002-0.112-0.004-0.16c-0.003-0.048-0.005-0.085-0.005-0.112
		c0-0.112,0.038-0.199,0.112-0.26c0.075-0.062,0.157-0.095,0.248-0.1c0.085-0.005,0.165,0.019,0.24,0.072
		c0.074,0.054,0.117,0.131,0.128,0.232c0.005,0.043,0.008,0.099,0.008,0.168s0,0.141,0,0.216v0.704
		c0.314,0.006,0.63,0.007,0.944,0.004s0.629-0.007,0.943-0.012H30C30.23,9.631,30.344,9.732,30.344,9.935z M25.449,6.475
		c0-0.229,0-0.456,0-0.677c0-0.222,0.005-0.451,0.016-0.686c0-0.107,0.026-0.195,0.08-0.265c0.053-0.069,0.157-0.104,0.312-0.104
		c0.171,0.005,0.405,0.008,0.704,0.008s0.603,0,0.912,0c0.256,0,0.492,0,0.708,0s0.409-0.002,0.58-0.008
		c0.117-0.011,0.204,0.019,0.26,0.089c0.057,0.07,0.084,0.146,0.084,0.227c0,0.065-0.025,0.127-0.075,0.187
		c-0.051,0.06-0.119,0.095-0.204,0.105c-0.182,0.016-0.415,0.027-0.7,0.032c-0.285,0.005-0.58,0.008-0.884,0.008
		c-0.203,0-0.387,0.001-0.553,0.004c-0.165,0.003-0.333,0.001-0.504-0.004c-0.005,0.101-0.008,0.237-0.008,0.408
		c0,0.171,0,0.347,0,0.528c0,0.181,0,0.353,0,0.516c0,0.163,0,0.287,0,0.372c0,0.059,0.007,0.094,0.021,0.104
		c0.013,0.011,0.035,0.016,0.067,0.016h0.248c0.203,0,0.397,0,0.584,0s0.372-0.002,0.556-0.008c0.185-0.005,0.372-0.011,0.564-0.016
		s0.4-0.016,0.624-0.032c0.154-0.01,0.266,0.019,0.332,0.088s0.1,0.141,0.1,0.216c0,0.069-0.027,0.135-0.084,0.196
		c-0.056,0.062-0.137,0.1-0.244,0.116c-0.063,0.011-0.128,0.019-0.191,0.024c-0.064,0.005-0.134,0.011-0.208,0.016
		c-0.075,0.005-0.157,0.009-0.248,0.012c-0.091,0.003-0.194,0.007-0.313,0.012c-0.042,0.005-0.096,0.008-0.159,0.008
		c-0.064,0-0.118,0-0.16,0c-0.219,0.005-0.411,0.01-0.576,0.012c-0.165,0.003-0.325,0.004-0.48,0.004c-0.09,0-0.185,0-0.283,0
		c-0.1,0-0.202-0.002-0.309-0.008c-0.122-0.005-0.22-0.025-0.292-0.06c-0.072-0.035-0.128-0.082-0.168-0.141
		c-0.04-0.059-0.066-0.124-0.08-0.196c-0.013-0.072-0.02-0.146-0.02-0.221c-0.006-0.091-0.008-0.22-0.008-0.389
		C25.449,6.8,25.449,6.635,25.449,6.475z"/>
</g>
</svg>
