<?xml version="1.0" encoding="utf-8"?>
<!-- Generator: Adobe Illustrator 21.1.0, SVG Export Plug-In . SVG Version: 6.00 Build 0)  -->
<svg version="1.1" id="레이어_1" xmlns="http://www.w3.org/2000/svg" xmlns:xlink="http://www.w3.org/1999/xlink" x="0px"
	 y="0px" viewBox="0 0 36.417 16" style="enable-background:new 0 0 36.417 16;" xml:space="preserve">
<style type="text/css">
	.st0{fill:#FFFFFF;}
</style>
<g>
	<path class="st0" d="M6.781,7.774c-0.005-0.24,0-0.488,0.016-0.744c0.016-0.256,0.048-0.505,0.096-0.748
		C6.941,6.04,7.009,5.811,7.097,5.595c0.088-0.216,0.2-0.407,0.336-0.572c0.136-0.165,0.3-0.296,0.492-0.392
		c0.192-0.096,0.418-0.146,0.68-0.152c0.597-0.011,1.041,0.243,1.332,0.76c0.291,0.518,0.431,1.286,0.42,2.304
		c-0.005,0.608-0.045,1.128-0.12,1.56c-0.075,0.433-0.191,0.785-0.348,1.061c-0.157,0.274-0.356,0.475-0.596,0.6
		c-0.24,0.125-0.528,0.188-0.864,0.188s-0.609-0.104-0.82-0.309c-0.211-0.205-0.376-0.464-0.496-0.775
		c-0.12-0.313-0.204-0.655-0.252-1.029C6.813,8.465,6.786,8.11,6.781,7.774z M8.644,5.143c-0.181-0.005-0.336,0.04-0.464,0.136
		S7.947,5.503,7.865,5.663C7.782,5.824,7.718,6.004,7.673,6.204c-0.045,0.2-0.08,0.398-0.104,0.593
		c-0.024,0.195-0.038,0.376-0.04,0.544C7.526,7.51,7.525,7.643,7.525,7.738C7.53,8.123,7.554,8.475,7.597,8.792
		c0.042,0.318,0.104,0.59,0.184,0.813c0.08,0.225,0.179,0.398,0.296,0.521c0.117,0.122,0.253,0.184,0.408,0.184
		c0.16,0,0.309-0.042,0.448-0.128s0.259-0.233,0.36-0.444c0.101-0.211,0.181-0.492,0.24-0.842c0.059-0.35,0.091-0.79,0.096-1.318
		c0-0.363-0.019-0.693-0.056-0.989c-0.038-0.296-0.096-0.55-0.176-0.761c-0.08-0.211-0.182-0.375-0.304-0.493
		C8.97,5.217,8.821,5.153,8.644,5.143z"/>
	<path class="st0" d="M12.013,12.335c-0.005,0.106-0.044,0.188-0.116,0.244c-0.072,0.056-0.151,0.084-0.236,0.084
		c-0.091,0-0.171-0.024-0.24-0.072s-0.104-0.125-0.104-0.232V9.543c0-0.245,0-0.447,0-0.604s-0.001-0.291-0.004-0.4
		c-0.003-0.109-0.004-0.204-0.004-0.284s-0.001-0.165-0.004-0.256c-0.003-0.091-0.005-0.199-0.008-0.324
		c-0.002-0.125-0.004-0.289-0.004-0.492c0-0.08,0.032-0.152,0.096-0.216s0.139-0.096,0.224-0.096c0.075,0,0.148,0.02,0.22,0.059
		c0.072,0.04,0.119,0.097,0.14,0.17c0.106-0.074,0.224-0.128,0.352-0.162s0.256-0.049,0.384-0.043
		c0.272,0.011,0.496,0.079,0.672,0.204c0.176,0.125,0.317,0.285,0.424,0.48c0.106,0.195,0.18,0.409,0.22,0.644
		c0.04,0.234,0.06,0.464,0.06,0.688c-0.005,0.64-0.123,1.135-0.352,1.484c-0.229,0.35-0.552,0.519-0.968,0.508
		c-0.128-0.005-0.259-0.026-0.392-0.063s-0.253-0.086-0.36-0.145V12.335z M12.004,9.878c0.075,0.155,0.183,0.263,0.324,0.324
		c0.141,0.062,0.281,0.087,0.42,0.076c0.213-0.01,0.373-0.135,0.48-0.373c0.106-0.237,0.16-0.573,0.16-1.007
		c0-0.155-0.012-0.313-0.036-0.473c-0.024-0.161-0.065-0.307-0.124-0.438s-0.136-0.238-0.232-0.321s-0.216-0.127-0.36-0.132
		c-0.171-0.005-0.319,0.039-0.444,0.132c-0.125,0.094-0.188,0.221-0.188,0.381V9.878z"/>
	<path class="st0" d="M16.197,7.495c-0.139,0-0.284,0.035-0.436,0.104s-0.287,0.149-0.404,0.24
		c-0.069,0.059-0.147,0.098-0.232,0.116c-0.085,0.019-0.163-0.009-0.232-0.084c-0.053-0.059-0.084-0.128-0.092-0.208
		s0.025-0.168,0.1-0.264c0.08-0.101,0.209-0.199,0.388-0.292s0.38-0.167,0.604-0.22c0.059-0.011,0.122-0.021,0.188-0.032
		c0.067-0.011,0.132-0.016,0.196-0.016c0.144,0,0.285,0.019,0.424,0.056c0.139,0.038,0.265,0.095,0.38,0.172
		c0.115,0.078,0.208,0.176,0.28,0.296c0.072,0.12,0.11,0.266,0.116,0.436c0.011,0.171,0.019,0.357,0.024,0.56
		c0.005,0.203,0.01,0.411,0.016,0.624c0.005,0.267,0.008,0.55,0.008,0.849s0.008,0.576,0.024,0.832
		c0.005,0.106-0.028,0.188-0.1,0.248c-0.072,0.059-0.151,0.088-0.236,0.088c-0.069,0-0.133-0.025-0.192-0.076
		c-0.059-0.051-0.096-0.116-0.112-0.196c-0.106,0.075-0.235,0.134-0.384,0.176c-0.149,0.043-0.283,0.069-0.4,0.08
		c-0.251,0.017-0.468-0.005-0.652-0.063s-0.334-0.145-0.452-0.256c-0.118-0.112-0.203-0.248-0.256-0.408s-0.075-0.336-0.064-0.528
		c0.016-0.336,0.124-0.611,0.324-0.828c0.2-0.216,0.479-0.361,0.836-0.436c0.106-0.026,0.252-0.053,0.436-0.08
		c0.184-0.026,0.361-0.04,0.532-0.04c-0.005-0.074-0.008-0.149-0.008-0.224s-0.003-0.128-0.008-0.16
		c-0.011-0.075-0.027-0.141-0.048-0.2C16.743,7.7,16.71,7.65,16.664,7.61c-0.045-0.04-0.105-0.069-0.18-0.088
		C16.41,7.504,16.314,7.495,16.197,7.495z M15.405,9.774c0,0.214,0.06,0.374,0.18,0.48c0.12,0.106,0.278,0.154,0.476,0.144
		c0.107-0.005,0.209-0.023,0.308-0.056s0.186-0.073,0.26-0.124s0.133-0.108,0.176-0.172c0.042-0.064,0.064-0.128,0.064-0.192
		c-0.005-0.149-0.009-0.296-0.012-0.439c-0.003-0.145-0.007-0.291-0.012-0.44c-0.112-0.005-0.245,0.001-0.4,0.02
		c-0.155,0.019-0.291,0.042-0.408,0.068c-0.208,0.043-0.365,0.132-0.472,0.269C15.458,9.467,15.405,9.615,15.405,9.774z"/>
	<path class="st0" d="M21.124,7.14c0.08,0.047,0.131,0.12,0.152,0.217c0.021,0.098,0.008,0.186-0.04,0.266
		c-0.043,0.075-0.101,0.125-0.172,0.152c-0.072,0.027-0.153,0.011-0.244-0.048c-0.091-0.064-0.189-0.111-0.296-0.14
		c-0.107-0.029-0.197-0.044-0.272-0.044c-0.182,0-0.337,0.043-0.468,0.128c-0.131,0.085-0.237,0.197-0.32,0.336
		S19.321,8.3,19.281,8.471c-0.04,0.17-0.061,0.341-0.061,0.512c0,0.438,0.083,0.784,0.248,1.04s0.422,0.385,0.769,0.385
		c0.128,0,0.244-0.016,0.348-0.045c0.104-0.028,0.207-0.078,0.308-0.147c0.086-0.059,0.163-0.076,0.232-0.052
		c0.069,0.023,0.125,0.065,0.168,0.124c0.037,0.059,0.056,0.124,0.056,0.195c0,0.072-0.026,0.138-0.08,0.196
		c-0.053,0.059-0.119,0.109-0.199,0.152c-0.08,0.042-0.166,0.077-0.256,0.104c-0.091,0.026-0.185,0.048-0.28,0.064
		c-0.096,0.016-0.185,0.023-0.265,0.023c-0.304,0.006-0.566-0.045-0.787-0.151c-0.222-0.106-0.404-0.253-0.549-0.439
		c-0.144-0.186-0.25-0.407-0.319-0.662c-0.069-0.256-0.104-0.532-0.104-0.831c0-0.303,0.039-0.58,0.116-0.831
		c0.077-0.25,0.19-0.464,0.34-0.643s0.331-0.316,0.544-0.415c0.214-0.099,0.456-0.148,0.729-0.148c0.181,0,0.344,0.021,0.487,0.063
		C20.868,7.008,21.001,7.066,21.124,7.14z"/>
	<path class="st0" d="M22.412,5.575c-0.192,0-0.331-0.06-0.416-0.18c-0.086-0.12-0.112-0.252-0.08-0.396
		c0.026-0.139,0.077-0.24,0.151-0.304c0.075-0.064,0.174-0.106,0.296-0.128c0.075-0.011,0.146-0.004,0.213,0.02
		c0.066,0.024,0.125,0.062,0.176,0.112c0.051,0.05,0.091,0.109,0.12,0.176c0.029,0.067,0.044,0.137,0.044,0.212
		c-0.006,0.123-0.047,0.235-0.124,0.336C22.714,5.524,22.588,5.575,22.412,5.575z M22.188,6.291c0.069-0.056,0.149-0.084,0.24-0.084
		c0.096,0,0.183,0.032,0.26,0.096c0.077,0.064,0.111,0.149,0.101,0.256c0,0.101-0.002,0.19-0.004,0.268
		C22.782,6.904,22.78,6.98,22.78,7.055c0,0.139,0.002,0.288,0.005,0.448c0.002,0.16,0.006,0.376,0.012,0.648l0.063,2.536
		c0,0.117-0.037,0.204-0.111,0.26c-0.075,0.057-0.155,0.084-0.24,0.084c-0.086,0-0.161-0.029-0.229-0.088
		c-0.066-0.059-0.104-0.139-0.115-0.239c-0.006-0.208-0.011-0.429-0.017-0.66c-0.005-0.232-0.011-0.463-0.016-0.692
		c-0.006-0.229-0.011-0.449-0.017-0.66c-0.005-0.21-0.008-0.396-0.008-0.556c0-0.17-0.001-0.308-0.004-0.412
		s-0.007-0.201-0.012-0.292c-0.006-0.091-0.008-0.18-0.008-0.268s0-0.186,0-0.292V6.55C22.084,6.433,22.118,6.347,22.188,6.291z"/>
	<path class="st0" d="M23.656,7.179c-0.056-0.062-0.084-0.129-0.084-0.204s0.029-0.146,0.088-0.212c0.059-0.067,0.146-0.1,0.265-0.1
		h0.479V5.238c0-0.096,0.039-0.172,0.116-0.228c0.077-0.056,0.156-0.084,0.236-0.084c0.079,0,0.161,0.027,0.243,0.08
		c0.083,0.054,0.124,0.133,0.124,0.24v1.4c0.128-0.005,0.251-0.007,0.368-0.004c0.117,0.002,0.251,0.004,0.4,0.004
		c0.101,0,0.175,0.036,0.22,0.108c0.045,0.072,0.068,0.14,0.068,0.204c0,0.069-0.025,0.137-0.076,0.204s-0.127,0.1-0.229,0.1
		c-0.122,0-0.243,0.001-0.363,0.004c-0.12,0.002-0.25,0.007-0.389,0.012c0,0.139-0.001,0.256-0.004,0.352
		c-0.003,0.096-0.004,0.189-0.004,0.28s0,0.187,0,0.288c0,0.101,0,0.224,0,0.368c0,0.251,0.001,0.528,0.004,0.832
		c0.003,0.305,0.01,0.584,0.021,0.84c0.005,0.118,0.059,0.174,0.16,0.169c0.079,0,0.165-0.007,0.256-0.021s0.17-0.028,0.239-0.044
		c0.155-0.037,0.265-0.024,0.328,0.04c0.064,0.063,0.097,0.146,0.097,0.248c0,0.059-0.018,0.113-0.053,0.164
		c-0.034,0.051-0.095,0.095-0.18,0.132c-0.139,0.054-0.273,0.085-0.404,0.096s-0.252,0.019-0.363,0.024
		c-0.251,0.011-0.444-0.048-0.58-0.176c-0.137-0.128-0.21-0.32-0.221-0.576c-0.005-0.128-0.009-0.266-0.012-0.412
		S24.403,9.587,24.4,9.435c-0.003-0.151-0.004-0.3-0.004-0.444s0-0.28,0-0.408c0-0.106-0.002-0.201-0.004-0.284
		c-0.003-0.083-0.004-0.161-0.004-0.236c0-0.064,0-0.123,0-0.176s0-0.108,0-0.164c0-0.056,0.001-0.119,0.004-0.188
		c0.002-0.069,0.004-0.152,0.004-0.248h-0.488C23.795,7.276,23.711,7.24,23.656,7.179z"/>
	<path class="st0" d="M29.084,7.126c0.021-0.085,0.063-0.148,0.128-0.188c0.063-0.04,0.133-0.06,0.208-0.06
		c0.106,0,0.198,0.039,0.276,0.116c0.077,0.077,0.097,0.18,0.06,0.308c-0.139,0.453-0.281,0.897-0.428,1.332
		c-0.147,0.435-0.309,0.89-0.484,1.365c-0.139,0.368-0.303,0.777-0.492,1.228c-0.189,0.451-0.398,0.89-0.628,1.316
		c-0.016,0.032-0.04,0.062-0.072,0.088c-0.031,0.026-0.07,0.048-0.115,0.063c-0.046,0.017-0.094,0.023-0.145,0.021
		s-0.103-0.018-0.156-0.044c-0.074-0.037-0.121-0.105-0.14-0.204s-0.012-0.178,0.021-0.236c0.139-0.267,0.277-0.548,0.416-0.844
		s0.261-0.609,0.367-0.94c-0.219-0.517-0.439-1.039-0.664-1.568c-0.224-0.528-0.424-1.026-0.6-1.496
		c-0.026-0.064-0.033-0.125-0.02-0.184c0.013-0.059,0.035-0.109,0.067-0.152c0.032-0.042,0.073-0.077,0.124-0.104
		c0.051-0.026,0.103-0.04,0.156-0.04c0.069,0,0.135,0.019,0.196,0.056c0.061,0.038,0.107,0.104,0.14,0.2
		c0.139,0.4,0.293,0.8,0.464,1.2s0.342,0.819,0.512,1.257c0.069-0.192,0.141-0.385,0.213-0.576c0.071-0.192,0.141-0.389,0.208-0.588
		c0.066-0.2,0.133-0.408,0.199-0.624C28.963,7.61,29.026,7.377,29.084,7.126z"/>
</g>
</svg>
