<?xml version="1.0" encoding="utf-8"?>
<!-- Generator: Adobe Illustrator 21.1.0, SVG Export Plug-In . SVG Version: 6.00 Build 0)  -->
<svg version="1.1" id="레이어_1" xmlns="http://www.w3.org/2000/svg" xmlns:xlink="http://www.w3.org/1999/xlink" x="0px"
	 y="0px" viewBox="0 0 36.417 16" style="enable-background:new 0 0 36.417 16;" xml:space="preserve">
<style type="text/css">
	.st0{fill:#FFFFFF;}
</style>
<g>
	<path class="st0" d="M14.56,9.646c0.229-0.011,0.344,0.091,0.344,0.305c0,0.101-0.019,0.176-0.056,0.224
		c-0.038,0.048-0.102,0.088-0.192,0.12c-0.027,0.011-0.062,0.018-0.104,0.02c-0.043,0.003-0.085,0.004-0.128,0.004
		c-0.048,0-0.096-0.002-0.144-0.008c-0.171,0-0.343-0.002-0.516-0.008c-0.173-0.005-0.345-0.008-0.516-0.008
		c-0.309,0-0.619-0.001-0.928-0.004c-0.31-0.003-0.616-0.004-0.92-0.004c-0.304,0-0.579,0.004-0.824,0.012
		c-0.246,0.008-0.507,0.015-0.784,0.02c-0.042,0-0.113,0.002-0.212,0.005c-0.099,0.002-0.209,0.004-0.332,0.004
		c-0.091,0-0.168-0.031-0.232-0.093C8.952,10.174,8.92,10.09,8.92,9.982c0-0.08,0.032-0.15,0.096-0.212
		C9.08,9.71,9.158,9.679,9.248,9.679c0.149,0,0.323,0.001,0.52,0.004s0.4,0.003,0.608,0s0.412-0.005,0.612-0.008
		c0.2-0.003,0.38-0.01,0.54-0.021c0-0.085,0.001-0.185,0.004-0.3c0.002-0.114,0.005-0.233,0.008-0.356
		c0.003-0.123,0.004-0.243,0.004-0.36s-0.002-0.221-0.008-0.312c-0.005-0.123,0.031-0.213,0.108-0.272s0.161-0.093,0.252-0.104
		c0.085-0.005,0.164,0.02,0.236,0.076c0.072,0.056,0.113,0.138,0.124,0.244c0,0.016,0.001,0.047,0.004,0.092
		c0.002,0.045,0.004,0.096,0.004,0.152c0,0.056,0,0.111,0,0.164s0,0.093,0,0.12c0,0.182-0.003,0.335-0.008,0.46
		c-0.005,0.125-0.011,0.258-0.016,0.396c0.368,0.011,0.743,0.016,1.124,0.013S14.144,9.657,14.56,9.646z M10.089,8.134
		c-0.091,0.043-0.178,0.058-0.26,0.044c-0.083-0.014-0.14-0.06-0.172-0.14C9.593,7.884,9.64,7.748,9.801,7.63
		c0.181-0.117,0.365-0.267,0.552-0.448s0.361-0.372,0.524-0.572c0.163-0.2,0.307-0.402,0.432-0.608
		c0.125-0.205,0.215-0.396,0.268-0.572c0.011-0.048,0.028-0.115,0.052-0.2c0.024-0.085,0.036-0.173,0.036-0.264
		c0-0.138,0.036-0.237,0.108-0.296c0.072-0.059,0.151-0.088,0.236-0.088c0.096,0,0.184,0.019,0.264,0.056
		c0.08,0.037,0.125,0.133,0.136,0.288c0,0.229-0.027,0.443-0.08,0.64c-0.011,0.027-0.019,0.052-0.024,0.076
		s-0.014,0.049-0.024,0.076c0.085,0.154,0.196,0.314,0.332,0.48c0.136,0.165,0.284,0.329,0.444,0.492s0.327,0.319,0.5,0.468
		s0.343,0.283,0.508,0.4c0.069,0.053,0.119,0.12,0.148,0.2c0.029,0.08,0.025,0.155-0.012,0.224c-0.043,0.075-0.109,0.119-0.2,0.132
		c-0.091,0.013-0.203-0.02-0.336-0.1c-0.283-0.166-0.583-0.387-0.9-0.664s-0.604-0.568-0.86-0.872
		c-0.133,0.203-0.283,0.394-0.448,0.572c-0.166,0.179-0.331,0.34-0.496,0.484c-0.165,0.144-0.324,0.268-0.476,0.372
		C10.332,8.011,10.201,8.086,10.089,8.134z"/>
	<path class="st0" d="M17.105,5.823c0.208-0.005,0.402,0.012,0.584,0.052c0.181,0.04,0.338,0.105,0.472,0.196
		c0.133,0.091,0.238,0.206,0.315,0.344c0.078,0.139,0.116,0.299,0.116,0.48c0,0.197-0.032,0.363-0.096,0.496
		c-0.064,0.133-0.148,0.243-0.252,0.328c-0.104,0.085-0.221,0.15-0.352,0.196c-0.13,0.045-0.26,0.079-0.388,0.1
		c0.005,0.085,0.008,0.165,0.008,0.24s0,0.149,0,0.224c0.245-0.011,0.472-0.032,0.68-0.064c0.208-0.032,0.416-0.064,0.624-0.096
		c0.08-0.01,0.159,0.001,0.239,0.036s0.123,0.103,0.128,0.204c0.006,0.117-0.022,0.203-0.084,0.256
		c-0.061,0.053-0.132,0.085-0.212,0.096c-0.33,0.053-0.639,0.096-0.923,0.128c-0.286,0.031-0.599,0.053-0.94,0.063
		c-0.085,0.006-0.197,0.008-0.336,0.008c-0.139,0-0.256,0-0.352,0c-0.149,0-0.297,0-0.444,0c-0.146,0-0.276-0.002-0.388-0.008
		c-0.075-0.005-0.151-0.027-0.228-0.067c-0.078-0.041-0.116-0.122-0.116-0.245c0-0.106,0.031-0.184,0.092-0.232
		c0.061-0.048,0.134-0.072,0.22-0.072h1.336V8.422c0-0.059,0-0.121,0-0.188c0-0.066-0.002-0.134-0.008-0.204
		c-0.336-0.042-0.604-0.164-0.804-0.364c-0.2-0.2-0.3-0.449-0.3-0.748c0-0.203,0.042-0.372,0.128-0.508
		c0.085-0.136,0.196-0.247,0.332-0.332c0.136-0.085,0.287-0.148,0.452-0.188C16.774,5.851,16.939,5.828,17.105,5.823z M15.649,5.615
		c-0.224,0-0.336-0.107-0.336-0.32c0-0.085,0.036-0.156,0.108-0.212c0.072-0.056,0.185-0.079,0.34-0.068h0.8
		c0.166,0,0.344,0,0.536,0s0.384,0.001,0.576,0.004c0.192,0.003,0.377,0.005,0.556,0.008c0.178,0.003,0.34,0.007,0.483,0.012
		c0.091,0.011,0.167,0.039,0.229,0.084c0.061,0.045,0.092,0.113,0.092,0.204c0,0.128-0.031,0.208-0.092,0.24
		c-0.062,0.032-0.141,0.048-0.236,0.048h-0.336c-0.208,0-0.471-0.001-0.788-0.004c-0.317-0.002-0.644-0.004-0.98-0.004
		c-0.17,0-0.336,0-0.496,0C15.945,5.606,15.793,5.609,15.649,5.615z M16.481,4.606c-0.102-0.026-0.178-0.064-0.228-0.112
		c-0.051-0.048-0.074-0.123-0.068-0.224c0.005-0.106,0.051-0.181,0.136-0.224c0.085-0.042,0.179-0.056,0.28-0.04
		c0.187,0.043,0.357,0.072,0.512,0.088c0.155,0.016,0.32,0.024,0.496,0.024h0.28c0.091-0.005,0.169,0.015,0.236,0.06
		c0.066,0.045,0.099,0.119,0.099,0.22c0,0.102-0.026,0.177-0.079,0.228c-0.054,0.051-0.12,0.079-0.2,0.084
		c-0.064,0.005-0.129,0.008-0.196,0.008c-0.067,0-0.129,0-0.188,0c-0.133,0-0.3-0.007-0.5-0.02
		C16.861,4.685,16.667,4.654,16.481,4.606z M17.169,10.831c0.224,0.005,0.433,0.009,0.628,0.012c0.194,0.003,0.388,0.004,0.58,0.004
		c0.251,0,0.501-0.003,0.752-0.008c0.251-0.006,0.536-0.014,0.856-0.024c0.08,0,0.158,0.028,0.235,0.084
		c0.077,0.057,0.121,0.121,0.133,0.196c0.005,0.112-0.021,0.2-0.08,0.264c-0.06,0.064-0.128,0.102-0.208,0.112
		c-0.203,0.011-0.399,0.016-0.589,0.016c-0.188,0-0.358,0-0.508,0h-0.584c-0.202,0-0.414,0-0.635,0c-0.222,0-0.49,0.003-0.804,0.009
		c-0.117,0-0.216-0.009-0.296-0.024s-0.144-0.047-0.192-0.092c-0.048-0.046-0.083-0.109-0.104-0.192
		c-0.021-0.082-0.032-0.188-0.032-0.315c0-0.048,0.001-0.113,0.004-0.196c0.003-0.083,0.005-0.172,0.008-0.268
		c0.002-0.097,0.004-0.193,0.004-0.292s0-0.188,0-0.269c-0.005-0.122,0.033-0.216,0.116-0.28c0.083-0.063,0.177-0.096,0.284-0.096
		c0.075,0,0.15,0.026,0.228,0.08c0.077,0.054,0.116,0.142,0.116,0.264c0,0.064,0,0.137,0,0.216c0,0.08-0.001,0.162-0.004,0.244
		c-0.002,0.083-0.004,0.163-0.004,0.24s0,0.143,0,0.196c0,0.059,0.007,0.093,0.02,0.104S17.131,10.831,17.169,10.831z M17.113,6.391
		c-0.203,0.011-0.369,0.057-0.5,0.14c-0.131,0.083-0.199,0.212-0.204,0.388c-0.005,0.155,0.047,0.29,0.156,0.404
		c0.109,0.115,0.297,0.169,0.564,0.164c0.272-0.01,0.466-0.061,0.584-0.152c0.117-0.091,0.176-0.237,0.176-0.44
		c0-0.096-0.021-0.177-0.064-0.244c-0.042-0.066-0.1-0.12-0.172-0.16c-0.072-0.04-0.155-0.068-0.248-0.084
		C17.311,6.391,17.214,6.385,17.113,6.391z M19.489,9.526c0-0.213,0.001-0.417,0.004-0.612s0.004-0.391,0.004-0.588s0-0.401,0-0.612
		c0-0.21,0-0.441,0-0.692c-0.006-0.517-0.008-0.98-0.008-1.388c0-0.408-0.008-0.758-0.024-1.052
		c-0.005-0.106,0.026-0.192,0.096-0.256s0.149-0.102,0.24-0.112c0.091-0.01,0.181,0.016,0.269,0.08s0.132,0.152,0.132,0.264
		c0,0.091,0,0.22,0,0.388c0,0.168,0.003,0.351,0.008,0.548c0.005,0.245,0.007,0.476,0.004,0.692s-0.004,0.409-0.004,0.58
		c0.08,0,0.149,0,0.208,0s0.119,0,0.18,0c0.062,0,0.124-0.001,0.188-0.004c0.063-0.003,0.142-0.004,0.231-0.004
		c0.123-0.005,0.213,0.027,0.269,0.096s0.089,0.142,0.1,0.216c0,0.085-0.03,0.164-0.092,0.236c-0.062,0.072-0.156,0.108-0.284,0.108
		c-0.154,0-0.292,0.001-0.412,0.004c-0.12,0.003-0.249,0.004-0.388,0.004l-0.008,1.705c0,0.063-0.002,0.14-0.004,0.228
		c-0.003,0.088-0.013,0.162-0.028,0.221c-0.032,0.096-0.077,0.161-0.136,0.195c-0.059,0.035-0.128,0.053-0.208,0.053
		c-0.102,0-0.183-0.028-0.244-0.085C19.519,9.683,19.489,9.612,19.489,9.526z"/>
	<path class="st0" d="M27.072,8.342c0.102-0.01,0.189,0.004,0.265,0.045c0.074,0.041,0.111,0.123,0.111,0.247
		c0,0.103-0.023,0.178-0.072,0.227c-0.048,0.049-0.119,0.081-0.216,0.098c-0.048,0.011-0.128,0.017-0.239,0.02
		c-0.112,0.003-0.228,0.004-0.345,0.004h-0.439c-0.235,0-0.455,0-0.66,0s-0.409,0.003-0.612,0.008v0.584
		c0,0.25,0.001,0.472,0.004,0.663c0.003,0.192,0.002,0.357-0.004,0.496c0,0.021,0,0.058,0,0.108s-0.001,0.103-0.004,0.156
		c-0.003,0.053-0.007,0.105-0.012,0.155c-0.006,0.051-0.011,0.087-0.017,0.108c-0.026,0.091-0.075,0.156-0.147,0.196
		s-0.148,0.055-0.229,0.044c-0.091-0.011-0.168-0.042-0.231-0.092c-0.064-0.051-0.096-0.122-0.096-0.212c0-0.032,0-0.071,0-0.116
		c0-0.046,0.001-0.09,0.004-0.132c0.002-0.043,0.004-0.08,0.004-0.112s0-0.054,0-0.064c0-0.048,0.001-0.129,0.004-0.244
		c0.003-0.114,0.004-0.252,0.004-0.411c0-0.16,0-0.335,0-0.524s0-0.385,0-0.588c-0.064,0-0.131,0-0.2,0s-0.164,0-0.284,0
		s-0.271,0-0.456,0c-0.184,0-0.423,0-0.716,0c-0.048,0-0.107,0-0.18,0s-0.145,0-0.216,0c-0.072,0-0.139,0-0.2,0
		s-0.105-0.003-0.132-0.008c-0.097-0.011-0.166-0.049-0.208-0.113c-0.043-0.065-0.059-0.146-0.048-0.243
		c0.016-0.103,0.057-0.171,0.124-0.207c0.066-0.035,0.143-0.058,0.228-0.069c0.048-0.005,0.106-0.007,0.176-0.004
		c0.069,0.003,0.134,0.007,0.192,0.012c0.112,0.005,0.23,0.009,0.355,0.012c0.126,0.002,0.27,0.004,0.433,0.004
		c0.162,0,0.348,0,0.556,0s0.445,0,0.712,0c0.581,0,1.197-0.008,1.849-0.024c0.085,0,0.183-0.001,0.292-0.004
		c0.108-0.002,0.212-0.006,0.308-0.012C26.84,8.345,26.954,8.342,27.072,8.342z M22.616,7.615c-0.091,0.037-0.176,0.053-0.256,0.048
		s-0.139-0.056-0.176-0.152c-0.059-0.155,0.003-0.286,0.184-0.392c0.192-0.107,0.383-0.235,0.572-0.384
		c0.189-0.149,0.364-0.311,0.524-0.484c0.159-0.173,0.297-0.356,0.411-0.548c0.115-0.192,0.193-0.384,0.236-0.576
		c0.011-0.048,0.019-0.099,0.024-0.152c0.005-0.053,0.011-0.123,0.016-0.208c0.005-0.133,0.043-0.231,0.112-0.292
		c0.069-0.062,0.149-0.092,0.24-0.092c0.096,0,0.183,0.024,0.26,0.072s0.121,0.141,0.132,0.28c0,0.032-0.001,0.079-0.004,0.14
		c-0.003,0.062-0.007,0.111-0.012,0.148c-0.017,0.117-0.046,0.237-0.089,0.36c0.102,0.155,0.231,0.317,0.389,0.488
		s0.319,0.332,0.487,0.484c0.169,0.152,0.334,0.29,0.496,0.412c0.163,0.123,0.301,0.216,0.412,0.28
		c0.08,0.043,0.137,0.104,0.168,0.184c0.032,0.08,0.027,0.157-0.016,0.232c-0.085,0.144-0.259,0.155-0.521,0.032
		c-0.111-0.053-0.241-0.128-0.388-0.224s-0.297-0.207-0.452-0.332c-0.154-0.125-0.312-0.26-0.472-0.404s-0.307-0.293-0.44-0.448
		c-0.128,0.192-0.271,0.371-0.428,0.536s-0.318,0.313-0.483,0.444c-0.166,0.131-0.33,0.243-0.492,0.336
		C22.889,7.496,22.743,7.566,22.616,7.615z"/>
</g>
</svg>
