<?xml version="1.0" encoding="utf-8"?>
<!-- Generator: Adobe Illustrator 21.1.0, SVG Export Plug-In . SVG Version: 6.00 Build 0)  -->
<svg version="1.1" id="레이어_1" xmlns="http://www.w3.org/2000/svg" xmlns:xlink="http://www.w3.org/1999/xlink" x="0px"
	 y="0px" viewBox="0 0 36.417 16" style="enable-background:new 0 0 36.417 16;" xml:space="preserve">
<style type="text/css">
	.st0{fill:#FFFFFF;}
</style>
<g>
	<path class="st0" d="M11.928,10.575c0.011-0.604,0.018-1.219,0.02-1.849c0.003-0.629,0.004-1.219,0.004-1.768
		c0-0.4-0.001-0.771-0.004-1.112c-0.002-0.341-0.006-0.653-0.012-0.936v0.016c-0.011-0.064-0.005-0.123,0.016-0.176
		c0.016-0.042,0.049-0.084,0.1-0.124s0.129-0.065,0.236-0.076c0.213,0,0.46,0.008,0.74,0.024c0.28,0.016,0.553,0.075,0.82,0.176
		c0.341,0.133,0.612,0.355,0.812,0.664c0.2,0.31,0.308,0.675,0.324,1.096C15,6.857,14.951,7.168,14.836,7.442
		c-0.115,0.275-0.276,0.509-0.484,0.704s-0.456,0.347-0.744,0.456s-0.597,0.172-0.928,0.188v1.745
		c0.021,0.122-0.008,0.224-0.088,0.304s-0.173,0.12-0.28,0.12c-0.053,0-0.108-0.01-0.164-0.028S12.043,10.876,12,10.823
		C11.952,10.759,11.928,10.676,11.928,10.575z M12.681,8.119c0.224-0.016,0.433-0.064,0.628-0.144
		c0.194-0.08,0.362-0.188,0.504-0.324c0.141-0.136,0.25-0.296,0.328-0.48c0.077-0.184,0.113-0.385,0.108-0.604
		c-0.011-0.309-0.08-0.564-0.208-0.764c-0.128-0.2-0.299-0.346-0.512-0.436c-0.048-0.021-0.108-0.04-0.18-0.056
		c-0.072-0.016-0.147-0.029-0.224-0.04c-0.078-0.011-0.155-0.02-0.232-0.028c-0.078-0.008-0.148-0.015-0.212-0.02V8.119z"/>
	<path class="st0" d="M15.361,8.862c0.005-0.245,0.039-0.486,0.1-0.724c0.061-0.237,0.158-0.448,0.292-0.632
		c0.133-0.184,0.302-0.332,0.508-0.444c0.205-0.112,0.455-0.168,0.748-0.168c0.155,0,0.311,0.033,0.468,0.1
		c0.157,0.066,0.3,0.168,0.428,0.304c0.128,0.136,0.234,0.307,0.319,0.512c0.086,0.206,0.134,0.447,0.145,0.724
		c0.005,0.117-0.012,0.219-0.052,0.304c-0.04,0.085-0.143,0.144-0.308,0.176c-0.075,0.016-0.191,0.029-0.348,0.04
		s-0.329,0.021-0.516,0.032C16.958,9.098,16.77,9.105,16.58,9.11c-0.189,0.006-0.356,0.011-0.5,0.017
		c0.005,0.144,0.02,0.291,0.044,0.439c0.024,0.149,0.071,0.286,0.14,0.408c0.069,0.123,0.168,0.223,0.296,0.3
		c0.128,0.078,0.299,0.116,0.512,0.116c0.133,0,0.263-0.023,0.388-0.072c0.125-0.048,0.241-0.101,0.348-0.159
		c0.091-0.049,0.173-0.058,0.248-0.028s0.133,0.076,0.176,0.14c0.037,0.059,0.052,0.126,0.044,0.2
		c-0.009,0.074-0.05,0.142-0.124,0.2c-0.176,0.128-0.355,0.217-0.536,0.268s-0.376,0.076-0.584,0.076
		c-0.565,0-0.989-0.187-1.272-0.56C15.478,10.081,15.345,9.551,15.361,8.862z M16.976,7.55c-0.256-0.01-0.461,0.075-0.616,0.256
		c-0.155,0.181-0.24,0.413-0.256,0.696c0.133,0,0.328-0.001,0.584-0.004c0.256-0.002,0.579-0.025,0.968-0.068
		c-0.011-0.288-0.084-0.504-0.22-0.648C17.301,7.639,17.147,7.561,16.976,7.55z"/>
	<path class="st0" d="M18.821,7.179c-0.057-0.062-0.084-0.129-0.084-0.204s0.029-0.146,0.088-0.212c0.059-0.067,0.146-0.1,0.264-0.1
		h0.48V5.238c0-0.096,0.038-0.172,0.115-0.228c0.077-0.056,0.156-0.084,0.236-0.084s0.161,0.027,0.244,0.08
		c0.082,0.054,0.124,0.133,0.124,0.24v1.4c0.128-0.005,0.25-0.007,0.368-0.004c0.117,0.002,0.25,0.004,0.399,0.004
		c0.102,0,0.175,0.036,0.221,0.108c0.045,0.072,0.067,0.14,0.067,0.204c0,0.069-0.025,0.137-0.076,0.204s-0.126,0.1-0.228,0.1
		c-0.123,0-0.244,0.001-0.364,0.004c-0.12,0.002-0.249,0.007-0.388,0.012c0,0.139-0.002,0.256-0.004,0.352
		c-0.003,0.096-0.004,0.189-0.004,0.28s0,0.187,0,0.288c0,0.101,0,0.224,0,0.368c0,0.251,0.001,0.528,0.004,0.832
		c0.002,0.305,0.009,0.584,0.02,0.84c0.006,0.118,0.059,0.174,0.16,0.169c0.08,0,0.165-0.007,0.256-0.021s0.171-0.028,0.24-0.044
		c0.154-0.037,0.264-0.024,0.328,0.04c0.063,0.063,0.096,0.146,0.096,0.248c0,0.059-0.018,0.113-0.052,0.164
		c-0.035,0.051-0.095,0.095-0.18,0.132c-0.14,0.054-0.273,0.085-0.404,0.096s-0.252,0.019-0.364,0.024
		c-0.251,0.011-0.444-0.048-0.58-0.176s-0.209-0.32-0.22-0.576c-0.006-0.128-0.01-0.266-0.012-0.412
		c-0.003-0.146-0.006-0.296-0.009-0.448c-0.002-0.151-0.004-0.3-0.004-0.444s0-0.28,0-0.408c0-0.106-0.001-0.201-0.004-0.284
		c-0.003-0.083-0.004-0.161-0.004-0.236c0-0.064,0-0.123,0-0.176s0-0.108,0-0.164c0-0.056,0.001-0.119,0.004-0.188
		s0.004-0.152,0.004-0.248h-0.487C18.96,7.276,18.876,7.24,18.821,7.179z"/>
	<path class="st0" d="M24.712,7.575c0.037,0.09,0.038,0.167,0.004,0.228c-0.035,0.061-0.084,0.108-0.148,0.14
		C24.493,7.98,24.41,7.991,24.32,7.975s-0.154-0.064-0.191-0.144c-0.043-0.096-0.127-0.176-0.252-0.24
		c-0.126-0.064-0.282-0.096-0.469-0.096c-0.139,0-0.253,0.039-0.344,0.116c-0.091,0.078-0.136,0.169-0.136,0.276
		c0,0.042,0.011,0.088,0.032,0.136c0.021,0.048,0.053,0.091,0.096,0.128c0.096,0.091,0.198,0.163,0.308,0.216s0.223,0.106,0.34,0.16
		c0.139,0.059,0.275,0.122,0.408,0.188c0.134,0.067,0.254,0.153,0.36,0.26c0.112,0.106,0.194,0.23,0.248,0.372
		c0.053,0.142,0.08,0.287,0.08,0.437c0,0.224-0.04,0.414-0.12,0.571s-0.19,0.287-0.332,0.389c-0.142,0.101-0.306,0.176-0.492,0.224
		s-0.384,0.069-0.592,0.063c-0.112-0.005-0.227-0.021-0.344-0.048c-0.118-0.026-0.231-0.066-0.341-0.12
		c-0.109-0.053-0.21-0.122-0.304-0.208c-0.093-0.085-0.172-0.188-0.235-0.312c-0.054-0.106-0.064-0.198-0.032-0.276
		c0.032-0.077,0.091-0.134,0.176-0.172c0.074-0.042,0.161-0.051,0.26-0.023c0.099,0.026,0.17,0.077,0.212,0.151
		c0.139,0.24,0.365,0.371,0.681,0.393c0.202,0.011,0.377-0.028,0.523-0.116c0.146-0.089,0.22-0.253,0.22-0.493
		c0-0.075-0.012-0.151-0.035-0.229c-0.024-0.078-0.063-0.144-0.116-0.196c-0.096-0.102-0.201-0.18-0.316-0.232
		c-0.114-0.054-0.23-0.104-0.348-0.153c-0.139-0.053-0.273-0.108-0.404-0.164s-0.249-0.135-0.355-0.237
		c-0.112-0.096-0.193-0.203-0.244-0.32s-0.076-0.238-0.076-0.361c0-0.134,0.028-0.262,0.084-0.385
		c0.056-0.123,0.135-0.233,0.236-0.333c0.101-0.099,0.225-0.179,0.372-0.241c0.146-0.062,0.308-0.095,0.483-0.1
		c0.373-0.011,0.672,0.052,0.896,0.187C24.48,7.176,24.632,7.354,24.712,7.575z"/>
</g>
</svg>
