<?xml version="1.0" encoding="utf-8"?>
<!-- Generator: Adobe Illustrator 21.1.0, SVG Export Plug-In . SVG Version: 6.00 Build 0)  -->
<svg version="1.1" id="레이어_1" xmlns="http://www.w3.org/2000/svg" xmlns:xlink="http://www.w3.org/1999/xlink" x="0px"
	 y="0px" viewBox="0 0 36.417 16" style="enable-background:new 0 0 36.417 16;" xml:space="preserve">
<style type="text/css">
	.st0{fill:#FFFFFF;}
</style>
<g>
	<path class="st0" d="M17.8,9.463c0.251,0,0.376,0.093,0.376,0.28c0,0.106-0.021,0.184-0.064,0.231
		c-0.042,0.048-0.104,0.086-0.184,0.112c-0.032,0.011-0.077,0.018-0.136,0.02c-0.059,0.003-0.118,0.004-0.176,0.004
		c-0.069,0-0.144-0.002-0.224-0.008c-0.171,0-0.316-0.001-0.436-0.004s-0.266-0.004-0.436-0.004h-1.432
		c-0.304,0-0.603,0.001-0.896,0.004s-0.582,0.007-0.864,0.012c-0.021,0-0.059,0-0.112,0s-0.117,0.002-0.192,0.005
		c-0.075,0.002-0.153,0.004-0.236,0.004c-0.083,0-0.164,0-0.244,0c-0.091,0-0.168-0.029-0.232-0.089
		c-0.064-0.059-0.096-0.141-0.096-0.247c0-0.16,0.085-0.262,0.256-0.305c0.026-0.005,0.069-0.009,0.128-0.012
		c0.059-0.003,0.121-0.004,0.188-0.004c0.066,0,0.129,0,0.188,0c0.059,0,0.104,0,0.136,0c0.411,0,0.813-0.001,1.208-0.004
		s0.72-0.004,0.976-0.004c0.091,0,0.193,0.001,0.308,0.004s0.264,0.004,0.448,0.004c0.184,0,0.416,0,0.696,0
		C17.028,9.463,17.379,9.463,17.8,9.463z M13.48,5.511c-0.102,0-0.18-0.029-0.236-0.088c-0.056-0.059-0.089-0.13-0.1-0.216
		c-0.005-0.085,0.021-0.164,0.08-0.236c0.059-0.072,0.149-0.108,0.272-0.108h0.424c0.139,0,0.305-0.002,0.5-0.008
		s0.405-0.009,0.632-0.012c0.227-0.002,0.464-0.006,0.712-0.012c0.248-0.005,0.492-0.008,0.732-0.008
		c0.176,0,0.302,0.022,0.38,0.068c0.077,0.045,0.121,0.145,0.132,0.3c0.005,0.059,0.009,0.146,0.012,0.26
		c0.002,0.115,0.004,0.214,0.004,0.3c0,0.224-0.005,0.469-0.016,0.736c-0.011,0.267-0.024,0.531-0.04,0.792
		c-0.016,0.262-0.035,0.504-0.056,0.728c-0.021,0.224-0.043,0.403-0.064,0.536c-0.021,0.107-0.064,0.191-0.128,0.252
		c-0.064,0.062-0.16,0.087-0.288,0.076c-0.085-0.011-0.152-0.056-0.2-0.136s-0.067-0.168-0.056-0.264
		c0-0.032,0.003-0.085,0.008-0.16c0.005-0.075,0.012-0.167,0.02-0.276c0.008-0.109,0.016-0.231,0.024-0.364
		c0.008-0.133,0.017-0.274,0.028-0.424c-0.166,0.005-0.357,0.009-0.576,0.012c-0.219,0.003-0.44,0.005-0.664,0.008
		c-0.224,0.002-0.439,0.004-0.644,0.004c-0.206,0-0.38,0-0.524,0c-0.091,0-0.171-0.001-0.24-0.004
		c-0.069-0.003-0.117-0.004-0.144-0.004c-0.075-0.005-0.151-0.028-0.228-0.068S13.12,7.076,13.12,6.958
		c0-0.101,0.036-0.184,0.108-0.248c0.072-0.064,0.164-0.096,0.276-0.096c0.042,0,0.123,0,0.24,0c0.117,0,0.256,0,0.416,0
		c0.16,0,0.334-0.001,0.524-0.004c0.189-0.002,0.38-0.004,0.572-0.004s0.377-0.001,0.556-0.004c0.179-0.002,0.337-0.004,0.476-0.004
		c0.005-0.123,0.009-0.24,0.012-0.352c0.003-0.112,0.004-0.221,0.004-0.328c0-0.075-0.001-0.137-0.004-0.188
		c-0.002-0.051-0.004-0.105-0.004-0.164c0-0.053-0.029-0.08-0.088-0.08c-0.128,0-0.312,0.001-0.552,0.004
		c-0.24,0.002-0.495,0.005-0.764,0.008c-0.27,0.003-0.532,0.005-0.788,0.008C13.848,5.509,13.64,5.511,13.48,5.511z"/>
	<path class="st0" d="M19.176,5.398c-0.123,0-0.215-0.031-0.276-0.095c-0.062-0.063-0.092-0.134-0.092-0.213
		c0-0.084,0.033-0.158,0.1-0.221c0.066-0.063,0.161-0.092,0.284-0.087c0.139,0.005,0.316,0.008,0.532,0.008s0.452-0.002,0.708-0.008
		c0.139-0.005,0.268-0.008,0.388-0.008s0.236-0.005,0.348-0.016c0.021,0,0.062-0.001,0.12-0.004C21.346,4.752,21.384,4.75,21.4,4.75
		c0.213-0.011,0.364,0.03,0.452,0.123s0.107,0.267,0.06,0.525c-0.074,0.374-0.197,0.755-0.368,1.144
		c-0.17,0.39-0.373,0.767-0.607,1.132c-0.235,0.366-0.496,0.712-0.784,1.04c-0.288,0.329-0.587,0.621-0.896,0.876
		c-0.026,0.026-0.063,0.049-0.111,0.068c-0.048,0.019-0.098,0.031-0.148,0.04c-0.051,0.008-0.099,0.004-0.144-0.013
		c-0.046-0.016-0.084-0.048-0.116-0.096c-0.059-0.091-0.069-0.179-0.032-0.264c0.037-0.086,0.083-0.152,0.136-0.2
		c0.257-0.229,0.506-0.484,0.748-0.765c0.243-0.28,0.466-0.576,0.668-0.888c0.203-0.312,0.381-0.635,0.532-0.968
		c0.152-0.333,0.269-0.668,0.349-1.004c0.01-0.053,0.013-0.088,0.008-0.104c-0.006-0.016-0.037-0.024-0.097-0.024
		c-0.139,0-0.303,0.001-0.491,0.004c-0.189,0.003-0.378,0.007-0.564,0.012c-0.074,0-0.153,0.001-0.236,0.004
		c-0.082,0.003-0.161,0.004-0.235,0.004c-0.075,0-0.143,0-0.204,0S19.207,5.398,19.176,5.398z M22.919,8.878c0-0.73,0-1.458,0-2.184
		c0-0.725-0.002-1.453-0.008-2.184c0-0.112,0.032-0.197,0.097-0.256c0.063-0.059,0.148-0.088,0.256-0.088
		c0.117,0,0.205,0.035,0.264,0.104s0.088,0.149,0.088,0.24c0,0.106,0,0.244,0,0.412s0,0.356,0,0.564s-0.001,0.428-0.004,0.66
		s-0.004,0.463-0.004,0.692c0,0.363,0,0.746,0,1.148c0,0.403,0,0.796,0,1.181c0,0.384-0.001,0.745-0.004,1.084
		s-0.007,0.631-0.012,0.876c-0.006,0.106-0.043,0.188-0.112,0.244c-0.069,0.056-0.142,0.084-0.216,0.084
		c-0.107,0-0.192-0.035-0.256-0.104c-0.064-0.069-0.097-0.144-0.097-0.224c0.006-0.187,0.01-0.379,0.013-0.576
		c0.002-0.197,0.004-0.402,0.004-0.616c0-0.149-0.002-0.321-0.004-0.516C22.921,9.225,22.919,9.044,22.919,8.878z"/>
</g>
</svg>
