<?xml version="1.0" encoding="utf-8"?>
<!-- Generator: Adobe Illustrator 21.1.0, SVG Export Plug-In . SVG Version: 6.00 Build 0)  -->
<svg version="1.1" id="레이어_1" xmlns="http://www.w3.org/2000/svg" xmlns:xlink="http://www.w3.org/1999/xlink" x="0px"
	 y="0px" viewBox="0 0 36.417 16" style="enable-background:new 0 0 36.417 16;" xml:space="preserve">
<style type="text/css">
	.st0{fill:#FFFFFF;}
</style>
<g>
	<path class="st0" d="M15.169,5.511c0.021,0.123-0.012,0.224-0.1,0.304s-0.183,0.12-0.284,0.12c-0.075,0-0.143-0.02-0.204-0.06
		c-0.061-0.04-0.1-0.105-0.116-0.196c-0.032-0.171-0.103-0.301-0.212-0.392c-0.109-0.091-0.25-0.139-0.42-0.144
		c-0.283-0.005-0.486,0.06-0.608,0.196c-0.123,0.136-0.184,0.292-0.184,0.468c0,0.203,0.076,0.413,0.228,0.632
		c0.152,0.219,0.388,0.48,0.708,0.784c0.261,0.25,0.48,0.475,0.656,0.672c0.176,0.197,0.317,0.384,0.424,0.56
		c0.107,0.176,0.181,0.348,0.224,0.516c0.042,0.168,0.064,0.348,0.064,0.54c0,0.251-0.045,0.47-0.136,0.656
		c-0.091,0.187-0.212,0.341-0.364,0.464c-0.152,0.122-0.327,0.216-0.524,0.28c-0.197,0.063-0.408,0.096-0.632,0.096
		c-0.219,0-0.424-0.035-0.616-0.104s-0.36-0.165-0.504-0.287c-0.144-0.123-0.256-0.269-0.336-0.437s-0.12-0.348-0.12-0.54
		c-0.005-0.112,0.031-0.2,0.108-0.264c0.077-0.064,0.161-0.097,0.252-0.097s0.172,0.025,0.244,0.076s0.113,0.13,0.124,0.236
		c0.011,0.24,0.092,0.424,0.244,0.552c0.152,0.128,0.353,0.192,0.604,0.192c0.293,0,0.519-0.075,0.676-0.225
		C14.522,9.962,14.6,9.756,14.6,9.495c0-0.16-0.024-0.309-0.072-0.444c-0.048-0.136-0.12-0.272-0.216-0.408
		c-0.096-0.136-0.215-0.276-0.356-0.42c-0.141-0.144-0.305-0.31-0.492-0.496c-0.192-0.192-0.365-0.371-0.52-0.536
		c-0.155-0.165-0.284-0.325-0.388-0.48s-0.184-0.307-0.24-0.456c-0.056-0.149-0.084-0.301-0.084-0.456
		c0-0.165,0.028-0.328,0.084-0.488c0.056-0.16,0.146-0.303,0.272-0.428c0.125-0.125,0.285-0.227,0.48-0.304
		c0.194-0.077,0.433-0.116,0.716-0.116c0.352,0,0.652,0.082,0.9,0.244C14.932,4.869,15.094,5.137,15.169,5.511z"/>
	<path class="st0" d="M16.505,5.575c-0.192,0-0.331-0.06-0.416-0.18c-0.085-0.12-0.112-0.252-0.08-0.396
		c0.026-0.139,0.077-0.24,0.152-0.304s0.173-0.106,0.296-0.128c0.075-0.011,0.146-0.004,0.212,0.02
		c0.066,0.024,0.125,0.062,0.176,0.112c0.051,0.05,0.091,0.109,0.12,0.176c0.029,0.067,0.044,0.137,0.044,0.212
		c-0.005,0.123-0.047,0.235-0.124,0.336C16.807,5.524,16.681,5.575,16.505,5.575z M16.281,6.291c0.069-0.056,0.149-0.084,0.24-0.084
		c0.096,0,0.183,0.032,0.26,0.096c0.077,0.064,0.111,0.149,0.1,0.256c0,0.101-0.001,0.19-0.004,0.268
		c-0.003,0.077-0.004,0.153-0.004,0.228c0,0.139,0.001,0.288,0.004,0.448c0.002,0.16,0.006,0.376,0.012,0.648l0.064,2.536
		c0,0.117-0.037,0.204-0.112,0.26c-0.075,0.057-0.155,0.084-0.24,0.084s-0.161-0.029-0.228-0.088
		c-0.066-0.059-0.105-0.139-0.116-0.239c-0.005-0.208-0.011-0.429-0.016-0.66c-0.005-0.232-0.011-0.463-0.016-0.692
		s-0.011-0.449-0.016-0.66c-0.005-0.21-0.008-0.396-0.008-0.556c0-0.17-0.001-0.308-0.004-0.412
		c-0.003-0.104-0.007-0.201-0.012-0.292s-0.008-0.18-0.008-0.268s0-0.186,0-0.292V6.55C16.177,6.433,16.211,6.347,16.281,6.291z"/>
	<path class="st0" d="M18.153,7.542c-0.117,0-0.204-0.032-0.26-0.097c-0.056-0.065-0.084-0.135-0.084-0.21
		c0-0.081,0.029-0.154,0.088-0.219c0.059-0.065,0.146-0.1,0.264-0.105c0.187,0,0.384-0.004,0.592-0.012
		c0.208-0.008,0.413-0.012,0.616-0.012c0.154,0,0.303-0.001,0.444-0.004c0.141-0.002,0.272,0.004,0.396,0.02
		c0.203,0.027,0.31,0.126,0.32,0.297c0.005,0.048-0.003,0.105-0.024,0.172s-0.045,0.127-0.071,0.181
		c-0.16,0.305-0.32,0.595-0.48,0.87s-0.333,0.56-0.52,0.854c-0.107,0.16-0.219,0.329-0.337,0.505
		c-0.117,0.177-0.216,0.335-0.296,0.474c0.251,0,0.518,0,0.801,0c0.282,0,0.535-0.003,0.76-0.008c0.106,0,0.187,0.03,0.24,0.092
		c0.053,0.062,0.079,0.129,0.079,0.204c0,0.08-0.029,0.154-0.088,0.224s-0.141,0.104-0.248,0.104h-2.208
		c-0.139,0-0.23-0.043-0.276-0.128c-0.045-0.086-0.033-0.182,0.036-0.288c0.128-0.203,0.276-0.433,0.443-0.688
		c0.168-0.256,0.332-0.509,0.492-0.76c0.176-0.277,0.331-0.527,0.464-0.749c0.134-0.221,0.254-0.444,0.36-0.668
		c0.011-0.01,0.016-0.028,0.016-0.052s-0.021-0.036-0.063-0.036l-0.92,0.024c-0.091,0.005-0.186,0.009-0.284,0.012
		S18.222,7.542,18.153,7.542z"/>
	<path class="st0" d="M21.241,8.862c0.005-0.245,0.038-0.486,0.1-0.724s0.158-0.448,0.292-0.632
		c0.133-0.184,0.303-0.332,0.508-0.444s0.455-0.168,0.748-0.168c0.155,0,0.311,0.033,0.468,0.1c0.157,0.066,0.301,0.168,0.429,0.304
		c0.128,0.136,0.234,0.307,0.319,0.512c0.086,0.206,0.134,0.447,0.145,0.724c0.005,0.117-0.012,0.219-0.052,0.304
		c-0.04,0.085-0.144,0.144-0.309,0.176c-0.074,0.016-0.19,0.029-0.348,0.04s-0.329,0.021-0.517,0.032
		C22.837,9.098,22.65,9.105,22.46,9.11c-0.189,0.006-0.356,0.011-0.5,0.017c0.005,0.144,0.02,0.291,0.044,0.439
		c0.024,0.149,0.07,0.286,0.14,0.408c0.069,0.123,0.168,0.223,0.296,0.3c0.128,0.078,0.299,0.116,0.513,0.116
		c0.133,0,0.263-0.023,0.388-0.072c0.125-0.048,0.241-0.101,0.348-0.159c0.091-0.049,0.174-0.058,0.248-0.028
		c0.075,0.029,0.134,0.076,0.177,0.14c0.037,0.059,0.052,0.126,0.044,0.2c-0.009,0.074-0.05,0.142-0.124,0.2
		c-0.177,0.128-0.355,0.217-0.536,0.268c-0.182,0.051-0.376,0.076-0.584,0.076c-0.565,0-0.989-0.187-1.272-0.56
		C21.358,10.081,21.224,9.551,21.241,8.862z M22.856,7.55c-0.256-0.01-0.461,0.075-0.615,0.256C22.085,7.988,22,8.22,21.984,8.502
		c0.134,0,0.328-0.001,0.584-0.004c0.257-0.002,0.579-0.025,0.969-0.068c-0.011-0.288-0.084-0.504-0.221-0.648
		C23.18,7.639,23.027,7.561,22.856,7.55z"/>
</g>
</svg>
