<?xml version="1.0" encoding="utf-8"?>
<!-- Generator: Adobe Illustrator 21.1.0, SVG Export Plug-In . SVG Version: 6.00 Build 0)  -->
<svg version="1.1" id="레이어_1" xmlns="http://www.w3.org/2000/svg" xmlns:xlink="http://www.w3.org/1999/xlink" x="0px"
	 y="0px" viewBox="0 0 36.417 16" style="enable-background:new 0 0 36.417 16;" xml:space="preserve">
<style type="text/css">
	.st0{fill:#FFFFFF;}
</style>
<g>
	<path class="st0" d="M13.104,8.855c0,0.042,0.007,0.069,0.02,0.08s0.042,0.016,0.084,0.016c0.25-0.005,0.485-0.015,0.704-0.028
		c0.219-0.013,0.458-0.044,0.72-0.092c0.138-0.027,0.242-0.012,0.312,0.044c0.069,0.056,0.106,0.13,0.112,0.222
		c0.005,0.064-0.008,0.128-0.04,0.19s-0.093,0.106-0.184,0.134c-0.106,0.032-0.243,0.06-0.408,0.081
		c-0.166,0.021-0.34,0.039-0.524,0.053c-0.184,0.013-0.362,0.022-0.536,0.028c-0.173,0.005-0.321,0.008-0.444,0.008
		c-0.117-0.005-0.212-0.024-0.284-0.056c-0.072-0.032-0.127-0.072-0.164-0.12c-0.038-0.048-0.062-0.103-0.072-0.164
		s-0.016-0.13-0.016-0.204c0.005-0.742,0.008-1.362,0.008-1.86s0-0.903,0-1.212c0-0.31,0.001-0.536,0.004-0.68
		C12.399,5.15,12.4,5.065,12.4,5.039c0.005-0.106,0.04-0.189,0.104-0.248s0.16-0.088,0.288-0.088
		c0.144,0.005,0.276,0.009,0.396,0.012c0.12,0.003,0.25,0.004,0.388,0.004c0.314,0,0.608-0.008,0.88-0.024
		c0.123-0.01,0.216,0.019,0.28,0.088c0.064,0.069,0.096,0.144,0.096,0.224c0,0.075-0.025,0.142-0.076,0.2
		c-0.051,0.059-0.122,0.093-0.212,0.104c-0.176,0.016-0.341,0.027-0.496,0.032c-0.155,0.005-0.31,0.008-0.464,0.008l-0.472-0.008
		c-0.005,0.134-0.01,0.324-0.012,0.572c-0.003,0.248-0.004,0.524-0.004,0.828c0.17,0,0.345,0,0.524,0s0.361-0.005,0.548-0.016
		c0.107-0.005,0.181,0.027,0.224,0.096c0.042,0.069,0.064,0.141,0.064,0.216c0,0.069-0.017,0.136-0.052,0.2
		c-0.035,0.064-0.098,0.102-0.188,0.112c-0.075,0.011-0.14,0.017-0.196,0.02c-0.056,0.002-0.121,0.007-0.196,0.012
		c-0.075,0.005-0.168,0.008-0.28,0.008c-0.112,0-0.261,0-0.448,0c0,0.287,0,0.561,0,0.824S13.099,8.69,13.104,8.855z M15.633,6.791
		c0-0.128,0-0.241,0-0.34s0-0.197,0-0.296c0-0.099,0-0.204,0-0.316c0-0.112-0.003-0.248-0.008-0.408
		c0-0.053-0.001-0.119-0.004-0.196c-0.003-0.077-0.005-0.153-0.008-0.228c-0.003-0.074-0.004-0.145-0.004-0.212
		c0-0.066,0-0.121,0-0.164c0.016-0.213,0.131-0.32,0.344-0.32c0.101,0,0.187,0.032,0.256,0.096c0.069,0.064,0.104,0.149,0.104,0.256
		c0.005,0.331,0.008,0.737,0.008,1.22c0,0.483,0,1.001,0,1.556c0,0.299,0,0.609,0,0.932s-0.003,0.641-0.008,0.957
		c-0.005,0.314-0.011,0.621-0.016,0.92c-0.005,0.298-0.011,0.576-0.016,0.832c-0.011,0.106-0.052,0.183-0.124,0.228
		c-0.072,0.045-0.151,0.068-0.236,0.068c-0.085,0-0.16-0.029-0.224-0.088c-0.064-0.06-0.099-0.131-0.104-0.217
		c0.021-0.607,0.035-1.212,0.04-1.812c0.005-0.6,0.008-1.207,0.008-1.82c-0.123,0.005-0.24,0.007-0.352,0.004
		c-0.112-0.002-0.197-0.004-0.256-0.004c-0.096,0-0.182-0.025-0.256-0.076c-0.075-0.05-0.112-0.129-0.112-0.236
		c0-0.101,0.032-0.181,0.096-0.24S14.905,6.798,15,6.798L15.633,6.791z M16.912,10.807c0-0.416,0-0.858,0-1.328
		c0-0.469-0.003-0.92-0.008-1.352c-0.005-0.432-0.008-0.849-0.008-1.252s0-0.769,0-1.1c0-0.277,0-0.521,0-0.732
		c0-0.21,0.005-0.377,0.016-0.5c0.011-0.106,0.048-0.189,0.112-0.248s0.144-0.088,0.24-0.088c0.096,0,0.176,0.025,0.24,0.076
		s0.099,0.124,0.104,0.22v0.288c0,0.043-0.001,0.084-0.004,0.124C17.602,4.955,17.6,4.996,17.6,5.039
		c0,0.187-0.001,0.385-0.004,0.596c-0.003,0.211-0.004,0.434-0.004,0.668c0,0.224-0.001,0.453-0.004,0.688
		c-0.002,0.234-0.004,0.475-0.004,0.72c0,0.491,0.003,1.005,0.008,1.544c0.005,0.539,0.013,1.048,0.024,1.528v0.096
		c0,0.059,0,0.124,0,0.196c0,0.071-0.003,0.126-0.008,0.163c-0.016,0.102-0.056,0.17-0.12,0.204
		c-0.064,0.035-0.139,0.053-0.224,0.053c-0.096,0-0.179-0.034-0.248-0.101s-0.104-0.143-0.104-0.228V10.807z"/>
	<path class="st0" d="M18.648,5.07c0-0.106,0.025-0.196,0.076-0.268c0.051-0.072,0.148-0.119,0.292-0.14
		c0.165,0.011,0.336,0.017,0.512,0.02c0.177,0.002,0.35,0.004,0.521,0.004c0.154,0,0.305-0.002,0.452-0.008
		c0.146-0.005,0.284-0.016,0.412-0.032c0.053-0.005,0.11-0.004,0.172,0.004c0.061,0.008,0.117,0.029,0.168,0.064
		s0.093,0.084,0.128,0.148c0.034,0.064,0.052,0.149,0.052,0.256c0,0.075,0,0.196,0,0.364s0,0.363,0,0.584
		c0,0.222,0.001,0.461,0.004,0.72s0.004,0.519,0.004,0.78c0,0.262,0,0.514,0,0.756s0,0.457,0,0.644c0,0.064-0.002,0.129-0.008,0.197
		c-0.005,0.066-0.021,0.125-0.048,0.176s-0.068,0.089-0.124,0.116c-0.056,0.026-0.135,0.031-0.236,0.016
		c-0.117-0.016-0.271-0.02-0.46-0.012s-0.396,0.015-0.62,0.02c-0.111,0.006-0.239,0.011-0.384,0.017
		c-0.144,0.005-0.319,0.008-0.527,0.008c-0.038,0-0.078-0.006-0.12-0.017c-0.043-0.01-0.083-0.03-0.12-0.06
		c-0.038-0.029-0.069-0.07-0.097-0.124c-0.026-0.054-0.042-0.125-0.048-0.216c-0.005-0.091-0.009-0.235-0.012-0.433
		c-0.003-0.197-0.004-0.413-0.004-0.648c0-0.181,0.001-0.373,0.004-0.576s0.004-0.408,0.004-0.616
		c0.005-0.336,0.008-0.657,0.008-0.964S18.648,5.284,18.648,5.07z M20.744,8.878c0.005-0.176,0.008-0.392,0.008-0.648s0-0.522,0-0.8
		V5.415c0-0.048-0.01-0.08-0.028-0.096c-0.019-0.016-0.049-0.024-0.092-0.024c-0.069,0.005-0.149,0.009-0.24,0.012
		c-0.091,0.002-0.173,0.004-0.248,0.004c-0.122,0-0.238-0.001-0.348-0.004c-0.109-0.003-0.249-0.007-0.42-0.012
		c0,0.107-0.002,0.256-0.004,0.448c-0.003,0.192-0.01,0.405-0.021,0.64c-0.005,0.171-0.011,0.348-0.016,0.532
		c-0.006,0.184-0.01,0.368-0.012,0.552c-0.003,0.184-0.006,0.36-0.009,0.528c-0.002,0.168-0.004,0.316-0.004,0.444
		c0,0.064,0.002,0.122,0.004,0.172c0.003,0.051,0.004,0.098,0.004,0.14c0,0.059,0.011,0.096,0.032,0.112
		c0.021,0.016,0.054,0.024,0.097,0.024L20.744,8.878z M22.648,11.11c0-0.442,0-0.903,0-1.384c0-0.479-0.001-0.951-0.004-1.412
		s-0.007-0.904-0.012-1.328c-0.006-0.424-0.01-0.804-0.012-1.14c-0.003-0.336-0.007-0.615-0.013-0.836
		c-0.005-0.222-0.011-0.364-0.016-0.428c-0.006-0.112,0.026-0.2,0.096-0.264s0.146-0.099,0.232-0.104
		c0.144-0.01,0.248,0.016,0.312,0.08c0.064,0.064,0.097,0.144,0.097,0.24c0,0.064,0,0.135,0,0.212s0.002,0.164,0.008,0.26
		c0.005,0.208,0.009,0.412,0.012,0.612c0.003,0.2,0.004,0.42,0.004,0.66c0,0.091,0.001,0.171,0.004,0.24s0.004,0.157,0.004,0.264
		c0.075,0.005,0.141,0.008,0.196,0.008s0.127,0,0.212,0c0.091,0,0.185-0.001,0.28-0.004c0.096-0.003,0.194-0.007,0.296-0.012
		c0.123,0,0.215,0.034,0.276,0.1c0.061,0.067,0.092,0.14,0.092,0.22c0,0.08-0.033,0.153-0.101,0.22
		c-0.066,0.067-0.153,0.103-0.26,0.108c-0.122,0.005-0.26,0.008-0.412,0.008c-0.151,0-0.283,0-0.396,0h-0.192
		c0,0.16-0.001,0.323-0.004,0.488c-0.003,0.166-0.004,0.336-0.004,0.512c0,0.384,0.003,0.791,0.008,1.22
		c0.006,0.43,0.014,0.836,0.024,1.221c0,0.059,0,0.122,0,0.191s-0.006,0.131-0.017,0.185c-0.026,0.106-0.071,0.173-0.136,0.199
		c-0.063,0.027-0.136,0.04-0.216,0.04c-0.149,0-0.247-0.04-0.292-0.119C22.67,11.287,22.648,11.201,22.648,11.11z"/>
</g>
</svg>
