<?xml version="1.0" encoding="utf-8"?>
<!-- Generator: Adobe Illustrator 21.1.0, SVG Export Plug-In . SVG Version: 6.00 Build 0)  -->
<svg version="1.1" id="레이어_1" xmlns="http://www.w3.org/2000/svg" xmlns:xlink="http://www.w3.org/1999/xlink" x="0px"
	 y="0px" viewBox="0 0 36.417 16" style="enable-background:new 0 0 36.417 16;" xml:space="preserve">
<style type="text/css">
	.st0{fill:#FFFFFF;}
</style>
<g>
	<path class="st0" d="M8.593,5.278C8.438,5.284,8.326,5.249,8.257,5.174C8.187,5.1,8.153,5.017,8.153,4.926
		c0-0.08,0.031-0.152,0.092-0.216C8.306,4.646,8.39,4.612,8.496,4.606C8.737,4.596,8.991,4.59,9.261,4.59c0.269,0,0.532,0,0.788,0
		c0.229,0,0.455,0.001,0.676,0.004c0.221,0.002,0.436,0.006,0.644,0.012c0.102,0.005,0.181,0.042,0.24,0.108
		c0.059,0.067,0.088,0.138,0.088,0.212c0,0.08-0.029,0.154-0.088,0.22c-0.059,0.067-0.147,0.1-0.264,0.1h-1.152
		c0.005,0.416,0.012,0.843,0.02,1.28c0.008,0.438,0.017,0.851,0.028,1.24c0.005,0.091,0.008,0.203,0.008,0.336s0,0.243,0,0.328
		c0,0.234-0.002,0.476-0.008,0.724c-0.005,0.248-0.011,0.487-0.016,0.717c-0.005,0.128-0.008,0.26-0.008,0.396
		s-0.003,0.273-0.008,0.412c-0.005,0.112-0.045,0.197-0.12,0.256s-0.158,0.088-0.248,0.088c-0.091,0-0.173-0.027-0.248-0.084
		c-0.075-0.056-0.115-0.137-0.12-0.244c-0.005-0.133-0.005-0.268,0-0.403c0.005-0.137,0.011-0.269,0.016-0.396
		c0.005-0.213,0.011-0.452,0.016-0.716C9.51,8.915,9.513,8.673,9.513,8.455c0-0.096,0-0.197,0-0.304
		c0-0.106-0.003-0.243-0.008-0.408c-0.011-0.4-0.023-0.813-0.036-1.24s-0.02-0.84-0.02-1.24C9.283,5.268,9.13,5.271,8.989,5.271
		C8.847,5.271,8.715,5.273,8.593,5.278z"/>
	<path class="st0" d="M13.865,7.526c-0.139,0-0.283,0.063-0.432,0.188c-0.149,0.125-0.301,0.29-0.456,0.492
		c-0.005,0.064-0.009,0.14-0.012,0.228c-0.003,0.088-0.004,0.18-0.004,0.276c0,0.182,0.003,0.387,0.008,0.617
		c0.005,0.229,0.01,0.437,0.016,0.624c0.005,0.149,0.009,0.287,0.012,0.416C12.999,10.495,13,10.599,13,10.679
		c0,0.112-0.033,0.194-0.1,0.248c-0.066,0.054-0.145,0.08-0.236,0.08s-0.173-0.029-0.248-0.088s-0.115-0.142-0.12-0.248
		c-0.005-0.08-0.008-0.157-0.008-0.232c0-0.074-0.003-0.149-0.008-0.224c-0.011-0.134-0.018-0.282-0.02-0.448
		c-0.003-0.165-0.004-0.322-0.004-0.472c-0.005-0.411-0.015-0.822-0.028-1.232s-0.02-0.827-0.02-1.248
		c-0.005-0.09-0.011-0.225-0.016-0.404s-0.008-0.364-0.008-0.556c0-0.17,0.002-0.344,0.008-0.52
		c0.005-0.176,0.016-0.341,0.032-0.496c0.011-0.106,0.044-0.188,0.1-0.244c0.056-0.056,0.143-0.079,0.26-0.068
		c0.123,0.011,0.209,0.048,0.26,0.112c0.05,0.064,0.073,0.144,0.068,0.24c-0.011,0.155-0.02,0.331-0.028,0.528
		c-0.008,0.197-0.012,0.378-0.012,0.544c0,0.155,0.001,0.308,0.004,0.46c0.003,0.152,0.007,0.3,0.012,0.444
		c0,0.075,0.001,0.155,0.004,0.24c0.002,0.085,0.007,0.165,0.012,0.24c0.112-0.101,0.237-0.199,0.376-0.292s0.301-0.153,0.488-0.18
		c0.213-0.026,0.399-0.016,0.556,0.032s0.288,0.129,0.392,0.244s0.184,0.264,0.24,0.448s0.089,0.399,0.1,0.644
		c0.011,0.32,0.019,0.656,0.024,1.008c0.005,0.353,0.008,0.667,0.008,0.944v0.472c0,0.112-0.036,0.196-0.108,0.253
		c-0.072,0.056-0.153,0.084-0.244,0.084c-0.085,0-0.163-0.027-0.232-0.08c-0.069-0.054-0.106-0.134-0.112-0.24
		c-0.005-0.139-0.009-0.289-0.012-0.452c-0.003-0.163-0.004-0.332-0.004-0.508c0-0.203-0.001-0.423-0.004-0.66
		s-0.009-0.468-0.02-0.692c-0.011-0.298-0.055-0.512-0.132-0.64C14.143,7.59,14.024,7.526,13.865,7.526z"/>
	<path class="st0" d="M15.969,8.862c0.005-0.245,0.039-0.486,0.1-0.724c0.061-0.237,0.158-0.448,0.292-0.632
		c0.133-0.184,0.302-0.332,0.508-0.444c0.205-0.112,0.455-0.168,0.748-0.168c0.155,0,0.311,0.033,0.468,0.1
		c0.157,0.066,0.3,0.168,0.428,0.304c0.128,0.136,0.234,0.307,0.32,0.512c0.085,0.206,0.133,0.447,0.144,0.724
		c0.006,0.117-0.012,0.219-0.052,0.304c-0.04,0.085-0.143,0.144-0.308,0.176c-0.075,0.016-0.191,0.029-0.349,0.04
		c-0.157,0.011-0.329,0.021-0.516,0.032c-0.187,0.011-0.375,0.019-0.564,0.023c-0.189,0.006-0.356,0.011-0.5,0.017
		c0.005,0.144,0.02,0.291,0.044,0.439c0.024,0.149,0.071,0.286,0.14,0.408c0.069,0.123,0.168,0.223,0.296,0.3
		c0.128,0.078,0.299,0.116,0.512,0.116c0.133,0,0.263-0.023,0.388-0.072c0.125-0.048,0.241-0.101,0.348-0.159
		c0.091-0.049,0.173-0.058,0.248-0.028c0.074,0.029,0.133,0.076,0.176,0.14c0.037,0.059,0.052,0.126,0.044,0.2
		s-0.049,0.142-0.124,0.2c-0.176,0.128-0.354,0.217-0.536,0.268c-0.181,0.051-0.375,0.076-0.583,0.076
		c-0.565,0-0.989-0.187-1.272-0.56C16.086,10.081,15.952,9.551,15.969,8.862z M17.584,7.55c-0.256-0.01-0.461,0.075-0.616,0.256
		c-0.155,0.181-0.24,0.413-0.256,0.696c0.133,0,0.328-0.001,0.584-0.004c0.256-0.002,0.579-0.025,0.968-0.068
		c-0.011-0.288-0.083-0.504-0.22-0.648C17.909,7.639,17.755,7.561,17.584,7.55z"/>
	<path class="st0" d="M23.368,7.999c-0.011-0.133-0.046-0.236-0.104-0.308c-0.059-0.072-0.133-0.105-0.224-0.1
		c-0.139,0.005-0.264,0.049-0.376,0.132c-0.112,0.083-0.216,0.175-0.313,0.276c0,0.048,0.002,0.1,0.005,0.156
		c0.002,0.056,0.004,0.131,0.004,0.224s0,0.213,0,0.36c0,0.147,0,0.332,0,0.557c0,0.208,0.001,0.438,0.004,0.688
		c0.002,0.251,0.004,0.485,0.004,0.704c0,0.106-0.039,0.188-0.116,0.244S22.091,11.015,22,11.015c-0.085,0-0.161-0.026-0.228-0.08
		c-0.067-0.053-0.105-0.133-0.116-0.24c0.011-0.181,0.017-0.389,0.02-0.624c0.003-0.234,0.004-0.455,0.004-0.663
		c0-0.235-0.001-0.47-0.004-0.705s-0.009-0.459-0.02-0.672c-0.011-0.133-0.055-0.236-0.132-0.308
		C21.447,7.65,21.363,7.62,21.273,7.63c-0.145,0.011-0.271,0.054-0.381,0.128c-0.109,0.075-0.209,0.174-0.3,0.296
		c0,0.416-0.001,0.853-0.004,1.313c-0.003,0.458-0.004,0.898-0.004,1.319c0,0.106-0.039,0.188-0.116,0.244s-0.158,0.084-0.244,0.084
		c-0.074,0-0.149-0.026-0.224-0.08c-0.075-0.053-0.112-0.133-0.112-0.24V7.23c0.021-0.101,0.064-0.176,0.128-0.224
		c0.064-0.048,0.134-0.072,0.208-0.072c0.075,0,0.153,0.019,0.236,0.056c0.083,0.037,0.124,0.125,0.124,0.264
		c0.106-0.085,0.224-0.156,0.352-0.212c0.129-0.056,0.248-0.086,0.36-0.092c0.187,0,0.353,0.032,0.496,0.096s0.27,0.171,0.376,0.32
		c0.117-0.123,0.249-0.223,0.396-0.3c0.146-0.077,0.311-0.119,0.491-0.124c0.177,0,0.327,0.028,0.452,0.084
		c0.125,0.056,0.23,0.132,0.316,0.228c0.085,0.096,0.149,0.206,0.191,0.328c0.043,0.123,0.067,0.248,0.072,0.376
		c0.005,0.123,0.01,0.251,0.012,0.384c0.003,0.134,0.004,0.27,0.004,0.408S24.103,9.03,24.1,9.175
		c-0.002,0.144-0.004,0.285-0.004,0.424c0,0.182-0.001,0.364-0.004,0.548c-0.003,0.185-0.001,0.361,0.004,0.532
		c0.006,0.117-0.027,0.203-0.1,0.256c-0.072,0.054-0.153,0.08-0.244,0.08s-0.173-0.022-0.248-0.068
		c-0.074-0.045-0.114-0.118-0.12-0.22V9.615c0-0.112,0.001-0.226,0.004-0.341c0.003-0.114,0.004-0.228,0.004-0.34
		c0-0.144-0.001-0.291-0.004-0.44S23.379,8.18,23.368,7.999z"/>
	<path class="st0" d="M26.449,7.495c-0.139,0-0.284,0.035-0.437,0.104c-0.151,0.069-0.286,0.149-0.403,0.24
		c-0.069,0.059-0.147,0.098-0.232,0.116s-0.163-0.009-0.232-0.084c-0.053-0.059-0.084-0.128-0.092-0.208s0.025-0.168,0.101-0.264
		c0.08-0.101,0.209-0.199,0.388-0.292s0.38-0.167,0.604-0.22c0.059-0.011,0.122-0.021,0.188-0.032s0.132-0.016,0.196-0.016
		c0.144,0,0.285,0.019,0.424,0.056c0.139,0.038,0.265,0.095,0.38,0.172c0.114,0.078,0.208,0.176,0.28,0.296
		c0.071,0.12,0.11,0.266,0.115,0.436c0.011,0.171,0.02,0.357,0.024,0.56s0.011,0.411,0.016,0.624
		c0.006,0.267,0.009,0.55,0.009,0.849s0.008,0.576,0.023,0.832c0.006,0.106-0.027,0.188-0.1,0.248
		c-0.072,0.059-0.151,0.088-0.236,0.088c-0.069,0-0.133-0.025-0.191-0.076c-0.06-0.051-0.097-0.116-0.112-0.196
		c-0.106,0.075-0.235,0.134-0.384,0.176c-0.149,0.043-0.283,0.069-0.4,0.08c-0.251,0.017-0.468-0.005-0.652-0.063
		c-0.184-0.059-0.334-0.145-0.451-0.256c-0.118-0.112-0.203-0.248-0.257-0.408c-0.053-0.16-0.074-0.336-0.063-0.528
		c0.016-0.336,0.124-0.611,0.324-0.828c0.199-0.216,0.479-0.361,0.836-0.436c0.106-0.026,0.252-0.053,0.436-0.08
		c0.185-0.026,0.361-0.04,0.532-0.04c-0.006-0.074-0.008-0.149-0.008-0.224s-0.003-0.128-0.008-0.16
		c-0.011-0.075-0.027-0.141-0.049-0.2c-0.021-0.059-0.055-0.108-0.1-0.148s-0.105-0.069-0.18-0.088
		C26.661,7.504,26.566,7.495,26.449,7.495z M25.657,9.774c0,0.214,0.06,0.374,0.18,0.48s0.278,0.154,0.476,0.144
		c0.107-0.005,0.21-0.023,0.309-0.056s0.186-0.073,0.26-0.124c0.075-0.051,0.134-0.108,0.176-0.172
		c0.043-0.064,0.064-0.128,0.064-0.192c-0.006-0.149-0.01-0.296-0.012-0.439c-0.003-0.145-0.007-0.291-0.013-0.44
		c-0.111-0.005-0.245,0.001-0.399,0.02c-0.155,0.019-0.291,0.042-0.408,0.068c-0.208,0.043-0.365,0.132-0.472,0.269
		C25.709,9.467,25.657,9.615,25.657,9.774z"/>
</g>
</svg>
